; NON-PLATED HOLES START AT T1
; THROUGH (PLATED) HOLES START AT T100
M48
INCH
T100C0.038000
T101C0.040000
T102C0.035000
T103C0.035433
T104C0.022334
%
T100
X029484Y025098
X030484Y010098
X028484Y010098
X028484Y020098
X029484Y010098
X030484Y001098
X028484Y001098
X028484Y017098
X031484Y010098
X029484Y001098
X028484Y021098
X028484Y018098
X031484Y001098
X030484Y013098
X029484Y013098
X030484Y025098
T101
X018484Y016098
X024484Y019098
X018484Y020098
X018484Y017098
X018484Y021098
X018484Y018098
X018484Y022098
X024484Y015098
X018484Y019098
X024484Y016098
X024484Y020098
X024484Y017098
X024484Y021098
X018484Y015098
X024484Y018098
X024484Y022098
T102
X027484Y007098
X020484Y007098
X023484Y004098
X024484Y004098
X025484Y004098
X021484Y007098
X022484Y007098
X026484Y004098
X027484Y004098
X020484Y004098
X023484Y007098
X024484Y007098
X025484Y007098
X021484Y004098
X022484Y004098
X026484Y007098
T103
X016680Y009439
X021240Y009919
T104
X012484Y014096
X003510Y013098
X003510Y009104
X003510Y018090
X003510Y021085
X012484Y022084
X003510Y010102
X012484Y011101
X012484Y016093
X003510Y015095
X003510Y012099
X012484Y013098
X003510Y019088
X003510Y008105
X012484Y009104
X012484Y018090
X003510Y017092
X012484Y021085
X003510Y020087
X012484Y010102
X003510Y014096
X012484Y015095
X003510Y022084
X012484Y012099
X012484Y019088
X003510Y011101
X012484Y008105
X003510Y016093
X012484Y017092
X012484Y020087
T00
M30
