G04 MADE WITH FRITZING*
G04 WWW.FRITZING.ORG*
G04 SINGLE SIDED*
G04 HOLES NOT PLATED*
G04 CONTOUR ON CENTER OF CONTOUR VECTOR*
%ASAXBY*%
%FSLAX23Y23*%
%MOIN*%
%OFA0B0*%
%SFA1.0B1.0*%
%ADD10C,0.074000*%
%ADD11C,0.047859*%
%ADD12C,0.078000*%
%ADD13C,0.024000*%
%ADD14R,0.001000X0.001000*%
%LNCOPPER0*%
G90*
G70*
G54D10*
X2448Y2210D03*
X2448Y2110D03*
X2448Y2010D03*
X2448Y1910D03*
X2448Y1810D03*
X2448Y1710D03*
X2448Y1610D03*
X2448Y1510D03*
X1848Y1510D03*
X1848Y1610D03*
X1848Y1710D03*
X1848Y1810D03*
X1848Y1910D03*
X1848Y2010D03*
X1848Y2110D03*
X1848Y2210D03*
G54D11*
X1248Y2009D03*
X351Y2208D03*
X351Y2109D03*
X351Y2009D03*
X351Y1909D03*
X351Y1809D03*
X1248Y2109D03*
X1248Y2208D03*
X1248Y1909D03*
X351Y1709D03*
X351Y1609D03*
X351Y1510D03*
X351Y1410D03*
X351Y1310D03*
X351Y1210D03*
X351Y1110D03*
X351Y1010D03*
X351Y910D03*
X351Y811D03*
X1248Y1510D03*
X1248Y1410D03*
X1248Y1310D03*
X1248Y1210D03*
X1248Y1110D03*
X1248Y1010D03*
X1248Y910D03*
X1248Y811D03*
X1248Y1809D03*
X1248Y1709D03*
X1248Y1609D03*
G54D12*
X2848Y2110D03*
X2848Y2010D03*
X2848Y1810D03*
X2848Y1710D03*
X3048Y2510D03*
X2948Y2510D03*
X3048Y1010D03*
X2948Y1010D03*
G54D13*
X2818Y2110D02*
X2480Y2110D01*
D02*
X1347Y509D02*
X2425Y1489D01*
D02*
X149Y509D02*
X1347Y509D01*
D02*
X339Y792D02*
X149Y509D01*
D02*
X2819Y1717D02*
X2479Y1802D01*
D02*
X2819Y1817D02*
X2479Y1902D01*
D02*
X2818Y2010D02*
X2480Y2010D01*
D02*
X3048Y2480D02*
X3048Y1040D01*
D02*
X1271Y2109D02*
X1817Y2110D01*
D02*
X1271Y2009D02*
X1817Y2010D01*
D02*
X1270Y1813D02*
X1818Y1905D01*
D02*
X1265Y1225D02*
X1524Y1472D01*
X1524Y1472D02*
X1818Y1506D01*
D02*
X1265Y1325D02*
X1524Y1568D01*
X1524Y1568D02*
X1818Y1606D01*
D02*
X1265Y1425D02*
X1524Y1664D01*
X1524Y1664D02*
X1818Y1705D01*
D02*
X1264Y1525D02*
X1500Y1760D01*
X1500Y1760D02*
X1818Y1805D01*
D02*
X2470Y1488D02*
X2927Y1031D01*
D02*
X1254Y1688D02*
X1260Y1664D01*
X1260Y1664D02*
X1188Y1664D01*
X1188Y1664D02*
X1188Y1160D01*
X1188Y1160D02*
X1452Y1160D01*
X1452Y1160D02*
X2420Y1597D01*
D02*
X2475Y2226D02*
X2923Y2494D01*
D02*
X1227Y917D02*
X1140Y944D01*
X1140Y944D02*
X1140Y1712D01*
X1140Y1712D02*
X1200Y2240D01*
X1200Y2240D02*
X1212Y2264D01*
X1212Y2264D02*
X1817Y2212D01*
G54D14*
X1783Y2239D02*
X1842Y2239D01*
X1854Y2239D02*
X1913Y2239D01*
X2383Y2239D02*
X2442Y2239D01*
X2454Y2239D02*
X2513Y2239D01*
X1783Y2238D02*
X1840Y2238D01*
X1856Y2238D02*
X1913Y2238D01*
X2383Y2238D02*
X2440Y2238D01*
X2456Y2238D02*
X2513Y2238D01*
X1783Y2237D02*
X1837Y2237D01*
X1859Y2237D02*
X1913Y2237D01*
X2383Y2237D02*
X2437Y2237D01*
X2459Y2237D02*
X2513Y2237D01*
X1783Y2236D02*
X1835Y2236D01*
X1861Y2236D02*
X1913Y2236D01*
X2383Y2236D02*
X2435Y2236D01*
X2461Y2236D02*
X2513Y2236D01*
X1783Y2235D02*
X1833Y2235D01*
X1863Y2235D02*
X1913Y2235D01*
X2383Y2235D02*
X2433Y2235D01*
X2463Y2235D02*
X2513Y2235D01*
X1783Y2234D02*
X1831Y2234D01*
X1865Y2234D02*
X1913Y2234D01*
X2383Y2234D02*
X2431Y2234D01*
X2465Y2234D02*
X2513Y2234D01*
X1783Y2233D02*
X1830Y2233D01*
X1866Y2233D02*
X1913Y2233D01*
X2383Y2233D02*
X2430Y2233D01*
X2466Y2233D02*
X2513Y2233D01*
X1783Y2232D02*
X1829Y2232D01*
X1867Y2232D02*
X1913Y2232D01*
X2383Y2232D02*
X2429Y2232D01*
X2467Y2232D02*
X2513Y2232D01*
X1783Y2231D02*
X1828Y2231D01*
X1868Y2231D02*
X1913Y2231D01*
X2383Y2231D02*
X2428Y2231D01*
X2468Y2231D02*
X2513Y2231D01*
X1783Y2230D02*
X1827Y2230D01*
X1869Y2230D02*
X1913Y2230D01*
X2383Y2230D02*
X2427Y2230D01*
X2469Y2230D02*
X2513Y2230D01*
X1783Y2229D02*
X1826Y2229D01*
X1870Y2229D02*
X1913Y2229D01*
X2383Y2229D02*
X2426Y2229D01*
X2470Y2229D02*
X2513Y2229D01*
X1783Y2228D02*
X1825Y2228D01*
X1871Y2228D02*
X1913Y2228D01*
X2383Y2228D02*
X2425Y2228D01*
X2471Y2228D02*
X2513Y2228D01*
X1783Y2227D02*
X1824Y2227D01*
X1872Y2227D02*
X1913Y2227D01*
X2383Y2227D02*
X2424Y2227D01*
X2472Y2227D02*
X2513Y2227D01*
X1783Y2226D02*
X1823Y2226D01*
X1872Y2226D02*
X1913Y2226D01*
X2383Y2226D02*
X2423Y2226D01*
X2472Y2226D02*
X2513Y2226D01*
X1783Y2225D02*
X1823Y2225D01*
X1873Y2225D02*
X1913Y2225D01*
X2383Y2225D02*
X2423Y2225D01*
X2473Y2225D02*
X2513Y2225D01*
X1783Y2224D02*
X1822Y2224D01*
X1874Y2224D02*
X1913Y2224D01*
X2383Y2224D02*
X2422Y2224D01*
X2474Y2224D02*
X2513Y2224D01*
X1783Y2223D02*
X1822Y2223D01*
X1874Y2223D02*
X1913Y2223D01*
X2383Y2223D02*
X2422Y2223D01*
X2474Y2223D02*
X2513Y2223D01*
X1783Y2222D02*
X1821Y2222D01*
X1875Y2222D02*
X1913Y2222D01*
X2383Y2222D02*
X2421Y2222D01*
X2475Y2222D02*
X2513Y2222D01*
X1783Y2221D02*
X1821Y2221D01*
X1875Y2221D02*
X1913Y2221D01*
X2383Y2221D02*
X2421Y2221D01*
X2475Y2221D02*
X2513Y2221D01*
X1783Y2220D02*
X1821Y2220D01*
X1875Y2220D02*
X1913Y2220D01*
X2383Y2220D02*
X2421Y2220D01*
X2475Y2220D02*
X2513Y2220D01*
X1783Y2219D02*
X1820Y2219D01*
X1876Y2219D02*
X1913Y2219D01*
X2383Y2219D02*
X2420Y2219D01*
X2476Y2219D02*
X2513Y2219D01*
X1783Y2218D02*
X1820Y2218D01*
X1876Y2218D02*
X1913Y2218D01*
X2383Y2218D02*
X2420Y2218D01*
X2476Y2218D02*
X2513Y2218D01*
X1783Y2217D02*
X1820Y2217D01*
X1876Y2217D02*
X1913Y2217D01*
X2383Y2217D02*
X2420Y2217D01*
X2476Y2217D02*
X2513Y2217D01*
X1783Y2216D02*
X1819Y2216D01*
X1876Y2216D02*
X1913Y2216D01*
X2383Y2216D02*
X2419Y2216D01*
X2476Y2216D02*
X2513Y2216D01*
X1783Y2215D02*
X1819Y2215D01*
X1877Y2215D02*
X1913Y2215D01*
X2383Y2215D02*
X2419Y2215D01*
X2477Y2215D02*
X2513Y2215D01*
X1783Y2214D02*
X1819Y2214D01*
X1877Y2214D02*
X1913Y2214D01*
X2383Y2214D02*
X2419Y2214D01*
X2477Y2214D02*
X2513Y2214D01*
X1783Y2213D02*
X1819Y2213D01*
X1877Y2213D02*
X1913Y2213D01*
X2383Y2213D02*
X2419Y2213D01*
X2477Y2213D02*
X2513Y2213D01*
X1783Y2212D02*
X1819Y2212D01*
X1877Y2212D02*
X1913Y2212D01*
X2383Y2212D02*
X2419Y2212D01*
X2477Y2212D02*
X2513Y2212D01*
X1783Y2211D02*
X1819Y2211D01*
X1877Y2211D02*
X1913Y2211D01*
X2383Y2211D02*
X2419Y2211D01*
X2477Y2211D02*
X2513Y2211D01*
X1783Y2210D02*
X1819Y2210D01*
X1877Y2210D02*
X1913Y2210D01*
X2383Y2210D02*
X2419Y2210D01*
X2477Y2210D02*
X2513Y2210D01*
X1783Y2209D02*
X1819Y2209D01*
X1877Y2209D02*
X1913Y2209D01*
X2383Y2209D02*
X2419Y2209D01*
X2477Y2209D02*
X2513Y2209D01*
X1783Y2208D02*
X1819Y2208D01*
X1877Y2208D02*
X1913Y2208D01*
X2383Y2208D02*
X2419Y2208D01*
X2477Y2208D02*
X2513Y2208D01*
X1783Y2207D02*
X1819Y2207D01*
X1877Y2207D02*
X1913Y2207D01*
X2383Y2207D02*
X2419Y2207D01*
X2477Y2207D02*
X2513Y2207D01*
X1783Y2206D02*
X1819Y2206D01*
X1877Y2206D02*
X1913Y2206D01*
X2383Y2206D02*
X2419Y2206D01*
X2477Y2206D02*
X2513Y2206D01*
X1783Y2205D02*
X1820Y2205D01*
X1876Y2205D02*
X1913Y2205D01*
X2383Y2205D02*
X2420Y2205D01*
X2476Y2205D02*
X2513Y2205D01*
X1783Y2204D02*
X1820Y2204D01*
X1876Y2204D02*
X1913Y2204D01*
X2383Y2204D02*
X2420Y2204D01*
X2476Y2204D02*
X2513Y2204D01*
X1783Y2203D02*
X1820Y2203D01*
X1876Y2203D02*
X1913Y2203D01*
X2383Y2203D02*
X2420Y2203D01*
X2476Y2203D02*
X2513Y2203D01*
X1783Y2202D02*
X1820Y2202D01*
X1876Y2202D02*
X1913Y2202D01*
X2383Y2202D02*
X2420Y2202D01*
X2476Y2202D02*
X2513Y2202D01*
X1783Y2201D02*
X1821Y2201D01*
X1875Y2201D02*
X1913Y2201D01*
X2383Y2201D02*
X2421Y2201D01*
X2475Y2201D02*
X2513Y2201D01*
X1783Y2200D02*
X1821Y2200D01*
X1875Y2200D02*
X1913Y2200D01*
X2383Y2200D02*
X2421Y2200D01*
X2475Y2200D02*
X2513Y2200D01*
X1783Y2199D02*
X1821Y2199D01*
X1874Y2199D02*
X1913Y2199D01*
X2383Y2199D02*
X2421Y2199D01*
X2474Y2199D02*
X2513Y2199D01*
X1783Y2198D02*
X1822Y2198D01*
X1874Y2198D02*
X1913Y2198D01*
X2383Y2198D02*
X2422Y2198D01*
X2474Y2198D02*
X2513Y2198D01*
X1783Y2197D02*
X1822Y2197D01*
X1873Y2197D02*
X1913Y2197D01*
X2383Y2197D02*
X2422Y2197D01*
X2473Y2197D02*
X2513Y2197D01*
X1783Y2196D02*
X1823Y2196D01*
X1873Y2196D02*
X1913Y2196D01*
X2383Y2196D02*
X2423Y2196D01*
X2473Y2196D02*
X2513Y2196D01*
X1783Y2195D02*
X1824Y2195D01*
X1872Y2195D02*
X1913Y2195D01*
X2383Y2195D02*
X2424Y2195D01*
X2472Y2195D02*
X2513Y2195D01*
X1783Y2194D02*
X1824Y2194D01*
X1872Y2194D02*
X1913Y2194D01*
X2383Y2194D02*
X2424Y2194D01*
X2472Y2194D02*
X2513Y2194D01*
X1783Y2193D02*
X1825Y2193D01*
X1871Y2193D02*
X1913Y2193D01*
X2383Y2193D02*
X2425Y2193D01*
X2471Y2193D02*
X2513Y2193D01*
X1783Y2192D02*
X1826Y2192D01*
X1870Y2192D02*
X1913Y2192D01*
X2383Y2192D02*
X2426Y2192D01*
X2470Y2192D02*
X2513Y2192D01*
X1783Y2191D02*
X1827Y2191D01*
X1869Y2191D02*
X1913Y2191D01*
X2383Y2191D02*
X2427Y2191D01*
X2469Y2191D02*
X2513Y2191D01*
X1783Y2190D02*
X1828Y2190D01*
X1868Y2190D02*
X1913Y2190D01*
X2383Y2190D02*
X2428Y2190D01*
X2468Y2190D02*
X2513Y2190D01*
X1783Y2189D02*
X1829Y2189D01*
X1867Y2189D02*
X1913Y2189D01*
X2383Y2189D02*
X2429Y2189D01*
X2467Y2189D02*
X2513Y2189D01*
X1783Y2188D02*
X1830Y2188D01*
X1866Y2188D02*
X1913Y2188D01*
X2383Y2188D02*
X2430Y2188D01*
X2466Y2188D02*
X2513Y2188D01*
X1783Y2187D02*
X1831Y2187D01*
X1864Y2187D02*
X1913Y2187D01*
X2383Y2187D02*
X2431Y2187D01*
X2464Y2187D02*
X2513Y2187D01*
X1783Y2186D02*
X1833Y2186D01*
X1863Y2186D02*
X1913Y2186D01*
X2383Y2186D02*
X2433Y2186D01*
X2463Y2186D02*
X2513Y2186D01*
X1783Y2185D02*
X1835Y2185D01*
X1861Y2185D02*
X1913Y2185D01*
X2383Y2185D02*
X2435Y2185D01*
X2461Y2185D02*
X2513Y2185D01*
X1783Y2184D02*
X1837Y2184D01*
X1859Y2184D02*
X1913Y2184D01*
X2383Y2184D02*
X2437Y2184D01*
X2459Y2184D02*
X2513Y2184D01*
X1783Y2183D02*
X1840Y2183D01*
X1855Y2183D02*
X1913Y2183D01*
X2383Y2183D02*
X2440Y2183D01*
X2455Y2183D02*
X2513Y2183D01*
X1783Y2139D02*
X1842Y2139D01*
X1854Y2139D02*
X1913Y2139D01*
X2383Y2139D02*
X2442Y2139D01*
X2454Y2139D02*
X2513Y2139D01*
X1783Y2138D02*
X1840Y2138D01*
X1856Y2138D02*
X1913Y2138D01*
X2383Y2138D02*
X2440Y2138D01*
X2456Y2138D02*
X2513Y2138D01*
X1783Y2137D02*
X1837Y2137D01*
X1859Y2137D02*
X1913Y2137D01*
X2383Y2137D02*
X2437Y2137D01*
X2459Y2137D02*
X2513Y2137D01*
X1783Y2136D02*
X1835Y2136D01*
X1861Y2136D02*
X1913Y2136D01*
X2383Y2136D02*
X2435Y2136D01*
X2461Y2136D02*
X2513Y2136D01*
X1783Y2135D02*
X1833Y2135D01*
X1863Y2135D02*
X1913Y2135D01*
X2383Y2135D02*
X2433Y2135D01*
X2463Y2135D02*
X2513Y2135D01*
X1783Y2134D02*
X1831Y2134D01*
X1865Y2134D02*
X1913Y2134D01*
X2383Y2134D02*
X2431Y2134D01*
X2465Y2134D02*
X2513Y2134D01*
X1783Y2133D02*
X1830Y2133D01*
X1866Y2133D02*
X1913Y2133D01*
X2383Y2133D02*
X2430Y2133D01*
X2466Y2133D02*
X2513Y2133D01*
X1783Y2132D02*
X1829Y2132D01*
X1867Y2132D02*
X1913Y2132D01*
X2383Y2132D02*
X2429Y2132D01*
X2467Y2132D02*
X2513Y2132D01*
X1783Y2131D02*
X1828Y2131D01*
X1868Y2131D02*
X1913Y2131D01*
X2383Y2131D02*
X2428Y2131D01*
X2468Y2131D02*
X2513Y2131D01*
X1783Y2130D02*
X1827Y2130D01*
X1869Y2130D02*
X1913Y2130D01*
X2383Y2130D02*
X2427Y2130D01*
X2469Y2130D02*
X2513Y2130D01*
X1783Y2129D02*
X1826Y2129D01*
X1870Y2129D02*
X1913Y2129D01*
X2383Y2129D02*
X2426Y2129D01*
X2470Y2129D02*
X2513Y2129D01*
X1783Y2128D02*
X1825Y2128D01*
X1871Y2128D02*
X1913Y2128D01*
X2383Y2128D02*
X2425Y2128D01*
X2471Y2128D02*
X2513Y2128D01*
X1783Y2127D02*
X1824Y2127D01*
X1872Y2127D02*
X1913Y2127D01*
X2383Y2127D02*
X2424Y2127D01*
X2472Y2127D02*
X2513Y2127D01*
X1783Y2126D02*
X1823Y2126D01*
X1872Y2126D02*
X1913Y2126D01*
X2383Y2126D02*
X2423Y2126D01*
X2472Y2126D02*
X2513Y2126D01*
X1783Y2125D02*
X1823Y2125D01*
X1873Y2125D02*
X1913Y2125D01*
X2383Y2125D02*
X2423Y2125D01*
X2473Y2125D02*
X2513Y2125D01*
X1783Y2124D02*
X1822Y2124D01*
X1874Y2124D02*
X1913Y2124D01*
X2383Y2124D02*
X2422Y2124D01*
X2474Y2124D02*
X2513Y2124D01*
X1783Y2123D02*
X1822Y2123D01*
X1874Y2123D02*
X1913Y2123D01*
X2383Y2123D02*
X2422Y2123D01*
X2474Y2123D02*
X2513Y2123D01*
X1783Y2122D02*
X1821Y2122D01*
X1875Y2122D02*
X1913Y2122D01*
X2383Y2122D02*
X2421Y2122D01*
X2475Y2122D02*
X2513Y2122D01*
X1783Y2121D02*
X1821Y2121D01*
X1875Y2121D02*
X1913Y2121D01*
X2383Y2121D02*
X2421Y2121D01*
X2475Y2121D02*
X2513Y2121D01*
X1783Y2120D02*
X1821Y2120D01*
X1875Y2120D02*
X1913Y2120D01*
X2383Y2120D02*
X2421Y2120D01*
X2475Y2120D02*
X2513Y2120D01*
X1783Y2119D02*
X1820Y2119D01*
X1876Y2119D02*
X1913Y2119D01*
X2383Y2119D02*
X2420Y2119D01*
X2476Y2119D02*
X2513Y2119D01*
X1783Y2118D02*
X1820Y2118D01*
X1876Y2118D02*
X1913Y2118D01*
X2383Y2118D02*
X2420Y2118D01*
X2476Y2118D02*
X2513Y2118D01*
X1783Y2117D02*
X1820Y2117D01*
X1876Y2117D02*
X1913Y2117D01*
X2383Y2117D02*
X2420Y2117D01*
X2476Y2117D02*
X2513Y2117D01*
X1783Y2116D02*
X1819Y2116D01*
X1876Y2116D02*
X1913Y2116D01*
X2383Y2116D02*
X2419Y2116D01*
X2476Y2116D02*
X2513Y2116D01*
X1783Y2115D02*
X1819Y2115D01*
X1877Y2115D02*
X1913Y2115D01*
X2383Y2115D02*
X2419Y2115D01*
X2477Y2115D02*
X2513Y2115D01*
X1783Y2114D02*
X1819Y2114D01*
X1877Y2114D02*
X1913Y2114D01*
X2383Y2114D02*
X2419Y2114D01*
X2477Y2114D02*
X2513Y2114D01*
X1783Y2113D02*
X1819Y2113D01*
X1877Y2113D02*
X1913Y2113D01*
X2383Y2113D02*
X2419Y2113D01*
X2477Y2113D02*
X2513Y2113D01*
X1783Y2112D02*
X1819Y2112D01*
X1877Y2112D02*
X1913Y2112D01*
X2383Y2112D02*
X2419Y2112D01*
X2477Y2112D02*
X2513Y2112D01*
X1783Y2111D02*
X1819Y2111D01*
X1877Y2111D02*
X1913Y2111D01*
X2383Y2111D02*
X2419Y2111D01*
X2477Y2111D02*
X2513Y2111D01*
X1783Y2110D02*
X1819Y2110D01*
X1877Y2110D02*
X1913Y2110D01*
X2383Y2110D02*
X2419Y2110D01*
X2477Y2110D02*
X2513Y2110D01*
X1783Y2109D02*
X1819Y2109D01*
X1877Y2109D02*
X1913Y2109D01*
X2383Y2109D02*
X2419Y2109D01*
X2477Y2109D02*
X2513Y2109D01*
X1783Y2108D02*
X1819Y2108D01*
X1877Y2108D02*
X1913Y2108D01*
X2383Y2108D02*
X2419Y2108D01*
X2477Y2108D02*
X2513Y2108D01*
X1783Y2107D02*
X1819Y2107D01*
X1877Y2107D02*
X1913Y2107D01*
X2383Y2107D02*
X2419Y2107D01*
X2477Y2107D02*
X2513Y2107D01*
X1783Y2106D02*
X1819Y2106D01*
X1877Y2106D02*
X1913Y2106D01*
X2383Y2106D02*
X2419Y2106D01*
X2477Y2106D02*
X2513Y2106D01*
X1783Y2105D02*
X1820Y2105D01*
X1876Y2105D02*
X1913Y2105D01*
X2383Y2105D02*
X2420Y2105D01*
X2476Y2105D02*
X2513Y2105D01*
X1783Y2104D02*
X1820Y2104D01*
X1876Y2104D02*
X1913Y2104D01*
X2383Y2104D02*
X2420Y2104D01*
X2476Y2104D02*
X2513Y2104D01*
X1783Y2103D02*
X1820Y2103D01*
X1876Y2103D02*
X1913Y2103D01*
X2383Y2103D02*
X2420Y2103D01*
X2476Y2103D02*
X2513Y2103D01*
X1783Y2102D02*
X1820Y2102D01*
X1876Y2102D02*
X1913Y2102D01*
X2383Y2102D02*
X2420Y2102D01*
X2476Y2102D02*
X2513Y2102D01*
X1783Y2101D02*
X1821Y2101D01*
X1875Y2101D02*
X1913Y2101D01*
X2383Y2101D02*
X2421Y2101D01*
X2475Y2101D02*
X2513Y2101D01*
X1783Y2100D02*
X1821Y2100D01*
X1875Y2100D02*
X1913Y2100D01*
X2383Y2100D02*
X2421Y2100D01*
X2475Y2100D02*
X2513Y2100D01*
X1783Y2099D02*
X1821Y2099D01*
X1874Y2099D02*
X1913Y2099D01*
X2383Y2099D02*
X2421Y2099D01*
X2474Y2099D02*
X2513Y2099D01*
X1783Y2098D02*
X1822Y2098D01*
X1874Y2098D02*
X1913Y2098D01*
X2383Y2098D02*
X2422Y2098D01*
X2474Y2098D02*
X2513Y2098D01*
X1783Y2097D02*
X1822Y2097D01*
X1873Y2097D02*
X1913Y2097D01*
X2383Y2097D02*
X2422Y2097D01*
X2473Y2097D02*
X2513Y2097D01*
X1783Y2096D02*
X1823Y2096D01*
X1873Y2096D02*
X1913Y2096D01*
X2383Y2096D02*
X2423Y2096D01*
X2473Y2096D02*
X2513Y2096D01*
X1783Y2095D02*
X1824Y2095D01*
X1872Y2095D02*
X1913Y2095D01*
X2383Y2095D02*
X2424Y2095D01*
X2472Y2095D02*
X2513Y2095D01*
X1783Y2094D02*
X1824Y2094D01*
X1871Y2094D02*
X1913Y2094D01*
X2383Y2094D02*
X2424Y2094D01*
X2471Y2094D02*
X2513Y2094D01*
X1783Y2093D02*
X1825Y2093D01*
X1871Y2093D02*
X1913Y2093D01*
X2383Y2093D02*
X2425Y2093D01*
X2471Y2093D02*
X2513Y2093D01*
X1783Y2092D02*
X1826Y2092D01*
X1870Y2092D02*
X1913Y2092D01*
X2383Y2092D02*
X2426Y2092D01*
X2470Y2092D02*
X2513Y2092D01*
X1783Y2091D02*
X1827Y2091D01*
X1869Y2091D02*
X1913Y2091D01*
X2383Y2091D02*
X2427Y2091D01*
X2469Y2091D02*
X2513Y2091D01*
X1783Y2090D02*
X1828Y2090D01*
X1868Y2090D02*
X1913Y2090D01*
X2383Y2090D02*
X2428Y2090D01*
X2468Y2090D02*
X2513Y2090D01*
X1783Y2089D02*
X1829Y2089D01*
X1867Y2089D02*
X1913Y2089D01*
X2383Y2089D02*
X2429Y2089D01*
X2467Y2089D02*
X2513Y2089D01*
X1783Y2088D02*
X1830Y2088D01*
X1866Y2088D02*
X1913Y2088D01*
X2383Y2088D02*
X2430Y2088D01*
X2466Y2088D02*
X2513Y2088D01*
X1783Y2087D02*
X1832Y2087D01*
X1864Y2087D02*
X1913Y2087D01*
X2383Y2087D02*
X2432Y2087D01*
X2464Y2087D02*
X2513Y2087D01*
X1783Y2086D02*
X1833Y2086D01*
X1863Y2086D02*
X1913Y2086D01*
X2383Y2086D02*
X2433Y2086D01*
X2463Y2086D02*
X2513Y2086D01*
X1783Y2085D02*
X1835Y2085D01*
X1861Y2085D02*
X1913Y2085D01*
X2383Y2085D02*
X2435Y2085D01*
X2461Y2085D02*
X2513Y2085D01*
X1783Y2084D02*
X1837Y2084D01*
X1859Y2084D02*
X1913Y2084D01*
X2383Y2084D02*
X2437Y2084D01*
X2459Y2084D02*
X2513Y2084D01*
X1783Y2083D02*
X1841Y2083D01*
X1855Y2083D02*
X1913Y2083D01*
X2383Y2083D02*
X2441Y2083D01*
X2455Y2083D02*
X2513Y2083D01*
X1783Y2039D02*
X1842Y2039D01*
X1854Y2039D02*
X1913Y2039D01*
X2383Y2039D02*
X2442Y2039D01*
X2454Y2039D02*
X2513Y2039D01*
X1783Y2038D02*
X1840Y2038D01*
X1856Y2038D02*
X1913Y2038D01*
X2383Y2038D02*
X2440Y2038D01*
X2456Y2038D02*
X2513Y2038D01*
X1783Y2037D02*
X1837Y2037D01*
X1859Y2037D02*
X1913Y2037D01*
X2383Y2037D02*
X2437Y2037D01*
X2459Y2037D02*
X2513Y2037D01*
X1783Y2036D02*
X1834Y2036D01*
X1861Y2036D02*
X1913Y2036D01*
X2383Y2036D02*
X2434Y2036D01*
X2461Y2036D02*
X2513Y2036D01*
X1783Y2035D02*
X1833Y2035D01*
X1863Y2035D02*
X1913Y2035D01*
X2383Y2035D02*
X2433Y2035D01*
X2463Y2035D02*
X2513Y2035D01*
X1783Y2034D02*
X1831Y2034D01*
X1865Y2034D02*
X1913Y2034D01*
X2383Y2034D02*
X2431Y2034D01*
X2465Y2034D02*
X2513Y2034D01*
X1783Y2033D02*
X1830Y2033D01*
X1866Y2033D02*
X1913Y2033D01*
X2383Y2033D02*
X2430Y2033D01*
X2466Y2033D02*
X2513Y2033D01*
X1783Y2032D02*
X1829Y2032D01*
X1867Y2032D02*
X1913Y2032D01*
X2383Y2032D02*
X2429Y2032D01*
X2467Y2032D02*
X2513Y2032D01*
X1783Y2031D02*
X1828Y2031D01*
X1868Y2031D02*
X1913Y2031D01*
X2383Y2031D02*
X2428Y2031D01*
X2468Y2031D02*
X2513Y2031D01*
X1783Y2030D02*
X1827Y2030D01*
X1869Y2030D02*
X1913Y2030D01*
X2383Y2030D02*
X2427Y2030D01*
X2469Y2030D02*
X2513Y2030D01*
X1783Y2029D02*
X1826Y2029D01*
X1870Y2029D02*
X1913Y2029D01*
X2383Y2029D02*
X2426Y2029D01*
X2470Y2029D02*
X2513Y2029D01*
X1783Y2028D02*
X1825Y2028D01*
X1871Y2028D02*
X1913Y2028D01*
X2383Y2028D02*
X2425Y2028D01*
X2471Y2028D02*
X2513Y2028D01*
X1783Y2027D02*
X1824Y2027D01*
X1872Y2027D02*
X1913Y2027D01*
X2383Y2027D02*
X2424Y2027D01*
X2472Y2027D02*
X2513Y2027D01*
X1783Y2026D02*
X1823Y2026D01*
X1872Y2026D02*
X1913Y2026D01*
X2383Y2026D02*
X2423Y2026D01*
X2472Y2026D02*
X2513Y2026D01*
X1783Y2025D02*
X1823Y2025D01*
X1873Y2025D02*
X1913Y2025D01*
X2383Y2025D02*
X2423Y2025D01*
X2473Y2025D02*
X2513Y2025D01*
X1783Y2024D02*
X1822Y2024D01*
X1874Y2024D02*
X1913Y2024D01*
X2383Y2024D02*
X2422Y2024D01*
X2474Y2024D02*
X2513Y2024D01*
X1783Y2023D02*
X1822Y2023D01*
X1874Y2023D02*
X1913Y2023D01*
X2383Y2023D02*
X2422Y2023D01*
X2474Y2023D02*
X2513Y2023D01*
X1783Y2022D02*
X1821Y2022D01*
X1875Y2022D02*
X1913Y2022D01*
X2383Y2022D02*
X2421Y2022D01*
X2475Y2022D02*
X2513Y2022D01*
X1783Y2021D02*
X1821Y2021D01*
X1875Y2021D02*
X1913Y2021D01*
X2383Y2021D02*
X2421Y2021D01*
X2475Y2021D02*
X2513Y2021D01*
X1783Y2020D02*
X1821Y2020D01*
X1875Y2020D02*
X1913Y2020D01*
X2383Y2020D02*
X2421Y2020D01*
X2475Y2020D02*
X2513Y2020D01*
X1783Y2019D02*
X1820Y2019D01*
X1876Y2019D02*
X1913Y2019D01*
X2383Y2019D02*
X2420Y2019D01*
X2476Y2019D02*
X2513Y2019D01*
X1783Y2018D02*
X1820Y2018D01*
X1876Y2018D02*
X1913Y2018D01*
X2383Y2018D02*
X2420Y2018D01*
X2476Y2018D02*
X2513Y2018D01*
X1783Y2017D02*
X1820Y2017D01*
X1876Y2017D02*
X1913Y2017D01*
X2383Y2017D02*
X2420Y2017D01*
X2476Y2017D02*
X2513Y2017D01*
X1783Y2016D02*
X1819Y2016D01*
X1876Y2016D02*
X1913Y2016D01*
X2383Y2016D02*
X2419Y2016D01*
X2476Y2016D02*
X2513Y2016D01*
X1783Y2015D02*
X1819Y2015D01*
X1877Y2015D02*
X1913Y2015D01*
X2383Y2015D02*
X2419Y2015D01*
X2477Y2015D02*
X2513Y2015D01*
X1783Y2014D02*
X1819Y2014D01*
X1877Y2014D02*
X1913Y2014D01*
X2383Y2014D02*
X2419Y2014D01*
X2477Y2014D02*
X2513Y2014D01*
X1783Y2013D02*
X1819Y2013D01*
X1877Y2013D02*
X1913Y2013D01*
X2383Y2013D02*
X2419Y2013D01*
X2477Y2013D02*
X2513Y2013D01*
X1783Y2012D02*
X1819Y2012D01*
X1877Y2012D02*
X1913Y2012D01*
X2383Y2012D02*
X2419Y2012D01*
X2477Y2012D02*
X2513Y2012D01*
X1783Y2011D02*
X1819Y2011D01*
X1877Y2011D02*
X1913Y2011D01*
X2383Y2011D02*
X2419Y2011D01*
X2477Y2011D02*
X2513Y2011D01*
X1783Y2010D02*
X1819Y2010D01*
X1877Y2010D02*
X1913Y2010D01*
X2383Y2010D02*
X2419Y2010D01*
X2477Y2010D02*
X2513Y2010D01*
X1783Y2009D02*
X1819Y2009D01*
X1877Y2009D02*
X1913Y2009D01*
X2383Y2009D02*
X2419Y2009D01*
X2477Y2009D02*
X2513Y2009D01*
X1783Y2008D02*
X1819Y2008D01*
X1877Y2008D02*
X1913Y2008D01*
X2383Y2008D02*
X2419Y2008D01*
X2477Y2008D02*
X2513Y2008D01*
X1783Y2007D02*
X1819Y2007D01*
X1877Y2007D02*
X1913Y2007D01*
X2383Y2007D02*
X2419Y2007D01*
X2477Y2007D02*
X2513Y2007D01*
X1783Y2006D02*
X1819Y2006D01*
X1877Y2006D02*
X1913Y2006D01*
X2383Y2006D02*
X2419Y2006D01*
X2477Y2006D02*
X2513Y2006D01*
X1783Y2005D02*
X1820Y2005D01*
X1876Y2005D02*
X1913Y2005D01*
X2383Y2005D02*
X2420Y2005D01*
X2476Y2005D02*
X2513Y2005D01*
X1783Y2004D02*
X1820Y2004D01*
X1876Y2004D02*
X1913Y2004D01*
X2383Y2004D02*
X2420Y2004D01*
X2476Y2004D02*
X2513Y2004D01*
X1783Y2003D02*
X1820Y2003D01*
X1876Y2003D02*
X1913Y2003D01*
X2383Y2003D02*
X2420Y2003D01*
X2476Y2003D02*
X2513Y2003D01*
X1783Y2002D02*
X1820Y2002D01*
X1876Y2002D02*
X1913Y2002D01*
X2383Y2002D02*
X2420Y2002D01*
X2476Y2002D02*
X2513Y2002D01*
X1783Y2001D02*
X1821Y2001D01*
X1875Y2001D02*
X1913Y2001D01*
X2383Y2001D02*
X2421Y2001D01*
X2475Y2001D02*
X2513Y2001D01*
X1783Y2000D02*
X1821Y2000D01*
X1875Y2000D02*
X1913Y2000D01*
X2383Y2000D02*
X2421Y2000D01*
X2475Y2000D02*
X2513Y2000D01*
X1783Y1999D02*
X1821Y1999D01*
X1874Y1999D02*
X1913Y1999D01*
X2383Y1999D02*
X2421Y1999D01*
X2474Y1999D02*
X2513Y1999D01*
X1783Y1998D02*
X1822Y1998D01*
X1874Y1998D02*
X1913Y1998D01*
X2383Y1998D02*
X2422Y1998D01*
X2474Y1998D02*
X2513Y1998D01*
X1783Y1997D02*
X1822Y1997D01*
X1873Y1997D02*
X1913Y1997D01*
X2383Y1997D02*
X2422Y1997D01*
X2473Y1997D02*
X2513Y1997D01*
X1783Y1996D02*
X1823Y1996D01*
X1873Y1996D02*
X1913Y1996D01*
X2383Y1996D02*
X2423Y1996D01*
X2473Y1996D02*
X2513Y1996D01*
X1783Y1995D02*
X1824Y1995D01*
X1872Y1995D02*
X1913Y1995D01*
X2383Y1995D02*
X2424Y1995D01*
X2472Y1995D02*
X2513Y1995D01*
X1783Y1994D02*
X1824Y1994D01*
X1871Y1994D02*
X1913Y1994D01*
X2383Y1994D02*
X2424Y1994D01*
X2471Y1994D02*
X2513Y1994D01*
X1783Y1993D02*
X1825Y1993D01*
X1871Y1993D02*
X1913Y1993D01*
X2383Y1993D02*
X2425Y1993D01*
X2471Y1993D02*
X2513Y1993D01*
X1783Y1992D02*
X1826Y1992D01*
X1870Y1992D02*
X1913Y1992D01*
X2383Y1992D02*
X2426Y1992D01*
X2470Y1992D02*
X2513Y1992D01*
X1783Y1991D02*
X1827Y1991D01*
X1869Y1991D02*
X1913Y1991D01*
X2383Y1991D02*
X2427Y1991D01*
X2469Y1991D02*
X2513Y1991D01*
X1783Y1990D02*
X1828Y1990D01*
X1868Y1990D02*
X1913Y1990D01*
X2383Y1990D02*
X2428Y1990D01*
X2468Y1990D02*
X2513Y1990D01*
X1783Y1989D02*
X1829Y1989D01*
X1867Y1989D02*
X1913Y1989D01*
X2383Y1989D02*
X2429Y1989D01*
X2467Y1989D02*
X2513Y1989D01*
X1783Y1988D02*
X1830Y1988D01*
X1866Y1988D02*
X1913Y1988D01*
X2383Y1988D02*
X2430Y1988D01*
X2466Y1988D02*
X2513Y1988D01*
X1783Y1987D02*
X1832Y1987D01*
X1864Y1987D02*
X1913Y1987D01*
X2383Y1987D02*
X2432Y1987D01*
X2464Y1987D02*
X2513Y1987D01*
X1783Y1986D02*
X1833Y1986D01*
X1863Y1986D02*
X1913Y1986D01*
X2383Y1986D02*
X2433Y1986D01*
X2463Y1986D02*
X2513Y1986D01*
X1783Y1985D02*
X1835Y1985D01*
X1861Y1985D02*
X1913Y1985D01*
X2383Y1985D02*
X2435Y1985D01*
X2461Y1985D02*
X2513Y1985D01*
X1783Y1984D02*
X1837Y1984D01*
X1858Y1984D02*
X1913Y1984D01*
X2383Y1984D02*
X2437Y1984D01*
X2458Y1984D02*
X2513Y1984D01*
X1783Y1983D02*
X1841Y1983D01*
X1855Y1983D02*
X1913Y1983D01*
X2383Y1983D02*
X2441Y1983D01*
X2455Y1983D02*
X2513Y1983D01*
X1783Y1939D02*
X1842Y1939D01*
X1854Y1939D02*
X1913Y1939D01*
X2383Y1939D02*
X2442Y1939D01*
X2454Y1939D02*
X2513Y1939D01*
X1783Y1938D02*
X1839Y1938D01*
X1857Y1938D02*
X1913Y1938D01*
X2383Y1938D02*
X2439Y1938D01*
X2457Y1938D02*
X2513Y1938D01*
X1783Y1937D02*
X1837Y1937D01*
X1859Y1937D02*
X1913Y1937D01*
X2383Y1937D02*
X2437Y1937D01*
X2459Y1937D02*
X2513Y1937D01*
X1783Y1936D02*
X1834Y1936D01*
X1861Y1936D02*
X1913Y1936D01*
X2383Y1936D02*
X2434Y1936D01*
X2461Y1936D02*
X2513Y1936D01*
X1783Y1935D02*
X1833Y1935D01*
X1863Y1935D02*
X1913Y1935D01*
X2383Y1935D02*
X2433Y1935D01*
X2463Y1935D02*
X2513Y1935D01*
X1783Y1934D02*
X1831Y1934D01*
X1865Y1934D02*
X1913Y1934D01*
X2383Y1934D02*
X2431Y1934D01*
X2465Y1934D02*
X2513Y1934D01*
X1783Y1933D02*
X1830Y1933D01*
X1866Y1933D02*
X1913Y1933D01*
X2383Y1933D02*
X2430Y1933D01*
X2466Y1933D02*
X2513Y1933D01*
X1783Y1932D02*
X1829Y1932D01*
X1867Y1932D02*
X1913Y1932D01*
X2383Y1932D02*
X2429Y1932D01*
X2467Y1932D02*
X2513Y1932D01*
X1783Y1931D02*
X1828Y1931D01*
X1868Y1931D02*
X1913Y1931D01*
X2383Y1931D02*
X2428Y1931D01*
X2468Y1931D02*
X2513Y1931D01*
X1783Y1930D02*
X1827Y1930D01*
X1869Y1930D02*
X1913Y1930D01*
X2383Y1930D02*
X2427Y1930D01*
X2469Y1930D02*
X2513Y1930D01*
X1783Y1929D02*
X1826Y1929D01*
X1870Y1929D02*
X1913Y1929D01*
X2383Y1929D02*
X2426Y1929D01*
X2470Y1929D02*
X2513Y1929D01*
X1783Y1928D02*
X1825Y1928D01*
X1871Y1928D02*
X1913Y1928D01*
X2383Y1928D02*
X2425Y1928D01*
X2471Y1928D02*
X2513Y1928D01*
X1783Y1927D02*
X1824Y1927D01*
X1872Y1927D02*
X1913Y1927D01*
X2383Y1927D02*
X2424Y1927D01*
X2472Y1927D02*
X2513Y1927D01*
X1783Y1926D02*
X1823Y1926D01*
X1872Y1926D02*
X1913Y1926D01*
X2383Y1926D02*
X2423Y1926D01*
X2472Y1926D02*
X2513Y1926D01*
X1783Y1925D02*
X1823Y1925D01*
X1873Y1925D02*
X1913Y1925D01*
X2383Y1925D02*
X2423Y1925D01*
X2473Y1925D02*
X2513Y1925D01*
X1783Y1924D02*
X1822Y1924D01*
X1874Y1924D02*
X1913Y1924D01*
X2383Y1924D02*
X2422Y1924D01*
X2474Y1924D02*
X2513Y1924D01*
X1783Y1923D02*
X1822Y1923D01*
X1874Y1923D02*
X1913Y1923D01*
X2383Y1923D02*
X2422Y1923D01*
X2474Y1923D02*
X2513Y1923D01*
X1783Y1922D02*
X1821Y1922D01*
X1875Y1922D02*
X1913Y1922D01*
X2383Y1922D02*
X2421Y1922D01*
X2475Y1922D02*
X2513Y1922D01*
X1783Y1921D02*
X1821Y1921D01*
X1875Y1921D02*
X1913Y1921D01*
X2383Y1921D02*
X2421Y1921D01*
X2475Y1921D02*
X2513Y1921D01*
X1783Y1920D02*
X1821Y1920D01*
X1875Y1920D02*
X1913Y1920D01*
X2383Y1920D02*
X2421Y1920D01*
X2475Y1920D02*
X2513Y1920D01*
X1783Y1919D02*
X1820Y1919D01*
X1876Y1919D02*
X1913Y1919D01*
X2383Y1919D02*
X2420Y1919D01*
X2476Y1919D02*
X2513Y1919D01*
X1783Y1918D02*
X1820Y1918D01*
X1876Y1918D02*
X1913Y1918D01*
X2383Y1918D02*
X2420Y1918D01*
X2476Y1918D02*
X2513Y1918D01*
X1783Y1917D02*
X1820Y1917D01*
X1876Y1917D02*
X1913Y1917D01*
X2383Y1917D02*
X2420Y1917D01*
X2476Y1917D02*
X2513Y1917D01*
X1783Y1916D02*
X1819Y1916D01*
X1876Y1916D02*
X1913Y1916D01*
X2383Y1916D02*
X2419Y1916D01*
X2476Y1916D02*
X2513Y1916D01*
X1783Y1915D02*
X1819Y1915D01*
X1877Y1915D02*
X1913Y1915D01*
X2383Y1915D02*
X2419Y1915D01*
X2477Y1915D02*
X2513Y1915D01*
X1783Y1914D02*
X1819Y1914D01*
X1877Y1914D02*
X1913Y1914D01*
X2383Y1914D02*
X2419Y1914D01*
X2477Y1914D02*
X2513Y1914D01*
X1783Y1913D02*
X1819Y1913D01*
X1877Y1913D02*
X1913Y1913D01*
X2383Y1913D02*
X2419Y1913D01*
X2477Y1913D02*
X2513Y1913D01*
X1783Y1912D02*
X1819Y1912D01*
X1877Y1912D02*
X1913Y1912D01*
X2383Y1912D02*
X2419Y1912D01*
X2477Y1912D02*
X2513Y1912D01*
X1783Y1911D02*
X1819Y1911D01*
X1877Y1911D02*
X1913Y1911D01*
X2383Y1911D02*
X2419Y1911D01*
X2477Y1911D02*
X2513Y1911D01*
X1783Y1910D02*
X1819Y1910D01*
X1877Y1910D02*
X1913Y1910D01*
X2383Y1910D02*
X2419Y1910D01*
X2477Y1910D02*
X2513Y1910D01*
X1783Y1909D02*
X1819Y1909D01*
X1877Y1909D02*
X1913Y1909D01*
X2383Y1909D02*
X2419Y1909D01*
X2477Y1909D02*
X2513Y1909D01*
X1783Y1908D02*
X1819Y1908D01*
X1877Y1908D02*
X1913Y1908D01*
X2383Y1908D02*
X2419Y1908D01*
X2477Y1908D02*
X2513Y1908D01*
X1783Y1907D02*
X1819Y1907D01*
X1877Y1907D02*
X1913Y1907D01*
X2383Y1907D02*
X2419Y1907D01*
X2477Y1907D02*
X2513Y1907D01*
X1783Y1906D02*
X1819Y1906D01*
X1877Y1906D02*
X1913Y1906D01*
X2383Y1906D02*
X2419Y1906D01*
X2477Y1906D02*
X2513Y1906D01*
X1783Y1905D02*
X1820Y1905D01*
X1876Y1905D02*
X1913Y1905D01*
X2383Y1905D02*
X2420Y1905D01*
X2476Y1905D02*
X2513Y1905D01*
X1783Y1904D02*
X1820Y1904D01*
X1876Y1904D02*
X1913Y1904D01*
X2383Y1904D02*
X2420Y1904D01*
X2476Y1904D02*
X2513Y1904D01*
X1783Y1903D02*
X1820Y1903D01*
X1876Y1903D02*
X1913Y1903D01*
X2383Y1903D02*
X2420Y1903D01*
X2476Y1903D02*
X2513Y1903D01*
X1783Y1902D02*
X1820Y1902D01*
X1876Y1902D02*
X1913Y1902D01*
X2383Y1902D02*
X2420Y1902D01*
X2476Y1902D02*
X2513Y1902D01*
X1783Y1901D02*
X1821Y1901D01*
X1875Y1901D02*
X1913Y1901D01*
X2383Y1901D02*
X2421Y1901D01*
X2475Y1901D02*
X2513Y1901D01*
X1783Y1900D02*
X1821Y1900D01*
X1875Y1900D02*
X1913Y1900D01*
X2383Y1900D02*
X2421Y1900D01*
X2475Y1900D02*
X2513Y1900D01*
X1783Y1899D02*
X1821Y1899D01*
X1874Y1899D02*
X1913Y1899D01*
X2383Y1899D02*
X2421Y1899D01*
X2474Y1899D02*
X2513Y1899D01*
X1783Y1898D02*
X1822Y1898D01*
X1874Y1898D02*
X1913Y1898D01*
X2383Y1898D02*
X2422Y1898D01*
X2474Y1898D02*
X2513Y1898D01*
X1783Y1897D02*
X1822Y1897D01*
X1873Y1897D02*
X1913Y1897D01*
X2383Y1897D02*
X2422Y1897D01*
X2473Y1897D02*
X2513Y1897D01*
X1783Y1896D02*
X1823Y1896D01*
X1873Y1896D02*
X1913Y1896D01*
X2383Y1896D02*
X2423Y1896D01*
X2473Y1896D02*
X2513Y1896D01*
X1783Y1895D02*
X1824Y1895D01*
X1872Y1895D02*
X1913Y1895D01*
X2383Y1895D02*
X2424Y1895D01*
X2472Y1895D02*
X2513Y1895D01*
X1783Y1894D02*
X1824Y1894D01*
X1871Y1894D02*
X1913Y1894D01*
X2383Y1894D02*
X2424Y1894D01*
X2471Y1894D02*
X2513Y1894D01*
X1783Y1893D02*
X1825Y1893D01*
X1871Y1893D02*
X1913Y1893D01*
X2383Y1893D02*
X2425Y1893D01*
X2471Y1893D02*
X2513Y1893D01*
X1783Y1892D02*
X1826Y1892D01*
X1870Y1892D02*
X1913Y1892D01*
X2383Y1892D02*
X2426Y1892D01*
X2470Y1892D02*
X2513Y1892D01*
X1783Y1891D02*
X1827Y1891D01*
X1869Y1891D02*
X1913Y1891D01*
X2383Y1891D02*
X2427Y1891D01*
X2469Y1891D02*
X2513Y1891D01*
X1783Y1890D02*
X1828Y1890D01*
X1868Y1890D02*
X1913Y1890D01*
X2383Y1890D02*
X2428Y1890D01*
X2468Y1890D02*
X2513Y1890D01*
X1783Y1889D02*
X1829Y1889D01*
X1867Y1889D02*
X1913Y1889D01*
X2383Y1889D02*
X2429Y1889D01*
X2467Y1889D02*
X2513Y1889D01*
X1783Y1888D02*
X1830Y1888D01*
X1866Y1888D02*
X1913Y1888D01*
X2383Y1888D02*
X2430Y1888D01*
X2466Y1888D02*
X2513Y1888D01*
X1783Y1887D02*
X1832Y1887D01*
X1864Y1887D02*
X1913Y1887D01*
X2383Y1887D02*
X2432Y1887D01*
X2464Y1887D02*
X2513Y1887D01*
X1783Y1886D02*
X1833Y1886D01*
X1863Y1886D02*
X1913Y1886D01*
X2383Y1886D02*
X2433Y1886D01*
X2463Y1886D02*
X2513Y1886D01*
X1783Y1885D02*
X1835Y1885D01*
X1861Y1885D02*
X1913Y1885D01*
X2383Y1885D02*
X2435Y1885D01*
X2461Y1885D02*
X2513Y1885D01*
X1783Y1884D02*
X1838Y1884D01*
X1858Y1884D02*
X1913Y1884D01*
X2383Y1884D02*
X2438Y1884D01*
X2458Y1884D02*
X2513Y1884D01*
X1783Y1883D02*
X1841Y1883D01*
X1855Y1883D02*
X1913Y1883D01*
X2383Y1883D02*
X2441Y1883D01*
X2455Y1883D02*
X2513Y1883D01*
X1783Y1839D02*
X1842Y1839D01*
X1854Y1839D02*
X1913Y1839D01*
X2383Y1839D02*
X2442Y1839D01*
X2454Y1839D02*
X2513Y1839D01*
X1783Y1838D02*
X1839Y1838D01*
X1857Y1838D02*
X1913Y1838D01*
X2383Y1838D02*
X2439Y1838D01*
X2457Y1838D02*
X2513Y1838D01*
X1783Y1837D02*
X1836Y1837D01*
X1859Y1837D02*
X1913Y1837D01*
X2383Y1837D02*
X2436Y1837D01*
X2459Y1837D02*
X2513Y1837D01*
X1783Y1836D02*
X1834Y1836D01*
X1862Y1836D02*
X1913Y1836D01*
X2383Y1836D02*
X2434Y1836D01*
X2462Y1836D02*
X2513Y1836D01*
X1783Y1835D02*
X1833Y1835D01*
X1863Y1835D02*
X1913Y1835D01*
X2383Y1835D02*
X2433Y1835D01*
X2463Y1835D02*
X2513Y1835D01*
X1783Y1834D02*
X1831Y1834D01*
X1865Y1834D02*
X1913Y1834D01*
X2383Y1834D02*
X2431Y1834D01*
X2465Y1834D02*
X2513Y1834D01*
X1783Y1833D02*
X1830Y1833D01*
X1866Y1833D02*
X1913Y1833D01*
X2383Y1833D02*
X2430Y1833D01*
X2466Y1833D02*
X2513Y1833D01*
X1783Y1832D02*
X1829Y1832D01*
X1867Y1832D02*
X1913Y1832D01*
X2383Y1832D02*
X2429Y1832D01*
X2467Y1832D02*
X2513Y1832D01*
X1783Y1831D02*
X1827Y1831D01*
X1868Y1831D02*
X1913Y1831D01*
X2383Y1831D02*
X2427Y1831D01*
X2468Y1831D02*
X2513Y1831D01*
X1783Y1830D02*
X1827Y1830D01*
X1869Y1830D02*
X1913Y1830D01*
X2383Y1830D02*
X2427Y1830D01*
X2469Y1830D02*
X2513Y1830D01*
X1783Y1829D02*
X1826Y1829D01*
X1870Y1829D02*
X1913Y1829D01*
X2383Y1829D02*
X2426Y1829D01*
X2470Y1829D02*
X2513Y1829D01*
X1783Y1828D02*
X1825Y1828D01*
X1871Y1828D02*
X1913Y1828D01*
X2383Y1828D02*
X2425Y1828D01*
X2471Y1828D02*
X2513Y1828D01*
X1783Y1827D02*
X1824Y1827D01*
X1872Y1827D02*
X1913Y1827D01*
X2383Y1827D02*
X2424Y1827D01*
X2472Y1827D02*
X2513Y1827D01*
X1783Y1826D02*
X1823Y1826D01*
X1872Y1826D02*
X1913Y1826D01*
X2383Y1826D02*
X2423Y1826D01*
X2472Y1826D02*
X2513Y1826D01*
X1783Y1825D02*
X1823Y1825D01*
X1873Y1825D02*
X1913Y1825D01*
X2383Y1825D02*
X2423Y1825D01*
X2473Y1825D02*
X2513Y1825D01*
X1783Y1824D02*
X1822Y1824D01*
X1874Y1824D02*
X1913Y1824D01*
X2383Y1824D02*
X2422Y1824D01*
X2474Y1824D02*
X2513Y1824D01*
X1783Y1823D02*
X1822Y1823D01*
X1874Y1823D02*
X1913Y1823D01*
X2383Y1823D02*
X2422Y1823D01*
X2474Y1823D02*
X2513Y1823D01*
X1783Y1822D02*
X1821Y1822D01*
X1875Y1822D02*
X1913Y1822D01*
X2383Y1822D02*
X2421Y1822D01*
X2475Y1822D02*
X2513Y1822D01*
X1783Y1821D02*
X1821Y1821D01*
X1875Y1821D02*
X1913Y1821D01*
X2383Y1821D02*
X2421Y1821D01*
X2475Y1821D02*
X2513Y1821D01*
X1783Y1820D02*
X1821Y1820D01*
X1875Y1820D02*
X1913Y1820D01*
X2383Y1820D02*
X2421Y1820D01*
X2475Y1820D02*
X2513Y1820D01*
X1783Y1819D02*
X1820Y1819D01*
X1876Y1819D02*
X1913Y1819D01*
X2383Y1819D02*
X2420Y1819D01*
X2476Y1819D02*
X2513Y1819D01*
X1783Y1818D02*
X1820Y1818D01*
X1876Y1818D02*
X1913Y1818D01*
X2383Y1818D02*
X2420Y1818D01*
X2476Y1818D02*
X2513Y1818D01*
X1783Y1817D02*
X1820Y1817D01*
X1876Y1817D02*
X1913Y1817D01*
X2383Y1817D02*
X2420Y1817D01*
X2476Y1817D02*
X2513Y1817D01*
X1783Y1816D02*
X1819Y1816D01*
X1876Y1816D02*
X1913Y1816D01*
X2383Y1816D02*
X2419Y1816D01*
X2476Y1816D02*
X2513Y1816D01*
X1783Y1815D02*
X1819Y1815D01*
X1877Y1815D02*
X1913Y1815D01*
X2383Y1815D02*
X2419Y1815D01*
X2477Y1815D02*
X2513Y1815D01*
X1783Y1814D02*
X1819Y1814D01*
X1877Y1814D02*
X1913Y1814D01*
X2383Y1814D02*
X2419Y1814D01*
X2477Y1814D02*
X2513Y1814D01*
X1783Y1813D02*
X1819Y1813D01*
X1877Y1813D02*
X1913Y1813D01*
X2383Y1813D02*
X2419Y1813D01*
X2477Y1813D02*
X2513Y1813D01*
X1783Y1812D02*
X1819Y1812D01*
X1877Y1812D02*
X1913Y1812D01*
X2383Y1812D02*
X2419Y1812D01*
X2477Y1812D02*
X2513Y1812D01*
X1783Y1811D02*
X1819Y1811D01*
X1877Y1811D02*
X1913Y1811D01*
X2383Y1811D02*
X2419Y1811D01*
X2477Y1811D02*
X2513Y1811D01*
X1783Y1810D02*
X1819Y1810D01*
X1877Y1810D02*
X1913Y1810D01*
X2383Y1810D02*
X2419Y1810D01*
X2477Y1810D02*
X2513Y1810D01*
X1783Y1809D02*
X1819Y1809D01*
X1877Y1809D02*
X1913Y1809D01*
X2383Y1809D02*
X2419Y1809D01*
X2477Y1809D02*
X2513Y1809D01*
X1783Y1808D02*
X1819Y1808D01*
X1877Y1808D02*
X1913Y1808D01*
X2383Y1808D02*
X2419Y1808D01*
X2477Y1808D02*
X2513Y1808D01*
X1783Y1807D02*
X1819Y1807D01*
X1877Y1807D02*
X1913Y1807D01*
X2383Y1807D02*
X2419Y1807D01*
X2477Y1807D02*
X2513Y1807D01*
X1783Y1806D02*
X1819Y1806D01*
X1877Y1806D02*
X1913Y1806D01*
X2383Y1806D02*
X2419Y1806D01*
X2477Y1806D02*
X2513Y1806D01*
X1783Y1805D02*
X1820Y1805D01*
X1876Y1805D02*
X1913Y1805D01*
X2383Y1805D02*
X2420Y1805D01*
X2476Y1805D02*
X2513Y1805D01*
X1783Y1804D02*
X1820Y1804D01*
X1876Y1804D02*
X1913Y1804D01*
X2383Y1804D02*
X2420Y1804D01*
X2476Y1804D02*
X2513Y1804D01*
X1783Y1803D02*
X1820Y1803D01*
X1876Y1803D02*
X1913Y1803D01*
X2383Y1803D02*
X2420Y1803D01*
X2476Y1803D02*
X2513Y1803D01*
X1783Y1802D02*
X1820Y1802D01*
X1876Y1802D02*
X1913Y1802D01*
X2383Y1802D02*
X2420Y1802D01*
X2476Y1802D02*
X2513Y1802D01*
X1783Y1801D02*
X1821Y1801D01*
X1875Y1801D02*
X1913Y1801D01*
X2383Y1801D02*
X2421Y1801D01*
X2475Y1801D02*
X2513Y1801D01*
X1783Y1800D02*
X1821Y1800D01*
X1875Y1800D02*
X1913Y1800D01*
X2383Y1800D02*
X2421Y1800D01*
X2475Y1800D02*
X2513Y1800D01*
X1783Y1799D02*
X1821Y1799D01*
X1874Y1799D02*
X1913Y1799D01*
X2383Y1799D02*
X2421Y1799D01*
X2474Y1799D02*
X2513Y1799D01*
X1783Y1798D02*
X1822Y1798D01*
X1874Y1798D02*
X1913Y1798D01*
X2383Y1798D02*
X2422Y1798D01*
X2474Y1798D02*
X2513Y1798D01*
X1783Y1797D02*
X1822Y1797D01*
X1873Y1797D02*
X1913Y1797D01*
X2383Y1797D02*
X2422Y1797D01*
X2473Y1797D02*
X2513Y1797D01*
X1783Y1796D02*
X1823Y1796D01*
X1873Y1796D02*
X1913Y1796D01*
X2383Y1796D02*
X2423Y1796D01*
X2473Y1796D02*
X2513Y1796D01*
X1783Y1795D02*
X1824Y1795D01*
X1872Y1795D02*
X1913Y1795D01*
X2383Y1795D02*
X2424Y1795D01*
X2472Y1795D02*
X2513Y1795D01*
X1783Y1794D02*
X1824Y1794D01*
X1871Y1794D02*
X1913Y1794D01*
X2383Y1794D02*
X2424Y1794D01*
X2471Y1794D02*
X2513Y1794D01*
X1783Y1793D02*
X1825Y1793D01*
X1871Y1793D02*
X1913Y1793D01*
X2383Y1793D02*
X2425Y1793D01*
X2471Y1793D02*
X2513Y1793D01*
X1783Y1792D02*
X1826Y1792D01*
X1870Y1792D02*
X1913Y1792D01*
X2383Y1792D02*
X2426Y1792D01*
X2470Y1792D02*
X2513Y1792D01*
X1783Y1791D02*
X1827Y1791D01*
X1869Y1791D02*
X1913Y1791D01*
X2383Y1791D02*
X2427Y1791D01*
X2469Y1791D02*
X2513Y1791D01*
X1783Y1790D02*
X1828Y1790D01*
X1868Y1790D02*
X1913Y1790D01*
X2383Y1790D02*
X2428Y1790D01*
X2468Y1790D02*
X2513Y1790D01*
X1783Y1789D02*
X1829Y1789D01*
X1867Y1789D02*
X1913Y1789D01*
X2383Y1789D02*
X2429Y1789D01*
X2467Y1789D02*
X2513Y1789D01*
X1783Y1788D02*
X1830Y1788D01*
X1865Y1788D02*
X1913Y1788D01*
X2383Y1788D02*
X2430Y1788D01*
X2465Y1788D02*
X2513Y1788D01*
X1783Y1787D02*
X1832Y1787D01*
X1864Y1787D02*
X1913Y1787D01*
X2383Y1787D02*
X2432Y1787D01*
X2464Y1787D02*
X2513Y1787D01*
X1783Y1786D02*
X1833Y1786D01*
X1863Y1786D02*
X1913Y1786D01*
X2383Y1786D02*
X2433Y1786D01*
X2463Y1786D02*
X2513Y1786D01*
X1783Y1785D02*
X1835Y1785D01*
X1861Y1785D02*
X1913Y1785D01*
X2383Y1785D02*
X2435Y1785D01*
X2461Y1785D02*
X2513Y1785D01*
X1783Y1784D02*
X1838Y1784D01*
X1858Y1784D02*
X1913Y1784D01*
X2383Y1784D02*
X2438Y1784D01*
X2458Y1784D02*
X2513Y1784D01*
X1783Y1783D02*
X1841Y1783D01*
X1855Y1783D02*
X1913Y1783D01*
X2383Y1783D02*
X2441Y1783D01*
X2455Y1783D02*
X2513Y1783D01*
X1783Y1739D02*
X1842Y1739D01*
X1854Y1739D02*
X1913Y1739D01*
X2383Y1739D02*
X2442Y1739D01*
X2454Y1739D02*
X2513Y1739D01*
X1783Y1738D02*
X1839Y1738D01*
X1857Y1738D02*
X1913Y1738D01*
X2383Y1738D02*
X2439Y1738D01*
X2457Y1738D02*
X2513Y1738D01*
X1783Y1737D02*
X1836Y1737D01*
X1859Y1737D02*
X1913Y1737D01*
X2383Y1737D02*
X2436Y1737D01*
X2459Y1737D02*
X2513Y1737D01*
X1783Y1736D02*
X1834Y1736D01*
X1862Y1736D02*
X1913Y1736D01*
X2383Y1736D02*
X2434Y1736D01*
X2462Y1736D02*
X2513Y1736D01*
X1783Y1735D02*
X1833Y1735D01*
X1863Y1735D02*
X1913Y1735D01*
X2383Y1735D02*
X2433Y1735D01*
X2463Y1735D02*
X2513Y1735D01*
X1783Y1734D02*
X1831Y1734D01*
X1865Y1734D02*
X1913Y1734D01*
X2383Y1734D02*
X2431Y1734D01*
X2465Y1734D02*
X2513Y1734D01*
X1783Y1733D02*
X1830Y1733D01*
X1866Y1733D02*
X1913Y1733D01*
X2383Y1733D02*
X2430Y1733D01*
X2466Y1733D02*
X2513Y1733D01*
X1783Y1732D02*
X1829Y1732D01*
X1867Y1732D02*
X1913Y1732D01*
X2383Y1732D02*
X2429Y1732D01*
X2467Y1732D02*
X2513Y1732D01*
X1783Y1731D02*
X1827Y1731D01*
X1868Y1731D02*
X1913Y1731D01*
X2383Y1731D02*
X2427Y1731D01*
X2468Y1731D02*
X2513Y1731D01*
X1783Y1730D02*
X1827Y1730D01*
X1869Y1730D02*
X1913Y1730D01*
X2383Y1730D02*
X2427Y1730D01*
X2469Y1730D02*
X2513Y1730D01*
X1783Y1729D02*
X1826Y1729D01*
X1870Y1729D02*
X1913Y1729D01*
X2383Y1729D02*
X2426Y1729D01*
X2470Y1729D02*
X2513Y1729D01*
X1783Y1728D02*
X1825Y1728D01*
X1871Y1728D02*
X1913Y1728D01*
X2383Y1728D02*
X2425Y1728D01*
X2471Y1728D02*
X2513Y1728D01*
X1783Y1727D02*
X1824Y1727D01*
X1872Y1727D02*
X1913Y1727D01*
X2383Y1727D02*
X2424Y1727D01*
X2472Y1727D02*
X2513Y1727D01*
X1783Y1726D02*
X1823Y1726D01*
X1872Y1726D02*
X1913Y1726D01*
X2383Y1726D02*
X2423Y1726D01*
X2472Y1726D02*
X2513Y1726D01*
X1783Y1725D02*
X1823Y1725D01*
X1873Y1725D02*
X1913Y1725D01*
X2383Y1725D02*
X2423Y1725D01*
X2473Y1725D02*
X2513Y1725D01*
X1783Y1724D02*
X1822Y1724D01*
X1874Y1724D02*
X1913Y1724D01*
X2383Y1724D02*
X2422Y1724D01*
X2474Y1724D02*
X2513Y1724D01*
X1783Y1723D02*
X1822Y1723D01*
X1874Y1723D02*
X1913Y1723D01*
X2383Y1723D02*
X2422Y1723D01*
X2474Y1723D02*
X2513Y1723D01*
X1783Y1722D02*
X1821Y1722D01*
X1875Y1722D02*
X1913Y1722D01*
X2383Y1722D02*
X2421Y1722D01*
X2475Y1722D02*
X2513Y1722D01*
X1783Y1721D02*
X1821Y1721D01*
X1875Y1721D02*
X1913Y1721D01*
X2383Y1721D02*
X2421Y1721D01*
X2475Y1721D02*
X2513Y1721D01*
X1783Y1720D02*
X1820Y1720D01*
X1875Y1720D02*
X1913Y1720D01*
X2383Y1720D02*
X2420Y1720D01*
X2475Y1720D02*
X2513Y1720D01*
X1783Y1719D02*
X1820Y1719D01*
X1876Y1719D02*
X1913Y1719D01*
X2383Y1719D02*
X2420Y1719D01*
X2476Y1719D02*
X2513Y1719D01*
X1783Y1718D02*
X1820Y1718D01*
X1876Y1718D02*
X1913Y1718D01*
X2383Y1718D02*
X2420Y1718D01*
X2476Y1718D02*
X2513Y1718D01*
X1783Y1717D02*
X1820Y1717D01*
X1876Y1717D02*
X1913Y1717D01*
X2383Y1717D02*
X2420Y1717D01*
X2476Y1717D02*
X2513Y1717D01*
X1783Y1716D02*
X1819Y1716D01*
X1876Y1716D02*
X1913Y1716D01*
X2383Y1716D02*
X2419Y1716D01*
X2476Y1716D02*
X2513Y1716D01*
X1783Y1715D02*
X1819Y1715D01*
X1877Y1715D02*
X1913Y1715D01*
X2383Y1715D02*
X2419Y1715D01*
X2477Y1715D02*
X2513Y1715D01*
X1783Y1714D02*
X1819Y1714D01*
X1877Y1714D02*
X1913Y1714D01*
X2383Y1714D02*
X2419Y1714D01*
X2477Y1714D02*
X2513Y1714D01*
X1783Y1713D02*
X1819Y1713D01*
X1877Y1713D02*
X1913Y1713D01*
X2383Y1713D02*
X2419Y1713D01*
X2477Y1713D02*
X2513Y1713D01*
X1783Y1712D02*
X1819Y1712D01*
X1877Y1712D02*
X1913Y1712D01*
X2383Y1712D02*
X2419Y1712D01*
X2477Y1712D02*
X2513Y1712D01*
X1783Y1711D02*
X1819Y1711D01*
X1877Y1711D02*
X1913Y1711D01*
X2383Y1711D02*
X2419Y1711D01*
X2477Y1711D02*
X2513Y1711D01*
X1783Y1710D02*
X1819Y1710D01*
X1877Y1710D02*
X1913Y1710D01*
X2383Y1710D02*
X2419Y1710D01*
X2477Y1710D02*
X2513Y1710D01*
X1783Y1709D02*
X1819Y1709D01*
X1877Y1709D02*
X1913Y1709D01*
X2383Y1709D02*
X2419Y1709D01*
X2477Y1709D02*
X2513Y1709D01*
X1783Y1708D02*
X1819Y1708D01*
X1877Y1708D02*
X1913Y1708D01*
X2383Y1708D02*
X2419Y1708D01*
X2477Y1708D02*
X2513Y1708D01*
X1783Y1707D02*
X1819Y1707D01*
X1877Y1707D02*
X1913Y1707D01*
X2383Y1707D02*
X2419Y1707D01*
X2477Y1707D02*
X2513Y1707D01*
X1783Y1706D02*
X1819Y1706D01*
X1877Y1706D02*
X1913Y1706D01*
X2383Y1706D02*
X2419Y1706D01*
X2477Y1706D02*
X2513Y1706D01*
X1783Y1705D02*
X1820Y1705D01*
X1876Y1705D02*
X1913Y1705D01*
X2383Y1705D02*
X2420Y1705D01*
X2476Y1705D02*
X2513Y1705D01*
X1783Y1704D02*
X1820Y1704D01*
X1876Y1704D02*
X1913Y1704D01*
X2383Y1704D02*
X2420Y1704D01*
X2476Y1704D02*
X2513Y1704D01*
X1783Y1703D02*
X1820Y1703D01*
X1876Y1703D02*
X1913Y1703D01*
X2383Y1703D02*
X2420Y1703D01*
X2476Y1703D02*
X2513Y1703D01*
X1783Y1702D02*
X1820Y1702D01*
X1876Y1702D02*
X1913Y1702D01*
X2383Y1702D02*
X2420Y1702D01*
X2476Y1702D02*
X2513Y1702D01*
X1783Y1701D02*
X1821Y1701D01*
X1875Y1701D02*
X1913Y1701D01*
X2383Y1701D02*
X2421Y1701D01*
X2475Y1701D02*
X2513Y1701D01*
X1783Y1700D02*
X1821Y1700D01*
X1875Y1700D02*
X1913Y1700D01*
X2383Y1700D02*
X2421Y1700D01*
X2475Y1700D02*
X2513Y1700D01*
X1783Y1699D02*
X1821Y1699D01*
X1874Y1699D02*
X1913Y1699D01*
X2383Y1699D02*
X2421Y1699D01*
X2474Y1699D02*
X2513Y1699D01*
X1783Y1698D02*
X1822Y1698D01*
X1874Y1698D02*
X1913Y1698D01*
X2383Y1698D02*
X2422Y1698D01*
X2474Y1698D02*
X2513Y1698D01*
X1783Y1697D02*
X1822Y1697D01*
X1873Y1697D02*
X1913Y1697D01*
X2383Y1697D02*
X2422Y1697D01*
X2473Y1697D02*
X2513Y1697D01*
X1783Y1696D02*
X1823Y1696D01*
X1873Y1696D02*
X1913Y1696D01*
X2383Y1696D02*
X2423Y1696D01*
X2473Y1696D02*
X2513Y1696D01*
X1783Y1695D02*
X1824Y1695D01*
X1872Y1695D02*
X1913Y1695D01*
X2383Y1695D02*
X2424Y1695D01*
X2472Y1695D02*
X2513Y1695D01*
X1783Y1694D02*
X1824Y1694D01*
X1871Y1694D02*
X1913Y1694D01*
X2383Y1694D02*
X2424Y1694D01*
X2471Y1694D02*
X2513Y1694D01*
X1783Y1693D02*
X1825Y1693D01*
X1871Y1693D02*
X1913Y1693D01*
X2383Y1693D02*
X2425Y1693D01*
X2471Y1693D02*
X2513Y1693D01*
X1783Y1692D02*
X1826Y1692D01*
X1870Y1692D02*
X1913Y1692D01*
X2383Y1692D02*
X2426Y1692D01*
X2470Y1692D02*
X2513Y1692D01*
X1783Y1691D02*
X1827Y1691D01*
X1869Y1691D02*
X1913Y1691D01*
X2383Y1691D02*
X2427Y1691D01*
X2469Y1691D02*
X2513Y1691D01*
X1783Y1690D02*
X1828Y1690D01*
X1868Y1690D02*
X1913Y1690D01*
X2383Y1690D02*
X2428Y1690D01*
X2468Y1690D02*
X2513Y1690D01*
X1783Y1689D02*
X1829Y1689D01*
X1867Y1689D02*
X1913Y1689D01*
X2383Y1689D02*
X2429Y1689D01*
X2467Y1689D02*
X2513Y1689D01*
X1783Y1688D02*
X1830Y1688D01*
X1865Y1688D02*
X1913Y1688D01*
X2383Y1688D02*
X2430Y1688D01*
X2465Y1688D02*
X2513Y1688D01*
X1783Y1687D02*
X1832Y1687D01*
X1864Y1687D02*
X1913Y1687D01*
X2383Y1687D02*
X2432Y1687D01*
X2464Y1687D02*
X2513Y1687D01*
X1783Y1686D02*
X1833Y1686D01*
X1862Y1686D02*
X1913Y1686D01*
X2383Y1686D02*
X2433Y1686D01*
X2462Y1686D02*
X2513Y1686D01*
X1783Y1685D02*
X1835Y1685D01*
X1861Y1685D02*
X1913Y1685D01*
X2383Y1685D02*
X2435Y1685D01*
X2461Y1685D02*
X2513Y1685D01*
X1783Y1684D02*
X1838Y1684D01*
X1858Y1684D02*
X1913Y1684D01*
X2383Y1684D02*
X2438Y1684D01*
X2458Y1684D02*
X2513Y1684D01*
X1783Y1683D02*
X1841Y1683D01*
X1855Y1683D02*
X1913Y1683D01*
X2383Y1683D02*
X2441Y1683D01*
X2455Y1683D02*
X2513Y1683D01*
X1783Y1639D02*
X1842Y1639D01*
X1854Y1639D02*
X1913Y1639D01*
X2383Y1639D02*
X2442Y1639D01*
X2454Y1639D02*
X2513Y1639D01*
X1783Y1638D02*
X1839Y1638D01*
X1857Y1638D02*
X1913Y1638D01*
X2383Y1638D02*
X2439Y1638D01*
X2457Y1638D02*
X2513Y1638D01*
X1783Y1637D02*
X1836Y1637D01*
X1860Y1637D02*
X1913Y1637D01*
X2383Y1637D02*
X2436Y1637D01*
X2460Y1637D02*
X2513Y1637D01*
X1783Y1636D02*
X1834Y1636D01*
X1862Y1636D02*
X1913Y1636D01*
X2383Y1636D02*
X2434Y1636D01*
X2462Y1636D02*
X2513Y1636D01*
X1783Y1635D02*
X1832Y1635D01*
X1863Y1635D02*
X1913Y1635D01*
X2383Y1635D02*
X2432Y1635D01*
X2463Y1635D02*
X2513Y1635D01*
X1783Y1634D02*
X1831Y1634D01*
X1865Y1634D02*
X1913Y1634D01*
X2383Y1634D02*
X2431Y1634D01*
X2465Y1634D02*
X2513Y1634D01*
X1783Y1633D02*
X1830Y1633D01*
X1866Y1633D02*
X1913Y1633D01*
X2383Y1633D02*
X2430Y1633D01*
X2466Y1633D02*
X2513Y1633D01*
X1783Y1632D02*
X1829Y1632D01*
X1867Y1632D02*
X1913Y1632D01*
X2383Y1632D02*
X2429Y1632D01*
X2467Y1632D02*
X2513Y1632D01*
X1783Y1631D02*
X1827Y1631D01*
X1868Y1631D02*
X1913Y1631D01*
X2383Y1631D02*
X2427Y1631D01*
X2468Y1631D02*
X2513Y1631D01*
X1783Y1630D02*
X1827Y1630D01*
X1869Y1630D02*
X1913Y1630D01*
X2383Y1630D02*
X2427Y1630D01*
X2469Y1630D02*
X2513Y1630D01*
X1783Y1629D02*
X1826Y1629D01*
X1870Y1629D02*
X1913Y1629D01*
X2383Y1629D02*
X2426Y1629D01*
X2470Y1629D02*
X2513Y1629D01*
X1783Y1628D02*
X1825Y1628D01*
X1871Y1628D02*
X1913Y1628D01*
X2383Y1628D02*
X2425Y1628D01*
X2471Y1628D02*
X2513Y1628D01*
X1783Y1627D02*
X1824Y1627D01*
X1872Y1627D02*
X1913Y1627D01*
X2383Y1627D02*
X2424Y1627D01*
X2472Y1627D02*
X2513Y1627D01*
X1783Y1626D02*
X1823Y1626D01*
X1872Y1626D02*
X1913Y1626D01*
X2383Y1626D02*
X2423Y1626D01*
X2472Y1626D02*
X2513Y1626D01*
X1783Y1625D02*
X1823Y1625D01*
X1873Y1625D02*
X1913Y1625D01*
X2383Y1625D02*
X2423Y1625D01*
X2473Y1625D02*
X2513Y1625D01*
X1783Y1624D02*
X1822Y1624D01*
X1874Y1624D02*
X1913Y1624D01*
X2383Y1624D02*
X2422Y1624D01*
X2474Y1624D02*
X2513Y1624D01*
X1783Y1623D02*
X1822Y1623D01*
X1874Y1623D02*
X1913Y1623D01*
X2383Y1623D02*
X2422Y1623D01*
X2474Y1623D02*
X2513Y1623D01*
X1783Y1622D02*
X1821Y1622D01*
X1875Y1622D02*
X1913Y1622D01*
X2383Y1622D02*
X2421Y1622D01*
X2475Y1622D02*
X2513Y1622D01*
X1783Y1621D02*
X1821Y1621D01*
X1875Y1621D02*
X1913Y1621D01*
X2383Y1621D02*
X2421Y1621D01*
X2475Y1621D02*
X2513Y1621D01*
X1783Y1620D02*
X1820Y1620D01*
X1875Y1620D02*
X1913Y1620D01*
X2383Y1620D02*
X2420Y1620D01*
X2475Y1620D02*
X2513Y1620D01*
X1783Y1619D02*
X1820Y1619D01*
X1876Y1619D02*
X1913Y1619D01*
X2383Y1619D02*
X2420Y1619D01*
X2476Y1619D02*
X2513Y1619D01*
X1783Y1618D02*
X1820Y1618D01*
X1876Y1618D02*
X1913Y1618D01*
X2383Y1618D02*
X2420Y1618D01*
X2476Y1618D02*
X2513Y1618D01*
X1783Y1617D02*
X1820Y1617D01*
X1876Y1617D02*
X1913Y1617D01*
X2383Y1617D02*
X2420Y1617D01*
X2476Y1617D02*
X2513Y1617D01*
X1783Y1616D02*
X1819Y1616D01*
X1876Y1616D02*
X1913Y1616D01*
X2383Y1616D02*
X2419Y1616D01*
X2476Y1616D02*
X2513Y1616D01*
X1783Y1615D02*
X1819Y1615D01*
X1877Y1615D02*
X1913Y1615D01*
X2383Y1615D02*
X2419Y1615D01*
X2477Y1615D02*
X2513Y1615D01*
X1783Y1614D02*
X1819Y1614D01*
X1877Y1614D02*
X1913Y1614D01*
X2383Y1614D02*
X2419Y1614D01*
X2477Y1614D02*
X2513Y1614D01*
X1783Y1613D02*
X1819Y1613D01*
X1877Y1613D02*
X1913Y1613D01*
X2383Y1613D02*
X2419Y1613D01*
X2477Y1613D02*
X2513Y1613D01*
X1783Y1612D02*
X1819Y1612D01*
X1877Y1612D02*
X1913Y1612D01*
X2383Y1612D02*
X2419Y1612D01*
X2477Y1612D02*
X2513Y1612D01*
X1783Y1611D02*
X1819Y1611D01*
X1877Y1611D02*
X1913Y1611D01*
X2383Y1611D02*
X2419Y1611D01*
X2477Y1611D02*
X2513Y1611D01*
X1783Y1610D02*
X1819Y1610D01*
X1877Y1610D02*
X1913Y1610D01*
X2383Y1610D02*
X2419Y1610D01*
X2477Y1610D02*
X2513Y1610D01*
X1783Y1609D02*
X1819Y1609D01*
X1877Y1609D02*
X1913Y1609D01*
X2383Y1609D02*
X2419Y1609D01*
X2477Y1609D02*
X2513Y1609D01*
X1783Y1608D02*
X1819Y1608D01*
X1877Y1608D02*
X1913Y1608D01*
X2383Y1608D02*
X2419Y1608D01*
X2477Y1608D02*
X2513Y1608D01*
X1783Y1607D02*
X1819Y1607D01*
X1877Y1607D02*
X1913Y1607D01*
X2383Y1607D02*
X2419Y1607D01*
X2477Y1607D02*
X2513Y1607D01*
X1783Y1606D02*
X1819Y1606D01*
X1876Y1606D02*
X1913Y1606D01*
X2383Y1606D02*
X2419Y1606D01*
X2476Y1606D02*
X2513Y1606D01*
X1783Y1605D02*
X1820Y1605D01*
X1876Y1605D02*
X1913Y1605D01*
X2383Y1605D02*
X2420Y1605D01*
X2476Y1605D02*
X2513Y1605D01*
X1783Y1604D02*
X1820Y1604D01*
X1876Y1604D02*
X1913Y1604D01*
X2383Y1604D02*
X2420Y1604D01*
X2476Y1604D02*
X2513Y1604D01*
X1783Y1603D02*
X1820Y1603D01*
X1876Y1603D02*
X1913Y1603D01*
X2383Y1603D02*
X2420Y1603D01*
X2476Y1603D02*
X2513Y1603D01*
X1783Y1602D02*
X1820Y1602D01*
X1876Y1602D02*
X1913Y1602D01*
X2383Y1602D02*
X2420Y1602D01*
X2476Y1602D02*
X2513Y1602D01*
X1783Y1601D02*
X1821Y1601D01*
X1875Y1601D02*
X1913Y1601D01*
X2383Y1601D02*
X2421Y1601D01*
X2475Y1601D02*
X2513Y1601D01*
X1783Y1600D02*
X1821Y1600D01*
X1875Y1600D02*
X1913Y1600D01*
X2383Y1600D02*
X2421Y1600D01*
X2475Y1600D02*
X2513Y1600D01*
X1783Y1599D02*
X1822Y1599D01*
X1874Y1599D02*
X1913Y1599D01*
X2383Y1599D02*
X2422Y1599D01*
X2474Y1599D02*
X2513Y1599D01*
X1783Y1598D02*
X1822Y1598D01*
X1874Y1598D02*
X1913Y1598D01*
X2383Y1598D02*
X2422Y1598D01*
X2474Y1598D02*
X2513Y1598D01*
X1783Y1597D02*
X1823Y1597D01*
X1873Y1597D02*
X1913Y1597D01*
X2383Y1597D02*
X2423Y1597D01*
X2473Y1597D02*
X2513Y1597D01*
X1783Y1596D02*
X1823Y1596D01*
X1873Y1596D02*
X1913Y1596D01*
X2383Y1596D02*
X2423Y1596D01*
X2473Y1596D02*
X2513Y1596D01*
X1783Y1595D02*
X1824Y1595D01*
X1872Y1595D02*
X1913Y1595D01*
X2383Y1595D02*
X2424Y1595D01*
X2472Y1595D02*
X2513Y1595D01*
X1783Y1594D02*
X1825Y1594D01*
X1871Y1594D02*
X1913Y1594D01*
X2383Y1594D02*
X2425Y1594D01*
X2471Y1594D02*
X2513Y1594D01*
X1783Y1593D02*
X1825Y1593D01*
X1871Y1593D02*
X1913Y1593D01*
X2383Y1593D02*
X2425Y1593D01*
X2471Y1593D02*
X2513Y1593D01*
X1783Y1592D02*
X1826Y1592D01*
X1870Y1592D02*
X1913Y1592D01*
X2383Y1592D02*
X2426Y1592D01*
X2470Y1592D02*
X2513Y1592D01*
X1783Y1591D02*
X1827Y1591D01*
X1869Y1591D02*
X1913Y1591D01*
X2383Y1591D02*
X2427Y1591D01*
X2469Y1591D02*
X2513Y1591D01*
X1783Y1590D02*
X1828Y1590D01*
X1868Y1590D02*
X1913Y1590D01*
X2383Y1590D02*
X2428Y1590D01*
X2468Y1590D02*
X2513Y1590D01*
X1783Y1589D02*
X1829Y1589D01*
X1867Y1589D02*
X1913Y1589D01*
X2383Y1589D02*
X2429Y1589D01*
X2467Y1589D02*
X2513Y1589D01*
X1783Y1588D02*
X1830Y1588D01*
X1865Y1588D02*
X1913Y1588D01*
X2383Y1588D02*
X2430Y1588D01*
X2465Y1588D02*
X2513Y1588D01*
X1783Y1587D02*
X1832Y1587D01*
X1864Y1587D02*
X1913Y1587D01*
X2383Y1587D02*
X2432Y1587D01*
X2464Y1587D02*
X2513Y1587D01*
X1783Y1586D02*
X1833Y1586D01*
X1862Y1586D02*
X1913Y1586D01*
X2383Y1586D02*
X2433Y1586D01*
X2462Y1586D02*
X2513Y1586D01*
X1783Y1585D02*
X1835Y1585D01*
X1860Y1585D02*
X1913Y1585D01*
X2383Y1585D02*
X2435Y1585D01*
X2460Y1585D02*
X2513Y1585D01*
X1783Y1584D02*
X1838Y1584D01*
X1858Y1584D02*
X1913Y1584D01*
X2383Y1584D02*
X2438Y1584D01*
X2458Y1584D02*
X2513Y1584D01*
X1783Y1583D02*
X1841Y1583D01*
X1855Y1583D02*
X1913Y1583D01*
X2383Y1583D02*
X2441Y1583D01*
X2455Y1583D02*
X2513Y1583D01*
X1783Y1539D02*
X1842Y1539D01*
X1854Y1539D02*
X1913Y1539D01*
X2383Y1539D02*
X2442Y1539D01*
X2454Y1539D02*
X2513Y1539D01*
X1783Y1538D02*
X1839Y1538D01*
X1857Y1538D02*
X1913Y1538D01*
X2383Y1538D02*
X2439Y1538D01*
X2457Y1538D02*
X2513Y1538D01*
X1783Y1537D02*
X1836Y1537D01*
X1860Y1537D02*
X1913Y1537D01*
X2383Y1537D02*
X2436Y1537D01*
X2460Y1537D02*
X2513Y1537D01*
X1783Y1536D02*
X1834Y1536D01*
X1862Y1536D02*
X1913Y1536D01*
X2383Y1536D02*
X2434Y1536D01*
X2462Y1536D02*
X2513Y1536D01*
X1783Y1535D02*
X1832Y1535D01*
X1863Y1535D02*
X1913Y1535D01*
X2383Y1535D02*
X2432Y1535D01*
X2463Y1535D02*
X2513Y1535D01*
X1783Y1534D02*
X1831Y1534D01*
X1865Y1534D02*
X1913Y1534D01*
X2383Y1534D02*
X2431Y1534D01*
X2465Y1534D02*
X2513Y1534D01*
X1783Y1533D02*
X1830Y1533D01*
X1866Y1533D02*
X1913Y1533D01*
X2383Y1533D02*
X2430Y1533D01*
X2466Y1533D02*
X2513Y1533D01*
X1783Y1532D02*
X1829Y1532D01*
X1867Y1532D02*
X1913Y1532D01*
X2383Y1532D02*
X2429Y1532D01*
X2467Y1532D02*
X2513Y1532D01*
X1783Y1531D02*
X1827Y1531D01*
X1869Y1531D02*
X1913Y1531D01*
X2383Y1531D02*
X2427Y1531D01*
X2469Y1531D02*
X2513Y1531D01*
X1783Y1530D02*
X1826Y1530D01*
X1869Y1530D02*
X1913Y1530D01*
X2383Y1530D02*
X2426Y1530D01*
X2469Y1530D02*
X2513Y1530D01*
X1783Y1529D02*
X1826Y1529D01*
X1870Y1529D02*
X1913Y1529D01*
X2383Y1529D02*
X2426Y1529D01*
X2470Y1529D02*
X2513Y1529D01*
X1783Y1528D02*
X1825Y1528D01*
X1871Y1528D02*
X1913Y1528D01*
X2383Y1528D02*
X2425Y1528D01*
X2471Y1528D02*
X2513Y1528D01*
X1783Y1527D02*
X1824Y1527D01*
X1872Y1527D02*
X1913Y1527D01*
X2383Y1527D02*
X2424Y1527D01*
X2472Y1527D02*
X2513Y1527D01*
X1783Y1526D02*
X1823Y1526D01*
X1873Y1526D02*
X1913Y1526D01*
X2383Y1526D02*
X2423Y1526D01*
X2473Y1526D02*
X2513Y1526D01*
X1783Y1525D02*
X1823Y1525D01*
X1873Y1525D02*
X1913Y1525D01*
X2383Y1525D02*
X2423Y1525D01*
X2473Y1525D02*
X2513Y1525D01*
X1783Y1524D02*
X1822Y1524D01*
X1874Y1524D02*
X1913Y1524D01*
X2383Y1524D02*
X2422Y1524D01*
X2474Y1524D02*
X2513Y1524D01*
X1783Y1523D02*
X1822Y1523D01*
X1874Y1523D02*
X1913Y1523D01*
X2383Y1523D02*
X2422Y1523D01*
X2474Y1523D02*
X2513Y1523D01*
X1783Y1522D02*
X1821Y1522D01*
X1875Y1522D02*
X1913Y1522D01*
X2383Y1522D02*
X2421Y1522D01*
X2475Y1522D02*
X2513Y1522D01*
X1783Y1521D02*
X1821Y1521D01*
X1875Y1521D02*
X1913Y1521D01*
X2383Y1521D02*
X2421Y1521D01*
X2475Y1521D02*
X2513Y1521D01*
X1783Y1520D02*
X1820Y1520D01*
X1875Y1520D02*
X1913Y1520D01*
X2383Y1520D02*
X2420Y1520D01*
X2475Y1520D02*
X2513Y1520D01*
X1783Y1519D02*
X1820Y1519D01*
X1876Y1519D02*
X1913Y1519D01*
X2383Y1519D02*
X2420Y1519D01*
X2476Y1519D02*
X2513Y1519D01*
X1783Y1518D02*
X1820Y1518D01*
X1876Y1518D02*
X1913Y1518D01*
X2383Y1518D02*
X2420Y1518D01*
X2476Y1518D02*
X2513Y1518D01*
X1783Y1517D02*
X1820Y1517D01*
X1876Y1517D02*
X1913Y1517D01*
X2383Y1517D02*
X2420Y1517D01*
X2476Y1517D02*
X2513Y1517D01*
X1783Y1516D02*
X1819Y1516D01*
X1876Y1516D02*
X1913Y1516D01*
X2383Y1516D02*
X2419Y1516D01*
X2476Y1516D02*
X2513Y1516D01*
X1783Y1515D02*
X1819Y1515D01*
X1877Y1515D02*
X1913Y1515D01*
X2383Y1515D02*
X2419Y1515D01*
X2477Y1515D02*
X2513Y1515D01*
X1783Y1514D02*
X1819Y1514D01*
X1877Y1514D02*
X1913Y1514D01*
X2383Y1514D02*
X2419Y1514D01*
X2477Y1514D02*
X2513Y1514D01*
X1783Y1513D02*
X1819Y1513D01*
X1877Y1513D02*
X1913Y1513D01*
X2383Y1513D02*
X2419Y1513D01*
X2477Y1513D02*
X2513Y1513D01*
X1783Y1512D02*
X1819Y1512D01*
X1877Y1512D02*
X1913Y1512D01*
X2383Y1512D02*
X2419Y1512D01*
X2477Y1512D02*
X2513Y1512D01*
X1783Y1511D02*
X1819Y1511D01*
X1877Y1511D02*
X1913Y1511D01*
X2383Y1511D02*
X2419Y1511D01*
X2477Y1511D02*
X2513Y1511D01*
X1783Y1510D02*
X1819Y1510D01*
X1877Y1510D02*
X1913Y1510D01*
X2383Y1510D02*
X2419Y1510D01*
X2477Y1510D02*
X2513Y1510D01*
X1783Y1509D02*
X1819Y1509D01*
X1877Y1509D02*
X1913Y1509D01*
X2383Y1509D02*
X2419Y1509D01*
X2477Y1509D02*
X2513Y1509D01*
X1783Y1508D02*
X1819Y1508D01*
X1877Y1508D02*
X1913Y1508D01*
X2383Y1508D02*
X2419Y1508D01*
X2477Y1508D02*
X2513Y1508D01*
X1783Y1507D02*
X1819Y1507D01*
X1877Y1507D02*
X1913Y1507D01*
X2383Y1507D02*
X2419Y1507D01*
X2477Y1507D02*
X2513Y1507D01*
X1783Y1506D02*
X1819Y1506D01*
X1876Y1506D02*
X1913Y1506D01*
X2383Y1506D02*
X2419Y1506D01*
X2476Y1506D02*
X2513Y1506D01*
X1783Y1505D02*
X1820Y1505D01*
X1876Y1505D02*
X1913Y1505D01*
X2383Y1505D02*
X2420Y1505D01*
X2476Y1505D02*
X2513Y1505D01*
X1783Y1504D02*
X1820Y1504D01*
X1876Y1504D02*
X1913Y1504D01*
X2383Y1504D02*
X2420Y1504D01*
X2476Y1504D02*
X2513Y1504D01*
X1783Y1503D02*
X1820Y1503D01*
X1876Y1503D02*
X1913Y1503D01*
X2383Y1503D02*
X2420Y1503D01*
X2476Y1503D02*
X2513Y1503D01*
X1783Y1502D02*
X1820Y1502D01*
X1876Y1502D02*
X1913Y1502D01*
X2383Y1502D02*
X2420Y1502D01*
X2476Y1502D02*
X2513Y1502D01*
X1783Y1501D02*
X1821Y1501D01*
X1875Y1501D02*
X1913Y1501D01*
X2383Y1501D02*
X2421Y1501D01*
X2475Y1501D02*
X2513Y1501D01*
X1783Y1500D02*
X1821Y1500D01*
X1875Y1500D02*
X1913Y1500D01*
X2383Y1500D02*
X2421Y1500D01*
X2475Y1500D02*
X2513Y1500D01*
X1783Y1499D02*
X1822Y1499D01*
X1874Y1499D02*
X1913Y1499D01*
X2383Y1499D02*
X2422Y1499D01*
X2474Y1499D02*
X2513Y1499D01*
X1783Y1498D02*
X1822Y1498D01*
X1874Y1498D02*
X1913Y1498D01*
X2383Y1498D02*
X2422Y1498D01*
X2474Y1498D02*
X2513Y1498D01*
X1783Y1497D02*
X1823Y1497D01*
X1873Y1497D02*
X1913Y1497D01*
X2383Y1497D02*
X2423Y1497D01*
X2473Y1497D02*
X2513Y1497D01*
X1783Y1496D02*
X1823Y1496D01*
X1873Y1496D02*
X1913Y1496D01*
X2383Y1496D02*
X2423Y1496D01*
X2473Y1496D02*
X2513Y1496D01*
X1783Y1495D02*
X1824Y1495D01*
X1872Y1495D02*
X1913Y1495D01*
X2383Y1495D02*
X2424Y1495D01*
X2472Y1495D02*
X2513Y1495D01*
X1783Y1494D02*
X1825Y1494D01*
X1871Y1494D02*
X1913Y1494D01*
X2383Y1494D02*
X2425Y1494D01*
X2471Y1494D02*
X2513Y1494D01*
X1783Y1493D02*
X1825Y1493D01*
X1871Y1493D02*
X1913Y1493D01*
X2383Y1493D02*
X2425Y1493D01*
X2471Y1493D02*
X2513Y1493D01*
X1783Y1492D02*
X1826Y1492D01*
X1870Y1492D02*
X1913Y1492D01*
X2383Y1492D02*
X2426Y1492D01*
X2470Y1492D02*
X2513Y1492D01*
X1783Y1491D02*
X1827Y1491D01*
X1869Y1491D02*
X1913Y1491D01*
X2383Y1491D02*
X2427Y1491D01*
X2469Y1491D02*
X2513Y1491D01*
X1783Y1490D02*
X1828Y1490D01*
X1868Y1490D02*
X1913Y1490D01*
X2383Y1490D02*
X2428Y1490D01*
X2468Y1490D02*
X2513Y1490D01*
X1783Y1489D02*
X1829Y1489D01*
X1867Y1489D02*
X1913Y1489D01*
X2383Y1489D02*
X2429Y1489D01*
X2467Y1489D02*
X2513Y1489D01*
X1783Y1488D02*
X1831Y1488D01*
X1865Y1488D02*
X1913Y1488D01*
X2383Y1488D02*
X2431Y1488D01*
X2465Y1488D02*
X2513Y1488D01*
X1783Y1487D02*
X1832Y1487D01*
X1864Y1487D02*
X1913Y1487D01*
X2383Y1487D02*
X2432Y1487D01*
X2464Y1487D02*
X2513Y1487D01*
X1783Y1486D02*
X1833Y1486D01*
X1862Y1486D02*
X1913Y1486D01*
X2383Y1486D02*
X2433Y1486D01*
X2462Y1486D02*
X2513Y1486D01*
X1783Y1485D02*
X1835Y1485D01*
X1860Y1485D02*
X1913Y1485D01*
X2383Y1485D02*
X2435Y1485D01*
X2460Y1485D02*
X2513Y1485D01*
X1783Y1484D02*
X1838Y1484D01*
X1858Y1484D02*
X1913Y1484D01*
X2383Y1484D02*
X2438Y1484D01*
X2458Y1484D02*
X2513Y1484D01*
X1783Y1483D02*
X1841Y1483D01*
X1855Y1483D02*
X1913Y1483D01*
X2383Y1483D02*
X2441Y1483D01*
X2455Y1483D02*
X2513Y1483D01*
D02*
G04 End of Copper0*
M02*