G04 MADE WITH FRITZING*
G04 WWW.FRITZING.ORG*
G04 SINGLE SIDED*
G04 HOLES NOT PLATED*
G04 CONTOUR ON CENTER OF CONTOUR VECTOR*
%ASAXBY*%
%FSLAX23Y23*%
%MOIN*%
%OFA0B0*%
%SFA1.0B1.0*%
%ADD10C,0.025567X0.00956692*%
%ADD11R,3.937010X2.755910X3.921010X2.739910*%
%ADD12C,0.008000*%
%ADD13C,0.007960*%
%ADD14C,0.010000*%
%ADD15C,0.005000*%
%ADD16R,0.001000X0.001000*%
%LNSILK1*%
G90*
G70*
G54D10*
X2218Y1770D03*
G54D12*
X4Y2752D02*
X3933Y2752D01*
X3933Y4D01*
X4Y4D01*
X4Y2752D01*
D02*
X2113Y1547D02*
X2046Y1547D01*
D02*
X2046Y1547D02*
X2046Y1671D01*
D02*
X2046Y1671D02*
X2113Y1671D01*
D02*
X2188Y1549D02*
X2235Y1549D01*
D02*
X2235Y1549D02*
X2251Y1563D01*
D02*
X2251Y1563D02*
X2251Y1659D01*
D02*
X2251Y1659D02*
X2235Y1671D01*
D02*
X2235Y1671D02*
X2188Y1671D01*
D02*
X2235Y1671D02*
X2188Y1671D01*
D02*
X2172Y1661D02*
X2172Y1559D01*
D02*
X2473Y2260D02*
X2423Y2260D01*
D02*
X2473Y1460D02*
X2423Y1460D01*
D02*
X1823Y1460D02*
X1873Y1460D01*
D02*
X1823Y2260D02*
X1873Y2260D01*
D02*
X2050Y1743D02*
X2050Y2077D01*
D02*
X2050Y2077D02*
X2247Y2077D01*
D02*
X2247Y2077D02*
X2247Y1743D01*
D02*
X2247Y1743D02*
X2050Y1743D01*
G54D13*
D02*
X312Y2407D02*
X312Y547D01*
D02*
X1287Y547D02*
X1287Y2407D01*
D02*
X312Y547D02*
X1282Y547D01*
D02*
X312Y2428D02*
X1284Y2428D01*
G54D14*
D02*
X2798Y2160D02*
X2798Y1960D01*
D02*
X2798Y1960D02*
X2898Y1960D01*
D02*
X2898Y1960D02*
X2898Y2160D01*
D02*
X2898Y2160D02*
X2798Y2160D01*
G54D15*
D02*
X2798Y2125D02*
X2833Y2160D01*
G54D14*
D02*
X2798Y1860D02*
X2798Y1660D01*
D02*
X2798Y1660D02*
X2898Y1660D01*
D02*
X2898Y1660D02*
X2898Y1860D01*
D02*
X2898Y1860D02*
X2798Y1860D01*
G54D15*
D02*
X2798Y1825D02*
X2833Y1860D01*
G54D14*
D02*
X3098Y2560D02*
X2898Y2560D01*
D02*
X2898Y2560D02*
X2898Y2460D01*
D02*
X2898Y2460D02*
X3098Y2460D01*
D02*
X3098Y2460D02*
X3098Y2560D01*
G54D15*
D02*
X3063Y2560D02*
X3098Y2525D01*
G54D14*
D02*
X3098Y1060D02*
X2898Y1060D01*
D02*
X2898Y1060D02*
X2898Y960D01*
D02*
X2898Y960D02*
X3098Y960D01*
D02*
X3098Y960D02*
X3098Y1060D01*
G54D15*
D02*
X3063Y1060D02*
X3098Y1025D01*
G54D16*
X1301Y2511D02*
X1305Y2511D01*
X1329Y2511D02*
X1332Y2511D01*
X1351Y2511D02*
X1370Y2511D01*
X1300Y2510D02*
X1306Y2510D01*
X1328Y2510D02*
X1333Y2510D01*
X1351Y2510D02*
X1370Y2510D01*
X1300Y2509D02*
X1306Y2509D01*
X1328Y2509D02*
X1333Y2509D01*
X1350Y2509D02*
X1370Y2509D01*
X1300Y2508D02*
X1306Y2508D01*
X1327Y2508D02*
X1334Y2508D01*
X1350Y2508D02*
X1370Y2508D01*
X1300Y2507D02*
X1306Y2507D01*
X1327Y2507D02*
X1334Y2507D01*
X1351Y2507D02*
X1370Y2507D01*
X1300Y2506D02*
X1306Y2506D01*
X1327Y2506D02*
X1334Y2506D01*
X1351Y2506D02*
X1370Y2506D01*
X1300Y2505D02*
X1306Y2505D01*
X1327Y2505D02*
X1334Y2505D01*
X1353Y2505D02*
X1370Y2505D01*
X1300Y2504D02*
X1306Y2504D01*
X1327Y2504D02*
X1334Y2504D01*
X1364Y2504D02*
X1370Y2504D01*
X1300Y2503D02*
X1306Y2503D01*
X1327Y2503D02*
X1334Y2503D01*
X1364Y2503D02*
X1370Y2503D01*
X1300Y2502D02*
X1306Y2502D01*
X1327Y2502D02*
X1334Y2502D01*
X1364Y2502D02*
X1370Y2502D01*
X1300Y2501D02*
X1306Y2501D01*
X1327Y2501D02*
X1334Y2501D01*
X1364Y2501D02*
X1370Y2501D01*
X1300Y2500D02*
X1306Y2500D01*
X1327Y2500D02*
X1334Y2500D01*
X1364Y2500D02*
X1370Y2500D01*
X1300Y2499D02*
X1306Y2499D01*
X1327Y2499D02*
X1334Y2499D01*
X1364Y2499D02*
X1370Y2499D01*
X1300Y2498D02*
X1306Y2498D01*
X1327Y2498D02*
X1334Y2498D01*
X1364Y2498D02*
X1370Y2498D01*
X1300Y2497D02*
X1306Y2497D01*
X1327Y2497D02*
X1334Y2497D01*
X1364Y2497D02*
X1370Y2497D01*
X1300Y2496D02*
X1306Y2496D01*
X1327Y2496D02*
X1334Y2496D01*
X1364Y2496D02*
X1370Y2496D01*
X1300Y2495D02*
X1306Y2495D01*
X1327Y2495D02*
X1334Y2495D01*
X1364Y2495D02*
X1370Y2495D01*
X1300Y2494D02*
X1306Y2494D01*
X1327Y2494D02*
X1334Y2494D01*
X1364Y2494D02*
X1370Y2494D01*
X1300Y2493D02*
X1306Y2493D01*
X1327Y2493D02*
X1334Y2493D01*
X1364Y2493D02*
X1370Y2493D01*
X1300Y2492D02*
X1306Y2492D01*
X1327Y2492D02*
X1334Y2492D01*
X1364Y2492D02*
X1370Y2492D01*
X1300Y2491D02*
X1306Y2491D01*
X1327Y2491D02*
X1334Y2491D01*
X1364Y2491D02*
X1370Y2491D01*
X1300Y2490D02*
X1306Y2490D01*
X1327Y2490D02*
X1334Y2490D01*
X1364Y2490D02*
X1370Y2490D01*
X1300Y2489D02*
X1306Y2489D01*
X1327Y2489D02*
X1334Y2489D01*
X1364Y2489D02*
X1370Y2489D01*
X1300Y2488D02*
X1306Y2488D01*
X1327Y2488D02*
X1334Y2488D01*
X1364Y2488D02*
X1370Y2488D01*
X1300Y2487D02*
X1306Y2487D01*
X1327Y2487D02*
X1334Y2487D01*
X1364Y2487D02*
X1370Y2487D01*
X1300Y2486D02*
X1306Y2486D01*
X1327Y2486D02*
X1334Y2486D01*
X1364Y2486D02*
X1370Y2486D01*
X1300Y2485D02*
X1306Y2485D01*
X1327Y2485D02*
X1334Y2485D01*
X1364Y2485D02*
X1370Y2485D01*
X1300Y2484D02*
X1306Y2484D01*
X1327Y2484D02*
X1334Y2484D01*
X1364Y2484D02*
X1370Y2484D01*
X1300Y2483D02*
X1306Y2483D01*
X1327Y2483D02*
X1334Y2483D01*
X1364Y2483D02*
X1370Y2483D01*
X1300Y2482D02*
X1306Y2482D01*
X1327Y2482D02*
X1334Y2482D01*
X1364Y2482D02*
X1370Y2482D01*
X1379Y2482D02*
X1382Y2482D01*
X1300Y2481D02*
X1306Y2481D01*
X1327Y2481D02*
X1334Y2481D01*
X1364Y2481D02*
X1370Y2481D01*
X1378Y2481D02*
X1383Y2481D01*
X1300Y2480D02*
X1306Y2480D01*
X1327Y2480D02*
X1334Y2480D01*
X1364Y2480D02*
X1370Y2480D01*
X1378Y2480D02*
X1384Y2480D01*
X1300Y2479D02*
X1306Y2479D01*
X1327Y2479D02*
X1334Y2479D01*
X1364Y2479D02*
X1370Y2479D01*
X1378Y2479D02*
X1384Y2479D01*
X1300Y2478D02*
X1306Y2478D01*
X1327Y2478D02*
X1334Y2478D01*
X1364Y2478D02*
X1370Y2478D01*
X1378Y2478D02*
X1384Y2478D01*
X1300Y2477D02*
X1306Y2477D01*
X1327Y2477D02*
X1334Y2477D01*
X1364Y2477D02*
X1370Y2477D01*
X1378Y2477D02*
X1384Y2477D01*
X1300Y2476D02*
X1306Y2476D01*
X1327Y2476D02*
X1334Y2476D01*
X1364Y2476D02*
X1370Y2476D01*
X1378Y2476D02*
X1384Y2476D01*
X1300Y2475D02*
X1306Y2475D01*
X1327Y2475D02*
X1334Y2475D01*
X1364Y2475D02*
X1370Y2475D01*
X1378Y2475D02*
X1384Y2475D01*
X1300Y2474D02*
X1306Y2474D01*
X1327Y2474D02*
X1334Y2474D01*
X1364Y2474D02*
X1370Y2474D01*
X1378Y2474D02*
X1384Y2474D01*
X1300Y2473D02*
X1306Y2473D01*
X1327Y2473D02*
X1334Y2473D01*
X1364Y2473D02*
X1370Y2473D01*
X1378Y2473D02*
X1384Y2473D01*
X1300Y2472D02*
X1306Y2472D01*
X1327Y2472D02*
X1334Y2472D01*
X1364Y2472D02*
X1370Y2472D01*
X1378Y2472D02*
X1384Y2472D01*
X1300Y2471D02*
X1306Y2471D01*
X1327Y2471D02*
X1334Y2471D01*
X1364Y2471D02*
X1370Y2471D01*
X1378Y2471D02*
X1384Y2471D01*
X1300Y2470D02*
X1306Y2470D01*
X1327Y2470D02*
X1334Y2470D01*
X1364Y2470D02*
X1370Y2470D01*
X1378Y2470D02*
X1384Y2470D01*
X1300Y2469D02*
X1306Y2469D01*
X1327Y2469D02*
X1334Y2469D01*
X1364Y2469D02*
X1370Y2469D01*
X1378Y2469D02*
X1384Y2469D01*
X1300Y2468D02*
X1306Y2468D01*
X1327Y2468D02*
X1333Y2468D01*
X1364Y2468D02*
X1370Y2468D01*
X1378Y2468D02*
X1384Y2468D01*
X1300Y2467D02*
X1306Y2467D01*
X1327Y2467D02*
X1333Y2467D01*
X1364Y2467D02*
X1370Y2467D01*
X1378Y2467D02*
X1384Y2467D01*
X1300Y2466D02*
X1307Y2466D01*
X1326Y2466D02*
X1333Y2466D01*
X1364Y2466D02*
X1370Y2466D01*
X1378Y2466D02*
X1384Y2466D01*
X1300Y2465D02*
X1309Y2465D01*
X1325Y2465D02*
X1333Y2465D01*
X1364Y2465D02*
X1370Y2465D01*
X1377Y2465D02*
X1384Y2465D01*
X1301Y2464D02*
X1333Y2464D01*
X1351Y2464D02*
X1384Y2464D01*
X1301Y2463D02*
X1332Y2463D01*
X1351Y2463D02*
X1384Y2463D01*
X1302Y2462D02*
X1331Y2462D01*
X1350Y2462D02*
X1384Y2462D01*
X1303Y2461D02*
X1330Y2461D01*
X1350Y2461D02*
X1384Y2461D01*
X1304Y2460D02*
X1329Y2460D01*
X1350Y2460D02*
X1383Y2460D01*
X1306Y2459D02*
X1328Y2459D01*
X1351Y2459D02*
X1383Y2459D01*
X1309Y2458D02*
X1325Y2458D01*
X1353Y2458D02*
X1381Y2458D01*
X3146Y2432D02*
X3197Y2432D01*
X3145Y2431D02*
X3197Y2431D01*
X3144Y2430D02*
X3197Y2430D01*
X3144Y2429D02*
X3197Y2429D01*
X3144Y2428D02*
X3197Y2428D01*
X3145Y2427D02*
X3197Y2427D01*
X3146Y2426D02*
X3197Y2426D01*
X3165Y2425D02*
X3171Y2425D01*
X3191Y2425D02*
X3197Y2425D01*
X3165Y2424D02*
X3171Y2424D01*
X3191Y2424D02*
X3197Y2424D01*
X3165Y2423D02*
X3171Y2423D01*
X3191Y2423D02*
X3197Y2423D01*
X3165Y2422D02*
X3171Y2422D01*
X3191Y2422D02*
X3197Y2422D01*
X3165Y2421D02*
X3171Y2421D01*
X3191Y2421D02*
X3197Y2421D01*
X3165Y2420D02*
X3171Y2420D01*
X3191Y2420D02*
X3197Y2420D01*
X3165Y2419D02*
X3171Y2419D01*
X3191Y2419D02*
X3197Y2419D01*
X3165Y2418D02*
X3171Y2418D01*
X3191Y2418D02*
X3197Y2418D01*
X3165Y2417D02*
X3171Y2417D01*
X3191Y2417D02*
X3197Y2417D01*
X3165Y2416D02*
X3171Y2416D01*
X3191Y2416D02*
X3197Y2416D01*
X3165Y2415D02*
X3171Y2415D01*
X3191Y2415D02*
X3197Y2415D01*
X3165Y2414D02*
X3171Y2414D01*
X3191Y2414D02*
X3197Y2414D01*
X3165Y2413D02*
X3171Y2413D01*
X3191Y2413D02*
X3197Y2413D01*
X3165Y2412D02*
X3171Y2412D01*
X3191Y2412D02*
X3197Y2412D01*
X3165Y2411D02*
X3171Y2411D01*
X3191Y2411D02*
X3197Y2411D01*
X3165Y2410D02*
X3171Y2410D01*
X3191Y2410D02*
X3197Y2410D01*
X3165Y2409D02*
X3171Y2409D01*
X3191Y2409D02*
X3197Y2409D01*
X3165Y2408D02*
X3171Y2408D01*
X3191Y2408D02*
X3197Y2408D01*
X3165Y2407D02*
X3171Y2407D01*
X3191Y2407D02*
X3197Y2407D01*
X3165Y2406D02*
X3172Y2406D01*
X3190Y2406D02*
X3197Y2406D01*
X3165Y2405D02*
X3197Y2405D01*
X3166Y2404D02*
X3196Y2404D01*
X3166Y2403D02*
X3196Y2403D01*
X3167Y2402D02*
X3195Y2402D01*
X3168Y2401D02*
X3194Y2401D01*
X3169Y2400D02*
X3193Y2400D01*
X3171Y2399D02*
X3191Y2399D01*
X3152Y2382D02*
X3195Y2382D01*
X3150Y2381D02*
X3197Y2381D01*
X3148Y2380D02*
X3197Y2380D01*
X3147Y2379D02*
X3197Y2379D01*
X3145Y2378D02*
X3197Y2378D01*
X3144Y2377D02*
X3197Y2377D01*
X3144Y2376D02*
X3196Y2376D01*
X3144Y2375D02*
X3153Y2375D01*
X3144Y2374D02*
X3151Y2374D01*
X3144Y2373D02*
X3150Y2373D01*
X3144Y2372D02*
X3150Y2372D01*
X3144Y2371D02*
X3150Y2371D01*
X3144Y2370D02*
X3151Y2370D01*
X3144Y2369D02*
X3153Y2369D01*
X3144Y2368D02*
X3178Y2368D01*
X3145Y2367D02*
X3179Y2367D01*
X3146Y2366D02*
X3179Y2366D01*
X3146Y2365D02*
X3180Y2365D01*
X3145Y2364D02*
X3179Y2364D01*
X3144Y2363D02*
X3179Y2363D01*
X3144Y2362D02*
X3177Y2362D01*
X3144Y2361D02*
X3152Y2361D01*
X3144Y2360D02*
X3151Y2360D01*
X3144Y2359D02*
X3150Y2359D01*
X3144Y2358D02*
X3150Y2358D01*
X3144Y2357D02*
X3150Y2357D01*
X3144Y2356D02*
X3152Y2356D01*
X3144Y2355D02*
X3153Y2355D01*
X3144Y2354D02*
X3196Y2354D01*
X3145Y2353D02*
X3197Y2353D01*
X3146Y2352D02*
X3197Y2352D01*
X3147Y2351D02*
X3197Y2351D01*
X3149Y2350D02*
X3197Y2350D01*
X3151Y2349D02*
X3196Y2349D01*
X3152Y2348D02*
X3194Y2348D01*
X3146Y2332D02*
X3197Y2332D01*
X3145Y2331D02*
X3197Y2331D01*
X3144Y2330D02*
X3197Y2330D01*
X3144Y2329D02*
X3197Y2329D01*
X3144Y2328D02*
X3197Y2328D01*
X3145Y2327D02*
X3197Y2327D01*
X3146Y2326D02*
X3197Y2326D01*
X3173Y2325D02*
X3180Y2325D01*
X3191Y2325D02*
X3197Y2325D01*
X3174Y2324D02*
X3180Y2324D01*
X3191Y2324D02*
X3197Y2324D01*
X3174Y2323D02*
X3180Y2323D01*
X3191Y2323D02*
X3197Y2323D01*
X3174Y2322D02*
X3180Y2322D01*
X3191Y2322D02*
X3197Y2322D01*
X3174Y2321D02*
X3180Y2321D01*
X3191Y2321D02*
X3197Y2321D01*
X3173Y2320D02*
X3180Y2320D01*
X3191Y2320D02*
X3197Y2320D01*
X3171Y2319D02*
X3180Y2319D01*
X3191Y2319D02*
X3197Y2319D01*
X3169Y2318D02*
X3180Y2318D01*
X3191Y2318D02*
X3197Y2318D01*
X3168Y2317D02*
X3180Y2317D01*
X3191Y2317D02*
X3197Y2317D01*
X3166Y2316D02*
X3180Y2316D01*
X3191Y2316D02*
X3197Y2316D01*
X3164Y2315D02*
X3180Y2315D01*
X3191Y2315D02*
X3197Y2315D01*
X3162Y2314D02*
X3180Y2314D01*
X3191Y2314D02*
X3197Y2314D01*
X3161Y2313D02*
X3180Y2313D01*
X3191Y2313D02*
X3197Y2313D01*
X3159Y2312D02*
X3180Y2312D01*
X3191Y2312D02*
X3197Y2312D01*
X3157Y2311D02*
X3170Y2311D01*
X3174Y2311D02*
X3180Y2311D01*
X3191Y2311D02*
X3197Y2311D01*
X3156Y2310D02*
X3169Y2310D01*
X3174Y2310D02*
X3180Y2310D01*
X3191Y2310D02*
X3197Y2310D01*
X3154Y2309D02*
X3167Y2309D01*
X3174Y2309D02*
X3180Y2309D01*
X3191Y2309D02*
X3197Y2309D01*
X3152Y2308D02*
X3165Y2308D01*
X3174Y2308D02*
X3180Y2308D01*
X3191Y2308D02*
X3197Y2308D01*
X3150Y2307D02*
X3163Y2307D01*
X3174Y2307D02*
X3180Y2307D01*
X3191Y2307D02*
X3197Y2307D01*
X3149Y2306D02*
X3162Y2306D01*
X3174Y2306D02*
X3181Y2306D01*
X3190Y2306D02*
X3197Y2306D01*
X3147Y2305D02*
X3160Y2305D01*
X3174Y2305D02*
X3182Y2305D01*
X3189Y2305D02*
X3197Y2305D01*
X3146Y2304D02*
X3158Y2304D01*
X3175Y2304D02*
X3196Y2304D01*
X3145Y2303D02*
X3157Y2303D01*
X3175Y2303D02*
X3196Y2303D01*
X3144Y2302D02*
X3155Y2302D01*
X3176Y2302D02*
X3195Y2302D01*
X3144Y2301D02*
X3153Y2301D01*
X3177Y2301D02*
X3194Y2301D01*
X3144Y2300D02*
X3151Y2300D01*
X3178Y2300D02*
X3193Y2300D01*
X3145Y2299D02*
X3150Y2299D01*
X3179Y2299D02*
X3192Y2299D01*
X3146Y2298D02*
X3148Y2298D01*
X3182Y2298D02*
X3189Y2298D01*
X1748Y2260D02*
X2547Y2260D01*
X2941Y2260D02*
X2945Y2260D01*
X1748Y2259D02*
X2547Y2259D01*
X2939Y2259D02*
X2947Y2259D01*
X1748Y2258D02*
X2547Y2258D01*
X2937Y2258D02*
X2949Y2258D01*
X1748Y2257D02*
X2547Y2257D01*
X2936Y2257D02*
X2950Y2257D01*
X1748Y2256D02*
X2547Y2256D01*
X2936Y2256D02*
X2950Y2256D01*
X1748Y2255D02*
X2547Y2255D01*
X2935Y2255D02*
X2951Y2255D01*
X1748Y2254D02*
X2547Y2254D01*
X2935Y2254D02*
X2951Y2254D01*
X1748Y2253D02*
X2547Y2253D01*
X2934Y2253D02*
X2941Y2253D01*
X2945Y2253D02*
X2952Y2253D01*
X1748Y2252D02*
X1755Y2252D01*
X2540Y2252D02*
X2547Y2252D01*
X2934Y2252D02*
X2941Y2252D01*
X2945Y2252D02*
X2952Y2252D01*
X1748Y2251D02*
X1755Y2251D01*
X2540Y2251D02*
X2547Y2251D01*
X2933Y2251D02*
X2940Y2251D01*
X2946Y2251D02*
X2953Y2251D01*
X1748Y2250D02*
X1755Y2250D01*
X2540Y2250D02*
X2547Y2250D01*
X2933Y2250D02*
X2940Y2250D01*
X2946Y2250D02*
X2953Y2250D01*
X1748Y2249D02*
X1755Y2249D01*
X2540Y2249D02*
X2547Y2249D01*
X2932Y2249D02*
X2939Y2249D01*
X2947Y2249D02*
X2954Y2249D01*
X1748Y2248D02*
X1755Y2248D01*
X2540Y2248D02*
X2547Y2248D01*
X2932Y2248D02*
X2939Y2248D01*
X2947Y2248D02*
X2954Y2248D01*
X1748Y2247D02*
X1755Y2247D01*
X2540Y2247D02*
X2547Y2247D01*
X2931Y2247D02*
X2938Y2247D01*
X2948Y2247D02*
X2955Y2247D01*
X1748Y2246D02*
X1755Y2246D01*
X2540Y2246D02*
X2547Y2246D01*
X2931Y2246D02*
X2938Y2246D01*
X2949Y2246D02*
X2955Y2246D01*
X1748Y2245D02*
X1755Y2245D01*
X2540Y2245D02*
X2547Y2245D01*
X2930Y2245D02*
X2937Y2245D01*
X2949Y2245D02*
X2956Y2245D01*
X2977Y2245D02*
X2980Y2245D01*
X2985Y2245D02*
X2991Y2245D01*
X3000Y2245D02*
X3004Y2245D01*
X3036Y2245D02*
X3051Y2245D01*
X3086Y2245D02*
X3098Y2245D01*
X3106Y2245D02*
X3109Y2245D01*
X3135Y2245D02*
X3154Y2245D01*
X1748Y2244D02*
X1755Y2244D01*
X2540Y2244D02*
X2547Y2244D01*
X2930Y2244D02*
X2937Y2244D01*
X2950Y2244D02*
X2956Y2244D01*
X2976Y2244D02*
X2981Y2244D01*
X2984Y2244D02*
X2993Y2244D01*
X2998Y2244D02*
X3006Y2244D01*
X3034Y2244D02*
X3053Y2244D01*
X3084Y2244D02*
X3100Y2244D01*
X3105Y2244D02*
X3110Y2244D01*
X3135Y2244D02*
X3155Y2244D01*
X1748Y2243D02*
X1755Y2243D01*
X2540Y2243D02*
X2547Y2243D01*
X2929Y2243D02*
X2936Y2243D01*
X2950Y2243D02*
X2957Y2243D01*
X2976Y2243D02*
X2994Y2243D01*
X2996Y2243D02*
X3008Y2243D01*
X3033Y2243D02*
X3054Y2243D01*
X3083Y2243D02*
X3101Y2243D01*
X3105Y2243D02*
X3110Y2243D01*
X3134Y2243D02*
X3157Y2243D01*
X1748Y2242D02*
X1755Y2242D01*
X2540Y2242D02*
X2547Y2242D01*
X2929Y2242D02*
X2936Y2242D01*
X2951Y2242D02*
X2957Y2242D01*
X2976Y2242D02*
X3009Y2242D01*
X3031Y2242D02*
X3056Y2242D01*
X3082Y2242D02*
X3102Y2242D01*
X3104Y2242D02*
X3110Y2242D01*
X3134Y2242D02*
X3158Y2242D01*
X1748Y2241D02*
X1755Y2241D01*
X2540Y2241D02*
X2547Y2241D01*
X2928Y2241D02*
X2935Y2241D01*
X2951Y2241D02*
X2958Y2241D01*
X2976Y2241D02*
X3009Y2241D01*
X3030Y2241D02*
X3057Y2241D01*
X3080Y2241D02*
X3110Y2241D01*
X3134Y2241D02*
X3159Y2241D01*
X1748Y2240D02*
X1755Y2240D01*
X2540Y2240D02*
X2547Y2240D01*
X2928Y2240D02*
X2935Y2240D01*
X2952Y2240D02*
X2958Y2240D01*
X2976Y2240D02*
X3010Y2240D01*
X3029Y2240D02*
X3058Y2240D01*
X3079Y2240D02*
X3110Y2240D01*
X3135Y2240D02*
X3159Y2240D01*
X1748Y2239D02*
X1755Y2239D01*
X2540Y2239D02*
X2547Y2239D01*
X2927Y2239D02*
X2934Y2239D01*
X2952Y2239D02*
X2959Y2239D01*
X2976Y2239D02*
X3010Y2239D01*
X3029Y2239D02*
X3058Y2239D01*
X3079Y2239D02*
X3110Y2239D01*
X3136Y2239D02*
X3160Y2239D01*
X1748Y2238D02*
X1755Y2238D01*
X2540Y2238D02*
X2547Y2238D01*
X2927Y2238D02*
X2934Y2238D01*
X2953Y2238D02*
X2959Y2238D01*
X2976Y2238D02*
X2986Y2238D01*
X2990Y2238D02*
X3000Y2238D01*
X3004Y2238D02*
X3010Y2238D01*
X3028Y2238D02*
X3037Y2238D01*
X3050Y2238D02*
X3059Y2238D01*
X3078Y2238D02*
X3087Y2238D01*
X3097Y2238D02*
X3110Y2238D01*
X3152Y2238D02*
X3160Y2238D01*
X1748Y2237D02*
X1755Y2237D01*
X2540Y2237D02*
X2547Y2237D01*
X2927Y2237D02*
X2933Y2237D01*
X2953Y2237D02*
X2959Y2237D01*
X2976Y2237D02*
X2985Y2237D01*
X2990Y2237D02*
X2999Y2237D01*
X3004Y2237D02*
X3010Y2237D01*
X3028Y2237D02*
X3035Y2237D01*
X3052Y2237D02*
X3060Y2237D01*
X3078Y2237D02*
X3085Y2237D01*
X3098Y2237D02*
X3110Y2237D01*
X3153Y2237D02*
X3160Y2237D01*
X1748Y2236D02*
X1755Y2236D01*
X2540Y2236D02*
X2547Y2236D01*
X2927Y2236D02*
X2933Y2236D01*
X2953Y2236D02*
X2960Y2236D01*
X2976Y2236D02*
X2984Y2236D01*
X2990Y2236D02*
X2998Y2236D01*
X3004Y2236D02*
X3010Y2236D01*
X3027Y2236D02*
X3034Y2236D01*
X3053Y2236D02*
X3060Y2236D01*
X3077Y2236D02*
X3084Y2236D01*
X3099Y2236D02*
X3110Y2236D01*
X3154Y2236D02*
X3160Y2236D01*
X1748Y2235D02*
X1755Y2235D01*
X2540Y2235D02*
X2547Y2235D01*
X2926Y2235D02*
X2932Y2235D01*
X2954Y2235D02*
X2960Y2235D01*
X2976Y2235D02*
X2983Y2235D01*
X2990Y2235D02*
X2997Y2235D01*
X3004Y2235D02*
X3010Y2235D01*
X3027Y2235D02*
X3033Y2235D01*
X3054Y2235D02*
X3060Y2235D01*
X3077Y2235D02*
X3084Y2235D01*
X3101Y2235D02*
X3110Y2235D01*
X3154Y2235D02*
X3160Y2235D01*
X1748Y2234D02*
X1755Y2234D01*
X2540Y2234D02*
X2547Y2234D01*
X2926Y2234D02*
X2932Y2234D01*
X2954Y2234D02*
X2960Y2234D01*
X2976Y2234D02*
X2982Y2234D01*
X2990Y2234D02*
X2996Y2234D01*
X3004Y2234D02*
X3010Y2234D01*
X3027Y2234D02*
X3033Y2234D01*
X3054Y2234D02*
X3060Y2234D01*
X3077Y2234D02*
X3083Y2234D01*
X3102Y2234D02*
X3110Y2234D01*
X3154Y2234D02*
X3160Y2234D01*
X1748Y2233D02*
X1755Y2233D01*
X2540Y2233D02*
X2547Y2233D01*
X2926Y2233D02*
X2932Y2233D01*
X2954Y2233D02*
X2960Y2233D01*
X2976Y2233D02*
X2982Y2233D01*
X2990Y2233D02*
X2996Y2233D01*
X3004Y2233D02*
X3010Y2233D01*
X3027Y2233D02*
X3033Y2233D01*
X3054Y2233D02*
X3060Y2233D01*
X3077Y2233D02*
X3083Y2233D01*
X3103Y2233D02*
X3110Y2233D01*
X3154Y2233D02*
X3160Y2233D01*
X1748Y2232D02*
X1755Y2232D01*
X2540Y2232D02*
X2547Y2232D01*
X2926Y2232D02*
X2932Y2232D01*
X2954Y2232D02*
X2960Y2232D01*
X2976Y2232D02*
X2982Y2232D01*
X2990Y2232D02*
X2996Y2232D01*
X3004Y2232D02*
X3010Y2232D01*
X3027Y2232D02*
X3033Y2232D01*
X3054Y2232D02*
X3060Y2232D01*
X3077Y2232D02*
X3083Y2232D01*
X3104Y2232D02*
X3110Y2232D01*
X3154Y2232D02*
X3160Y2232D01*
X1748Y2231D02*
X1755Y2231D01*
X2540Y2231D02*
X2547Y2231D01*
X2926Y2231D02*
X2933Y2231D01*
X2953Y2231D02*
X2960Y2231D01*
X2976Y2231D02*
X2982Y2231D01*
X2990Y2231D02*
X2996Y2231D01*
X3004Y2231D02*
X3010Y2231D01*
X3027Y2231D02*
X3033Y2231D01*
X3054Y2231D02*
X3060Y2231D01*
X3077Y2231D02*
X3083Y2231D01*
X3104Y2231D02*
X3110Y2231D01*
X3138Y2231D02*
X3150Y2231D01*
X3154Y2231D02*
X3160Y2231D01*
X1748Y2230D02*
X1755Y2230D01*
X2540Y2230D02*
X2547Y2230D01*
X2927Y2230D02*
X2933Y2230D01*
X2953Y2230D02*
X2959Y2230D01*
X2976Y2230D02*
X2982Y2230D01*
X2990Y2230D02*
X2996Y2230D01*
X3004Y2230D02*
X3010Y2230D01*
X3027Y2230D02*
X3033Y2230D01*
X3054Y2230D02*
X3060Y2230D01*
X3077Y2230D02*
X3083Y2230D01*
X3104Y2230D02*
X3110Y2230D01*
X3133Y2230D02*
X3160Y2230D01*
X1748Y2229D02*
X1755Y2229D01*
X2540Y2229D02*
X2547Y2229D01*
X2927Y2229D02*
X2933Y2229D01*
X2953Y2229D02*
X2959Y2229D01*
X2976Y2229D02*
X2982Y2229D01*
X2990Y2229D02*
X2996Y2229D01*
X3004Y2229D02*
X3010Y2229D01*
X3027Y2229D02*
X3033Y2229D01*
X3054Y2229D02*
X3060Y2229D01*
X3077Y2229D02*
X3083Y2229D01*
X3104Y2229D02*
X3110Y2229D01*
X3131Y2229D02*
X3160Y2229D01*
X1748Y2228D02*
X1755Y2228D01*
X2540Y2228D02*
X2547Y2228D01*
X2927Y2228D02*
X2934Y2228D01*
X2952Y2228D02*
X2959Y2228D01*
X2976Y2228D02*
X2982Y2228D01*
X2990Y2228D02*
X2996Y2228D01*
X3004Y2228D02*
X3010Y2228D01*
X3027Y2228D02*
X3060Y2228D01*
X3077Y2228D02*
X3083Y2228D01*
X3104Y2228D02*
X3110Y2228D01*
X3130Y2228D02*
X3160Y2228D01*
X1748Y2227D02*
X1755Y2227D01*
X2540Y2227D02*
X2547Y2227D01*
X2928Y2227D02*
X2934Y2227D01*
X2952Y2227D02*
X2958Y2227D01*
X2976Y2227D02*
X2982Y2227D01*
X2990Y2227D02*
X2996Y2227D01*
X3004Y2227D02*
X3010Y2227D01*
X3027Y2227D02*
X3060Y2227D01*
X3077Y2227D02*
X3083Y2227D01*
X3104Y2227D02*
X3110Y2227D01*
X3129Y2227D02*
X3160Y2227D01*
X1748Y2226D02*
X1755Y2226D01*
X2540Y2226D02*
X2547Y2226D01*
X2928Y2226D02*
X2935Y2226D01*
X2951Y2226D02*
X2958Y2226D01*
X2976Y2226D02*
X2982Y2226D01*
X2990Y2226D02*
X2996Y2226D01*
X3004Y2226D02*
X3010Y2226D01*
X3027Y2226D02*
X3060Y2226D01*
X3077Y2226D02*
X3083Y2226D01*
X3104Y2226D02*
X3110Y2226D01*
X3129Y2226D02*
X3160Y2226D01*
X1748Y2225D02*
X1755Y2225D01*
X2540Y2225D02*
X2547Y2225D01*
X2929Y2225D02*
X2935Y2225D01*
X2951Y2225D02*
X2958Y2225D01*
X2976Y2225D02*
X2982Y2225D01*
X2990Y2225D02*
X2996Y2225D01*
X3004Y2225D02*
X3010Y2225D01*
X3027Y2225D02*
X3060Y2225D01*
X3077Y2225D02*
X3083Y2225D01*
X3104Y2225D02*
X3110Y2225D01*
X3128Y2225D02*
X3160Y2225D01*
X1748Y2224D02*
X1755Y2224D01*
X2540Y2224D02*
X2547Y2224D01*
X2929Y2224D02*
X2936Y2224D01*
X2950Y2224D02*
X2957Y2224D01*
X2976Y2224D02*
X2982Y2224D01*
X2990Y2224D02*
X2996Y2224D01*
X3004Y2224D02*
X3010Y2224D01*
X3027Y2224D02*
X3060Y2224D01*
X3077Y2224D02*
X3083Y2224D01*
X3104Y2224D02*
X3110Y2224D01*
X3128Y2224D02*
X3160Y2224D01*
X1748Y2223D02*
X1755Y2223D01*
X2540Y2223D02*
X2547Y2223D01*
X2930Y2223D02*
X2936Y2223D01*
X2950Y2223D02*
X2957Y2223D01*
X2976Y2223D02*
X2982Y2223D01*
X2990Y2223D02*
X2996Y2223D01*
X3004Y2223D02*
X3010Y2223D01*
X3027Y2223D02*
X3060Y2223D01*
X3077Y2223D02*
X3083Y2223D01*
X3104Y2223D02*
X3110Y2223D01*
X3127Y2223D02*
X3134Y2223D01*
X3153Y2223D02*
X3160Y2223D01*
X1748Y2222D02*
X1755Y2222D01*
X2540Y2222D02*
X2547Y2222D01*
X2930Y2222D02*
X2937Y2222D01*
X2949Y2222D02*
X2956Y2222D01*
X2976Y2222D02*
X2982Y2222D01*
X2990Y2222D02*
X2996Y2222D01*
X3004Y2222D02*
X3010Y2222D01*
X3027Y2222D02*
X3059Y2222D01*
X3077Y2222D02*
X3083Y2222D01*
X3103Y2222D02*
X3110Y2222D01*
X3127Y2222D02*
X3133Y2222D01*
X3154Y2222D02*
X3160Y2222D01*
X1748Y2221D02*
X1755Y2221D01*
X2540Y2221D02*
X2547Y2221D01*
X2931Y2221D02*
X2937Y2221D01*
X2949Y2221D02*
X2956Y2221D01*
X2976Y2221D02*
X2982Y2221D01*
X2990Y2221D02*
X2996Y2221D01*
X3004Y2221D02*
X3010Y2221D01*
X3027Y2221D02*
X3056Y2221D01*
X3077Y2221D02*
X3083Y2221D01*
X3102Y2221D02*
X3110Y2221D01*
X3127Y2221D02*
X3133Y2221D01*
X3154Y2221D02*
X3160Y2221D01*
X1748Y2220D02*
X1755Y2220D01*
X2540Y2220D02*
X2547Y2220D01*
X2931Y2220D02*
X2938Y2220D01*
X2948Y2220D02*
X2955Y2220D01*
X2976Y2220D02*
X2982Y2220D01*
X2990Y2220D02*
X2996Y2220D01*
X3004Y2220D02*
X3010Y2220D01*
X3027Y2220D02*
X3033Y2220D01*
X3077Y2220D02*
X3083Y2220D01*
X3101Y2220D02*
X3110Y2220D01*
X3127Y2220D02*
X3133Y2220D01*
X3154Y2220D02*
X3160Y2220D01*
X1748Y2219D02*
X1755Y2219D01*
X2540Y2219D02*
X2547Y2219D01*
X2932Y2219D02*
X2938Y2219D01*
X2948Y2219D02*
X2955Y2219D01*
X2976Y2219D02*
X2982Y2219D01*
X2990Y2219D02*
X2996Y2219D01*
X3004Y2219D02*
X3010Y2219D01*
X3027Y2219D02*
X3033Y2219D01*
X3077Y2219D02*
X3084Y2219D01*
X3100Y2219D02*
X3110Y2219D01*
X3127Y2219D02*
X3133Y2219D01*
X3154Y2219D02*
X3160Y2219D01*
X1748Y2218D02*
X1755Y2218D01*
X2540Y2218D02*
X2547Y2218D01*
X2932Y2218D02*
X2939Y2218D01*
X2947Y2218D02*
X2954Y2218D01*
X2976Y2218D02*
X2982Y2218D01*
X2990Y2218D02*
X2996Y2218D01*
X3004Y2218D02*
X3010Y2218D01*
X3027Y2218D02*
X3033Y2218D01*
X3078Y2218D02*
X3085Y2218D01*
X3098Y2218D02*
X3110Y2218D01*
X3127Y2218D02*
X3133Y2218D01*
X3154Y2218D02*
X3160Y2218D01*
X1748Y2217D02*
X1755Y2217D01*
X2540Y2217D02*
X2547Y2217D01*
X2933Y2217D02*
X2939Y2217D01*
X2947Y2217D02*
X2954Y2217D01*
X2976Y2217D02*
X2982Y2217D01*
X2990Y2217D02*
X2996Y2217D01*
X3004Y2217D02*
X3010Y2217D01*
X3027Y2217D02*
X3033Y2217D01*
X3078Y2217D02*
X3086Y2217D01*
X3097Y2217D02*
X3110Y2217D01*
X3127Y2217D02*
X3133Y2217D01*
X3153Y2217D02*
X3160Y2217D01*
X1748Y2216D02*
X1755Y2216D01*
X2540Y2216D02*
X2547Y2216D01*
X2933Y2216D02*
X2940Y2216D01*
X2946Y2216D02*
X2953Y2216D01*
X2976Y2216D02*
X2982Y2216D01*
X2990Y2216D02*
X2996Y2216D01*
X3004Y2216D02*
X3010Y2216D01*
X3027Y2216D02*
X3034Y2216D01*
X3079Y2216D02*
X3110Y2216D01*
X3127Y2216D02*
X3133Y2216D01*
X3151Y2216D02*
X3160Y2216D01*
X1748Y2215D02*
X1755Y2215D01*
X2540Y2215D02*
X2547Y2215D01*
X2934Y2215D02*
X2940Y2215D01*
X2946Y2215D02*
X2953Y2215D01*
X2976Y2215D02*
X2982Y2215D01*
X2990Y2215D02*
X2996Y2215D01*
X3004Y2215D02*
X3010Y2215D01*
X3027Y2215D02*
X3035Y2215D01*
X3079Y2215D02*
X3110Y2215D01*
X3127Y2215D02*
X3134Y2215D01*
X3150Y2215D02*
X3160Y2215D01*
X1748Y2214D02*
X1755Y2214D01*
X2540Y2214D02*
X2547Y2214D01*
X2934Y2214D02*
X2941Y2214D01*
X2945Y2214D02*
X2952Y2214D01*
X2976Y2214D02*
X2982Y2214D01*
X2990Y2214D02*
X2996Y2214D01*
X3004Y2214D02*
X3010Y2214D01*
X3028Y2214D02*
X3037Y2214D01*
X3080Y2214D02*
X3110Y2214D01*
X3127Y2214D02*
X3135Y2214D01*
X3148Y2214D02*
X3160Y2214D01*
X1748Y2213D02*
X1755Y2213D01*
X2540Y2213D02*
X2547Y2213D01*
X2935Y2213D02*
X2952Y2213D01*
X2976Y2213D02*
X2982Y2213D01*
X2990Y2213D02*
X2996Y2213D01*
X3004Y2213D02*
X3010Y2213D01*
X3028Y2213D02*
X3058Y2213D01*
X3082Y2213D02*
X3102Y2213D01*
X3104Y2213D02*
X3110Y2213D01*
X3128Y2213D02*
X3160Y2213D01*
X1748Y2212D02*
X1755Y2212D01*
X2540Y2212D02*
X2547Y2212D01*
X2935Y2212D02*
X2951Y2212D01*
X2976Y2212D02*
X2982Y2212D01*
X2990Y2212D02*
X2996Y2212D01*
X3004Y2212D02*
X3010Y2212D01*
X3029Y2212D02*
X3059Y2212D01*
X3083Y2212D02*
X3101Y2212D01*
X3104Y2212D02*
X3110Y2212D01*
X3128Y2212D02*
X3160Y2212D01*
X1748Y2211D02*
X1755Y2211D01*
X2540Y2211D02*
X2547Y2211D01*
X2936Y2211D02*
X2951Y2211D01*
X2976Y2211D02*
X2982Y2211D01*
X2990Y2211D02*
X2996Y2211D01*
X3004Y2211D02*
X3010Y2211D01*
X3030Y2211D02*
X3060Y2211D01*
X3084Y2211D02*
X3100Y2211D01*
X3104Y2211D02*
X3110Y2211D01*
X3129Y2211D02*
X3160Y2211D01*
X1748Y2210D02*
X1755Y2210D01*
X2540Y2210D02*
X2547Y2210D01*
X2936Y2210D02*
X2950Y2210D01*
X2976Y2210D02*
X2982Y2210D01*
X2990Y2210D02*
X2996Y2210D01*
X3004Y2210D02*
X3010Y2210D01*
X3031Y2210D02*
X3060Y2210D01*
X3086Y2210D02*
X3098Y2210D01*
X3104Y2210D02*
X3110Y2210D01*
X3130Y2210D02*
X3160Y2210D01*
X1748Y2209D02*
X1755Y2209D01*
X2540Y2209D02*
X2547Y2209D01*
X2937Y2209D02*
X2949Y2209D01*
X2976Y2209D02*
X2982Y2209D01*
X2990Y2209D02*
X2996Y2209D01*
X3004Y2209D02*
X3010Y2209D01*
X3032Y2209D02*
X3060Y2209D01*
X3104Y2209D02*
X3110Y2209D01*
X3131Y2209D02*
X3152Y2209D01*
X3155Y2209D02*
X3160Y2209D01*
X1748Y2208D02*
X1755Y2208D01*
X2540Y2208D02*
X2547Y2208D01*
X2938Y2208D02*
X2948Y2208D01*
X2976Y2208D02*
X2981Y2208D01*
X2991Y2208D02*
X2996Y2208D01*
X3005Y2208D02*
X3009Y2208D01*
X3034Y2208D02*
X3060Y2208D01*
X3104Y2208D02*
X3110Y2208D01*
X3132Y2208D02*
X3151Y2208D01*
X3155Y2208D02*
X3160Y2208D01*
X1748Y2207D02*
X1755Y2207D01*
X2540Y2207D02*
X2547Y2207D01*
X2940Y2207D02*
X2946Y2207D01*
X2977Y2207D02*
X2980Y2207D01*
X2992Y2207D02*
X2995Y2207D01*
X3006Y2207D02*
X3009Y2207D01*
X3036Y2207D02*
X3059Y2207D01*
X3104Y2207D02*
X3110Y2207D01*
X3134Y2207D02*
X3149Y2207D01*
X3156Y2207D02*
X3159Y2207D01*
X1748Y2206D02*
X1755Y2206D01*
X2540Y2206D02*
X2547Y2206D01*
X3104Y2206D02*
X3110Y2206D01*
X1748Y2205D02*
X1755Y2205D01*
X2540Y2205D02*
X2547Y2205D01*
X3104Y2205D02*
X3110Y2205D01*
X1748Y2204D02*
X1755Y2204D01*
X2540Y2204D02*
X2547Y2204D01*
X3104Y2204D02*
X3110Y2204D01*
X1748Y2203D02*
X1755Y2203D01*
X2540Y2203D02*
X2547Y2203D01*
X3104Y2203D02*
X3110Y2203D01*
X1748Y2202D02*
X1755Y2202D01*
X2540Y2202D02*
X2547Y2202D01*
X3104Y2202D02*
X3110Y2202D01*
X1748Y2201D02*
X1755Y2201D01*
X2540Y2201D02*
X2547Y2201D01*
X3103Y2201D02*
X3110Y2201D01*
X1748Y2200D02*
X1755Y2200D01*
X2540Y2200D02*
X2547Y2200D01*
X3101Y2200D02*
X3110Y2200D01*
X1748Y2199D02*
X1755Y2199D01*
X2540Y2199D02*
X2547Y2199D01*
X3100Y2199D02*
X3109Y2199D01*
X1748Y2198D02*
X1755Y2198D01*
X2540Y2198D02*
X2547Y2198D01*
X3082Y2198D02*
X3108Y2198D01*
X1748Y2197D02*
X1755Y2197D01*
X2540Y2197D02*
X2547Y2197D01*
X3081Y2197D02*
X3107Y2197D01*
X1748Y2196D02*
X1755Y2196D01*
X2540Y2196D02*
X2547Y2196D01*
X3080Y2196D02*
X3106Y2196D01*
X1748Y2195D02*
X1755Y2195D01*
X2540Y2195D02*
X2547Y2195D01*
X3080Y2195D02*
X3105Y2195D01*
X1748Y2194D02*
X1755Y2194D01*
X2540Y2194D02*
X2547Y2194D01*
X3081Y2194D02*
X3104Y2194D01*
X1748Y2193D02*
X1755Y2193D01*
X2540Y2193D02*
X2547Y2193D01*
X3081Y2193D02*
X3103Y2193D01*
X1748Y2192D02*
X1755Y2192D01*
X2540Y2192D02*
X2547Y2192D01*
X3082Y2192D02*
X3100Y2192D01*
X1748Y2191D02*
X1755Y2191D01*
X2540Y2191D02*
X2547Y2191D01*
X1748Y2190D02*
X1755Y2190D01*
X2540Y2190D02*
X2547Y2190D01*
X1748Y2189D02*
X1755Y2189D01*
X2540Y2189D02*
X2547Y2189D01*
X1748Y2188D02*
X1755Y2188D01*
X2540Y2188D02*
X2547Y2188D01*
X1748Y2187D02*
X1755Y2187D01*
X2540Y2187D02*
X2547Y2187D01*
X1748Y2186D02*
X1755Y2186D01*
X2540Y2186D02*
X2547Y2186D01*
X1748Y2185D02*
X1755Y2185D01*
X2540Y2185D02*
X2547Y2185D01*
X1748Y2184D02*
X1755Y2184D01*
X2540Y2184D02*
X2547Y2184D01*
X1748Y2183D02*
X1755Y2183D01*
X2540Y2183D02*
X2547Y2183D01*
X1748Y2182D02*
X1755Y2182D01*
X2540Y2182D02*
X2547Y2182D01*
X1748Y2181D02*
X1755Y2181D01*
X2540Y2181D02*
X2547Y2181D01*
X1748Y2180D02*
X1755Y2180D01*
X2540Y2180D02*
X2547Y2180D01*
X1748Y2179D02*
X1755Y2179D01*
X2540Y2179D02*
X2547Y2179D01*
X1748Y2178D02*
X1755Y2178D01*
X2540Y2178D02*
X2547Y2178D01*
X1748Y2177D02*
X1755Y2177D01*
X2540Y2177D02*
X2547Y2177D01*
X1748Y2176D02*
X1755Y2176D01*
X2540Y2176D02*
X2547Y2176D01*
X1748Y2175D02*
X1755Y2175D01*
X2540Y2175D02*
X2547Y2175D01*
X1748Y2174D02*
X1755Y2174D01*
X2540Y2174D02*
X2547Y2174D01*
X1748Y2173D02*
X1755Y2173D01*
X2540Y2173D02*
X2547Y2173D01*
X1748Y2172D02*
X1755Y2172D01*
X2540Y2172D02*
X2547Y2172D01*
X1748Y2171D02*
X1755Y2171D01*
X2540Y2171D02*
X2547Y2171D01*
X1748Y2170D02*
X1755Y2170D01*
X2540Y2170D02*
X2547Y2170D01*
X1748Y2169D02*
X1755Y2169D01*
X2540Y2169D02*
X2547Y2169D01*
X1748Y2168D02*
X1755Y2168D01*
X2540Y2168D02*
X2547Y2168D01*
X1748Y2167D02*
X1755Y2167D01*
X2540Y2167D02*
X2547Y2167D01*
X1748Y2166D02*
X1755Y2166D01*
X2540Y2166D02*
X2547Y2166D01*
X1748Y2165D02*
X1755Y2165D01*
X2540Y2165D02*
X2547Y2165D01*
X1748Y2164D02*
X1755Y2164D01*
X2540Y2164D02*
X2547Y2164D01*
X1748Y2163D02*
X1755Y2163D01*
X2540Y2163D02*
X2547Y2163D01*
X1748Y2162D02*
X1755Y2162D01*
X2540Y2162D02*
X2547Y2162D01*
X1748Y2161D02*
X1755Y2161D01*
X2540Y2161D02*
X2547Y2161D01*
X1748Y2160D02*
X1755Y2160D01*
X2540Y2160D02*
X2547Y2160D01*
X1748Y2159D02*
X1755Y2159D01*
X2540Y2159D02*
X2547Y2159D01*
X1748Y2158D02*
X1755Y2158D01*
X2540Y2158D02*
X2547Y2158D01*
X1748Y2157D02*
X1755Y2157D01*
X2540Y2157D02*
X2547Y2157D01*
X1748Y2156D02*
X1755Y2156D01*
X2540Y2156D02*
X2547Y2156D01*
X1748Y2155D02*
X1755Y2155D01*
X2540Y2155D02*
X2547Y2155D01*
X1748Y2154D02*
X1755Y2154D01*
X2540Y2154D02*
X2547Y2154D01*
X1748Y2153D02*
X1755Y2153D01*
X2540Y2153D02*
X2547Y2153D01*
X1748Y2152D02*
X1755Y2152D01*
X2540Y2152D02*
X2547Y2152D01*
X1748Y2151D02*
X1755Y2151D01*
X2540Y2151D02*
X2547Y2151D01*
X1748Y2150D02*
X1755Y2150D01*
X2540Y2150D02*
X2547Y2150D01*
X1748Y2149D02*
X1755Y2149D01*
X2540Y2149D02*
X2547Y2149D01*
X1748Y2148D02*
X1755Y2148D01*
X2540Y2148D02*
X2547Y2148D01*
X1748Y2147D02*
X1755Y2147D01*
X2540Y2147D02*
X2547Y2147D01*
X1748Y2146D02*
X1755Y2146D01*
X2540Y2146D02*
X2547Y2146D01*
X1748Y2145D02*
X1755Y2145D01*
X2540Y2145D02*
X2547Y2145D01*
X1748Y2144D02*
X1755Y2144D01*
X2540Y2144D02*
X2547Y2144D01*
X1748Y2143D02*
X1755Y2143D01*
X2540Y2143D02*
X2547Y2143D01*
X1748Y2142D02*
X1755Y2142D01*
X2540Y2142D02*
X2547Y2142D01*
X1748Y2141D02*
X1755Y2141D01*
X2540Y2141D02*
X2547Y2141D01*
X1748Y2140D02*
X1755Y2140D01*
X2540Y2140D02*
X2547Y2140D01*
X1748Y2139D02*
X1755Y2139D01*
X2540Y2139D02*
X2547Y2139D01*
X1748Y2138D02*
X1755Y2138D01*
X2540Y2138D02*
X2547Y2138D01*
X1748Y2137D02*
X1755Y2137D01*
X2540Y2137D02*
X2547Y2137D01*
X1748Y2136D02*
X1755Y2136D01*
X2540Y2136D02*
X2547Y2136D01*
X1748Y2135D02*
X1755Y2135D01*
X2540Y2135D02*
X2547Y2135D01*
X1748Y2134D02*
X1755Y2134D01*
X2540Y2134D02*
X2547Y2134D01*
X1748Y2133D02*
X1755Y2133D01*
X2540Y2133D02*
X2547Y2133D01*
X1748Y2132D02*
X1755Y2132D01*
X2540Y2132D02*
X2547Y2132D01*
X1748Y2131D02*
X1755Y2131D01*
X2540Y2131D02*
X2547Y2131D01*
X1748Y2130D02*
X1755Y2130D01*
X2540Y2130D02*
X2547Y2130D01*
X1748Y2129D02*
X1755Y2129D01*
X2540Y2129D02*
X2547Y2129D01*
X1748Y2128D02*
X1755Y2128D01*
X2540Y2128D02*
X2547Y2128D01*
X1748Y2127D02*
X1755Y2127D01*
X2540Y2127D02*
X2547Y2127D01*
X1748Y2126D02*
X1755Y2126D01*
X2540Y2126D02*
X2547Y2126D01*
X1748Y2125D02*
X1755Y2125D01*
X2540Y2125D02*
X2547Y2125D01*
X1748Y2124D02*
X1755Y2124D01*
X2540Y2124D02*
X2547Y2124D01*
X1748Y2123D02*
X1755Y2123D01*
X2540Y2123D02*
X2547Y2123D01*
X1748Y2122D02*
X1755Y2122D01*
X2540Y2122D02*
X2547Y2122D01*
X1748Y2121D02*
X1755Y2121D01*
X2540Y2121D02*
X2547Y2121D01*
X1748Y2120D02*
X1755Y2120D01*
X2540Y2120D02*
X2547Y2120D01*
X1748Y2119D02*
X1755Y2119D01*
X2540Y2119D02*
X2547Y2119D01*
X1748Y2118D02*
X1755Y2118D01*
X2540Y2118D02*
X2547Y2118D01*
X1748Y2117D02*
X1755Y2117D01*
X2540Y2117D02*
X2547Y2117D01*
X1748Y2116D02*
X1755Y2116D01*
X2540Y2116D02*
X2547Y2116D01*
X1748Y2115D02*
X1755Y2115D01*
X2540Y2115D02*
X2547Y2115D01*
X1748Y2114D02*
X1755Y2114D01*
X2540Y2114D02*
X2547Y2114D01*
X1748Y2113D02*
X1755Y2113D01*
X2540Y2113D02*
X2547Y2113D01*
X1748Y2112D02*
X1755Y2112D01*
X2540Y2112D02*
X2547Y2112D01*
X1748Y2111D02*
X1755Y2111D01*
X2540Y2111D02*
X2547Y2111D01*
X1748Y2110D02*
X1755Y2110D01*
X2540Y2110D02*
X2547Y2110D01*
X1748Y2109D02*
X1755Y2109D01*
X2540Y2109D02*
X2547Y2109D01*
X1748Y2108D02*
X1755Y2108D01*
X2540Y2108D02*
X2547Y2108D01*
X1748Y2107D02*
X1755Y2107D01*
X2540Y2107D02*
X2547Y2107D01*
X1748Y2106D02*
X1755Y2106D01*
X2540Y2106D02*
X2547Y2106D01*
X1748Y2105D02*
X1755Y2105D01*
X2540Y2105D02*
X2547Y2105D01*
X1748Y2104D02*
X1755Y2104D01*
X2540Y2104D02*
X2547Y2104D01*
X1748Y2103D02*
X1755Y2103D01*
X2540Y2103D02*
X2547Y2103D01*
X1748Y2102D02*
X1755Y2102D01*
X2540Y2102D02*
X2547Y2102D01*
X1748Y2101D02*
X1755Y2101D01*
X2540Y2101D02*
X2547Y2101D01*
X1748Y2100D02*
X1755Y2100D01*
X2540Y2100D02*
X2547Y2100D01*
X1748Y2099D02*
X1755Y2099D01*
X2540Y2099D02*
X2547Y2099D01*
X1748Y2098D02*
X1755Y2098D01*
X2540Y2098D02*
X2547Y2098D01*
X1748Y2097D02*
X1755Y2097D01*
X2540Y2097D02*
X2547Y2097D01*
X1748Y2096D02*
X1755Y2096D01*
X2540Y2096D02*
X2547Y2096D01*
X1748Y2095D02*
X1755Y2095D01*
X2540Y2095D02*
X2547Y2095D01*
X1748Y2094D02*
X1755Y2094D01*
X2540Y2094D02*
X2547Y2094D01*
X1748Y2093D02*
X1755Y2093D01*
X2540Y2093D02*
X2547Y2093D01*
X1748Y2092D02*
X1755Y2092D01*
X2540Y2092D02*
X2547Y2092D01*
X1748Y2091D02*
X1755Y2091D01*
X2540Y2091D02*
X2547Y2091D01*
X1748Y2090D02*
X1755Y2090D01*
X2540Y2090D02*
X2547Y2090D01*
X1748Y2089D02*
X1755Y2089D01*
X2540Y2089D02*
X2547Y2089D01*
X1748Y2088D02*
X1755Y2088D01*
X2540Y2088D02*
X2547Y2088D01*
X1748Y2087D02*
X1755Y2087D01*
X2540Y2087D02*
X2547Y2087D01*
X1748Y2086D02*
X1755Y2086D01*
X2540Y2086D02*
X2547Y2086D01*
X1748Y2085D02*
X1755Y2085D01*
X2540Y2085D02*
X2547Y2085D01*
X1748Y2084D02*
X1755Y2084D01*
X2540Y2084D02*
X2547Y2084D01*
X1748Y2083D02*
X1755Y2083D01*
X2540Y2083D02*
X2547Y2083D01*
X1748Y2082D02*
X1755Y2082D01*
X2540Y2082D02*
X2547Y2082D01*
X1748Y2081D02*
X1755Y2081D01*
X2540Y2081D02*
X2547Y2081D01*
X1748Y2080D02*
X1755Y2080D01*
X2540Y2080D02*
X2547Y2080D01*
X1748Y2079D02*
X1755Y2079D01*
X2540Y2079D02*
X2547Y2079D01*
X1748Y2078D02*
X1755Y2078D01*
X2540Y2078D02*
X2547Y2078D01*
X1748Y2077D02*
X1755Y2077D01*
X2540Y2077D02*
X2547Y2077D01*
X1748Y2076D02*
X1755Y2076D01*
X2540Y2076D02*
X2547Y2076D01*
X1748Y2075D02*
X1755Y2075D01*
X2540Y2075D02*
X2547Y2075D01*
X1748Y2074D02*
X1755Y2074D01*
X2540Y2074D02*
X2547Y2074D01*
X1748Y2073D02*
X1755Y2073D01*
X2540Y2073D02*
X2547Y2073D01*
X1748Y2072D02*
X1755Y2072D01*
X2540Y2072D02*
X2547Y2072D01*
X1748Y2071D02*
X1755Y2071D01*
X2540Y2071D02*
X2547Y2071D01*
X1748Y2070D02*
X1755Y2070D01*
X2540Y2070D02*
X2547Y2070D01*
X1748Y2069D02*
X1755Y2069D01*
X2540Y2069D02*
X2547Y2069D01*
X1748Y2068D02*
X1755Y2068D01*
X2540Y2068D02*
X2547Y2068D01*
X1748Y2067D02*
X1755Y2067D01*
X2540Y2067D02*
X2547Y2067D01*
X1748Y2066D02*
X1755Y2066D01*
X2540Y2066D02*
X2547Y2066D01*
X1748Y2065D02*
X1755Y2065D01*
X2540Y2065D02*
X2547Y2065D01*
X1748Y2064D02*
X1755Y2064D01*
X2540Y2064D02*
X2547Y2064D01*
X1748Y2063D02*
X1755Y2063D01*
X2540Y2063D02*
X2547Y2063D01*
X1748Y2062D02*
X1755Y2062D01*
X2540Y2062D02*
X2547Y2062D01*
X1748Y2061D02*
X1755Y2061D01*
X2540Y2061D02*
X2547Y2061D01*
X1748Y2060D02*
X1755Y2060D01*
X2540Y2060D02*
X2547Y2060D01*
X1748Y2059D02*
X1755Y2059D01*
X2540Y2059D02*
X2547Y2059D01*
X1748Y2058D02*
X1755Y2058D01*
X2540Y2058D02*
X2547Y2058D01*
X1748Y2057D02*
X1755Y2057D01*
X2540Y2057D02*
X2547Y2057D01*
X1748Y2056D02*
X1755Y2056D01*
X2540Y2056D02*
X2547Y2056D01*
X1748Y2055D02*
X1755Y2055D01*
X2540Y2055D02*
X2547Y2055D01*
X1748Y2054D02*
X1755Y2054D01*
X2540Y2054D02*
X2547Y2054D01*
X1748Y2053D02*
X1755Y2053D01*
X2540Y2053D02*
X2547Y2053D01*
X1748Y2052D02*
X1755Y2052D01*
X2540Y2052D02*
X2547Y2052D01*
X1748Y2051D02*
X1755Y2051D01*
X2540Y2051D02*
X2547Y2051D01*
X1748Y2050D02*
X1755Y2050D01*
X2540Y2050D02*
X2547Y2050D01*
X1748Y2049D02*
X1755Y2049D01*
X2540Y2049D02*
X2547Y2049D01*
X1748Y2048D02*
X1755Y2048D01*
X2540Y2048D02*
X2547Y2048D01*
X1748Y2047D02*
X1755Y2047D01*
X2540Y2047D02*
X2547Y2047D01*
X1748Y2046D02*
X1755Y2046D01*
X2540Y2046D02*
X2547Y2046D01*
X1748Y2045D02*
X1755Y2045D01*
X2540Y2045D02*
X2547Y2045D01*
X1748Y2044D02*
X1755Y2044D01*
X2540Y2044D02*
X2547Y2044D01*
X1748Y2043D02*
X1755Y2043D01*
X2540Y2043D02*
X2547Y2043D01*
X1748Y2042D02*
X1755Y2042D01*
X2540Y2042D02*
X2547Y2042D01*
X1748Y2041D02*
X1755Y2041D01*
X2540Y2041D02*
X2547Y2041D01*
X1748Y2040D02*
X1755Y2040D01*
X2540Y2040D02*
X2547Y2040D01*
X1748Y2039D02*
X1755Y2039D01*
X2540Y2039D02*
X2547Y2039D01*
X1748Y2038D02*
X1755Y2038D01*
X2540Y2038D02*
X2547Y2038D01*
X1748Y2037D02*
X1755Y2037D01*
X2540Y2037D02*
X2547Y2037D01*
X1748Y2036D02*
X1755Y2036D01*
X2540Y2036D02*
X2547Y2036D01*
X1748Y2035D02*
X1755Y2035D01*
X2540Y2035D02*
X2547Y2035D01*
X1748Y2034D02*
X1755Y2034D01*
X2540Y2034D02*
X2547Y2034D01*
X1748Y2033D02*
X1755Y2033D01*
X2540Y2033D02*
X2547Y2033D01*
X1748Y2032D02*
X1755Y2032D01*
X2540Y2032D02*
X2547Y2032D01*
X1748Y2031D02*
X1755Y2031D01*
X2540Y2031D02*
X2547Y2031D01*
X1748Y2030D02*
X1755Y2030D01*
X2540Y2030D02*
X2547Y2030D01*
X1748Y2029D02*
X1755Y2029D01*
X2540Y2029D02*
X2547Y2029D01*
X1748Y2028D02*
X1755Y2028D01*
X2540Y2028D02*
X2547Y2028D01*
X1748Y2027D02*
X1755Y2027D01*
X2540Y2027D02*
X2547Y2027D01*
X1748Y2026D02*
X1755Y2026D01*
X2540Y2026D02*
X2547Y2026D01*
X1748Y2025D02*
X1755Y2025D01*
X2540Y2025D02*
X2547Y2025D01*
X1748Y2024D02*
X1755Y2024D01*
X2540Y2024D02*
X2547Y2024D01*
X1748Y2023D02*
X1755Y2023D01*
X2540Y2023D02*
X2547Y2023D01*
X1748Y2022D02*
X1755Y2022D01*
X2540Y2022D02*
X2547Y2022D01*
X1748Y2021D02*
X1755Y2021D01*
X2540Y2021D02*
X2547Y2021D01*
X1748Y2020D02*
X1755Y2020D01*
X2540Y2020D02*
X2547Y2020D01*
X1748Y2019D02*
X1755Y2019D01*
X2540Y2019D02*
X2547Y2019D01*
X1748Y2018D02*
X1755Y2018D01*
X2540Y2018D02*
X2547Y2018D01*
X1748Y2017D02*
X1755Y2017D01*
X2540Y2017D02*
X2547Y2017D01*
X1748Y2016D02*
X1755Y2016D01*
X2540Y2016D02*
X2547Y2016D01*
X1748Y2015D02*
X1755Y2015D01*
X2540Y2015D02*
X2547Y2015D01*
X1748Y2014D02*
X1755Y2014D01*
X2540Y2014D02*
X2547Y2014D01*
X1748Y2013D02*
X1755Y2013D01*
X2540Y2013D02*
X2547Y2013D01*
X1748Y2012D02*
X1755Y2012D01*
X2540Y2012D02*
X2547Y2012D01*
X1748Y2011D02*
X1755Y2011D01*
X2540Y2011D02*
X2547Y2011D01*
X1748Y2010D02*
X1755Y2010D01*
X2540Y2010D02*
X2547Y2010D01*
X1748Y2009D02*
X1755Y2009D01*
X2540Y2009D02*
X2547Y2009D01*
X1748Y2008D02*
X1755Y2008D01*
X2540Y2008D02*
X2547Y2008D01*
X1748Y2007D02*
X1755Y2007D01*
X2540Y2007D02*
X2547Y2007D01*
X1748Y2006D02*
X1755Y2006D01*
X2540Y2006D02*
X2547Y2006D01*
X1748Y2005D02*
X1755Y2005D01*
X2540Y2005D02*
X2547Y2005D01*
X1748Y2004D02*
X1755Y2004D01*
X2540Y2004D02*
X2547Y2004D01*
X1748Y2003D02*
X1755Y2003D01*
X2540Y2003D02*
X2547Y2003D01*
X1748Y2002D02*
X1755Y2002D01*
X2540Y2002D02*
X2547Y2002D01*
X1748Y2001D02*
X1755Y2001D01*
X2540Y2001D02*
X2547Y2001D01*
X1748Y2000D02*
X1755Y2000D01*
X2540Y2000D02*
X2547Y2000D01*
X1748Y1999D02*
X1755Y1999D01*
X2540Y1999D02*
X2547Y1999D01*
X1748Y1998D02*
X1755Y1998D01*
X2540Y1998D02*
X2547Y1998D01*
X1748Y1997D02*
X1755Y1997D01*
X2540Y1997D02*
X2547Y1997D01*
X1748Y1996D02*
X1755Y1996D01*
X2540Y1996D02*
X2547Y1996D01*
X1748Y1995D02*
X1755Y1995D01*
X2540Y1995D02*
X2547Y1995D01*
X1748Y1994D02*
X1755Y1994D01*
X2540Y1994D02*
X2547Y1994D01*
X1748Y1993D02*
X1755Y1993D01*
X2540Y1993D02*
X2547Y1993D01*
X1748Y1992D02*
X1755Y1992D01*
X2540Y1992D02*
X2547Y1992D01*
X1748Y1991D02*
X1755Y1991D01*
X2540Y1991D02*
X2547Y1991D01*
X1748Y1990D02*
X1755Y1990D01*
X2540Y1990D02*
X2547Y1990D01*
X1748Y1989D02*
X1755Y1989D01*
X2540Y1989D02*
X2547Y1989D01*
X1748Y1988D02*
X1755Y1988D01*
X2540Y1988D02*
X2547Y1988D01*
X1748Y1987D02*
X1755Y1987D01*
X2540Y1987D02*
X2547Y1987D01*
X1748Y1986D02*
X1755Y1986D01*
X2540Y1986D02*
X2547Y1986D01*
X1748Y1985D02*
X1755Y1985D01*
X2540Y1985D02*
X2547Y1985D01*
X1748Y1984D02*
X1755Y1984D01*
X2540Y1984D02*
X2547Y1984D01*
X1748Y1983D02*
X1755Y1983D01*
X2540Y1983D02*
X2547Y1983D01*
X1748Y1982D02*
X1755Y1982D01*
X2540Y1982D02*
X2547Y1982D01*
X1748Y1981D02*
X1755Y1981D01*
X2540Y1981D02*
X2547Y1981D01*
X1748Y1980D02*
X1755Y1980D01*
X2540Y1980D02*
X2547Y1980D01*
X1748Y1979D02*
X1755Y1979D01*
X2540Y1979D02*
X2547Y1979D01*
X1748Y1978D02*
X1755Y1978D01*
X2540Y1978D02*
X2547Y1978D01*
X1748Y1977D02*
X1755Y1977D01*
X2540Y1977D02*
X2547Y1977D01*
X1748Y1976D02*
X1755Y1976D01*
X2540Y1976D02*
X2547Y1976D01*
X1748Y1975D02*
X1755Y1975D01*
X2540Y1975D02*
X2547Y1975D01*
X1748Y1974D02*
X1755Y1974D01*
X2540Y1974D02*
X2547Y1974D01*
X1748Y1973D02*
X1755Y1973D01*
X2540Y1973D02*
X2547Y1973D01*
X1748Y1972D02*
X1755Y1972D01*
X2540Y1972D02*
X2547Y1972D01*
X1748Y1971D02*
X1755Y1971D01*
X2540Y1971D02*
X2547Y1971D01*
X1748Y1970D02*
X1755Y1970D01*
X2540Y1970D02*
X2547Y1970D01*
X1748Y1969D02*
X1755Y1969D01*
X2540Y1969D02*
X2547Y1969D01*
X1748Y1968D02*
X1755Y1968D01*
X2540Y1968D02*
X2547Y1968D01*
X1748Y1967D02*
X1755Y1967D01*
X2540Y1967D02*
X2547Y1967D01*
X1748Y1966D02*
X1755Y1966D01*
X2540Y1966D02*
X2547Y1966D01*
X1748Y1965D02*
X1755Y1965D01*
X2540Y1965D02*
X2547Y1965D01*
X1748Y1964D02*
X1755Y1964D01*
X2540Y1964D02*
X2547Y1964D01*
X1748Y1963D02*
X1755Y1963D01*
X2540Y1963D02*
X2547Y1963D01*
X1748Y1962D02*
X1755Y1962D01*
X2540Y1962D02*
X2547Y1962D01*
X1748Y1961D02*
X1755Y1961D01*
X2540Y1961D02*
X2547Y1961D01*
X1748Y1960D02*
X1755Y1960D01*
X2540Y1960D02*
X2547Y1960D01*
X2926Y1960D02*
X2953Y1960D01*
X3032Y1960D02*
X3045Y1960D01*
X1748Y1959D02*
X1755Y1959D01*
X2540Y1959D02*
X2547Y1959D01*
X2926Y1959D02*
X2955Y1959D01*
X3031Y1959D02*
X3046Y1959D01*
X1748Y1958D02*
X1755Y1958D01*
X2540Y1958D02*
X2547Y1958D01*
X2926Y1958D02*
X2956Y1958D01*
X3030Y1958D02*
X3046Y1958D01*
X1748Y1957D02*
X1755Y1957D01*
X2540Y1957D02*
X2547Y1957D01*
X2926Y1957D02*
X2957Y1957D01*
X3030Y1957D02*
X3046Y1957D01*
X1748Y1956D02*
X1755Y1956D01*
X2540Y1956D02*
X2547Y1956D01*
X2926Y1956D02*
X2958Y1956D01*
X3030Y1956D02*
X3046Y1956D01*
X1748Y1955D02*
X1755Y1955D01*
X2540Y1955D02*
X2547Y1955D01*
X2926Y1955D02*
X2959Y1955D01*
X3031Y1955D02*
X3046Y1955D01*
X1748Y1954D02*
X1755Y1954D01*
X2540Y1954D02*
X2547Y1954D01*
X2926Y1954D02*
X2959Y1954D01*
X3032Y1954D02*
X3046Y1954D01*
X1748Y1953D02*
X1755Y1953D01*
X2540Y1953D02*
X2547Y1953D01*
X2926Y1953D02*
X2932Y1953D01*
X2952Y1953D02*
X2959Y1953D01*
X3040Y1953D02*
X3046Y1953D01*
X1748Y1952D02*
X1755Y1952D01*
X2540Y1952D02*
X2547Y1952D01*
X2926Y1952D02*
X2932Y1952D01*
X2953Y1952D02*
X2960Y1952D01*
X3040Y1952D02*
X3046Y1952D01*
X1748Y1951D02*
X1755Y1951D01*
X2540Y1951D02*
X2547Y1951D01*
X2926Y1951D02*
X2932Y1951D01*
X2954Y1951D02*
X2960Y1951D01*
X3040Y1951D02*
X3046Y1951D01*
X1748Y1950D02*
X1755Y1950D01*
X2540Y1950D02*
X2547Y1950D01*
X2926Y1950D02*
X2932Y1950D01*
X2954Y1950D02*
X2960Y1950D01*
X3040Y1950D02*
X3046Y1950D01*
X1748Y1949D02*
X1755Y1949D01*
X2540Y1949D02*
X2547Y1949D01*
X2926Y1949D02*
X2932Y1949D01*
X2954Y1949D02*
X2960Y1949D01*
X3040Y1949D02*
X3046Y1949D01*
X1748Y1948D02*
X1755Y1948D01*
X2540Y1948D02*
X2547Y1948D01*
X2926Y1948D02*
X2932Y1948D01*
X2954Y1948D02*
X2960Y1948D01*
X3040Y1948D02*
X3046Y1948D01*
X1748Y1947D02*
X1755Y1947D01*
X2540Y1947D02*
X2547Y1947D01*
X2926Y1947D02*
X2932Y1947D01*
X2954Y1947D02*
X2960Y1947D01*
X3040Y1947D02*
X3046Y1947D01*
X1748Y1946D02*
X1755Y1946D01*
X2540Y1946D02*
X2547Y1946D01*
X2926Y1946D02*
X2932Y1946D01*
X2954Y1946D02*
X2960Y1946D01*
X3040Y1946D02*
X3046Y1946D01*
X1748Y1945D02*
X1755Y1945D01*
X2540Y1945D02*
X2547Y1945D01*
X2926Y1945D02*
X2932Y1945D01*
X2953Y1945D02*
X2960Y1945D01*
X2985Y1945D02*
X3001Y1945D01*
X3040Y1945D02*
X3046Y1945D01*
X3086Y1945D02*
X3102Y1945D01*
X3129Y1945D02*
X3132Y1945D01*
X3155Y1945D02*
X3159Y1945D01*
X1748Y1944D02*
X1755Y1944D01*
X2540Y1944D02*
X2547Y1944D01*
X2926Y1944D02*
X2932Y1944D01*
X2953Y1944D02*
X2960Y1944D01*
X2984Y1944D02*
X3003Y1944D01*
X3040Y1944D02*
X3046Y1944D01*
X3084Y1944D02*
X3103Y1944D01*
X3128Y1944D02*
X3133Y1944D01*
X3154Y1944D02*
X3159Y1944D01*
X1748Y1943D02*
X1755Y1943D01*
X2540Y1943D02*
X2547Y1943D01*
X2926Y1943D02*
X2933Y1943D01*
X2951Y1943D02*
X2959Y1943D01*
X2982Y1943D02*
X3004Y1943D01*
X3040Y1943D02*
X3046Y1943D01*
X3083Y1943D02*
X3105Y1943D01*
X3128Y1943D02*
X3134Y1943D01*
X3153Y1943D02*
X3160Y1943D01*
X1748Y1942D02*
X1755Y1942D01*
X2540Y1942D02*
X2547Y1942D01*
X2926Y1942D02*
X2959Y1942D01*
X2981Y1942D02*
X3005Y1942D01*
X3040Y1942D02*
X3046Y1942D01*
X3082Y1942D02*
X3106Y1942D01*
X3128Y1942D02*
X3135Y1942D01*
X3153Y1942D02*
X3160Y1942D01*
X1748Y1941D02*
X1755Y1941D01*
X2540Y1941D02*
X2547Y1941D01*
X2926Y1941D02*
X2958Y1941D01*
X2980Y1941D02*
X3007Y1941D01*
X3040Y1941D02*
X3046Y1941D01*
X3080Y1941D02*
X3107Y1941D01*
X3128Y1941D02*
X3136Y1941D01*
X3152Y1941D02*
X3160Y1941D01*
X1748Y1940D02*
X1755Y1940D01*
X2540Y1940D02*
X2547Y1940D01*
X2926Y1940D02*
X2958Y1940D01*
X2979Y1940D02*
X3007Y1940D01*
X3040Y1940D02*
X3046Y1940D01*
X3079Y1940D02*
X3108Y1940D01*
X3129Y1940D02*
X3137Y1940D01*
X3151Y1940D02*
X3159Y1940D01*
X1748Y1939D02*
X1755Y1939D01*
X2540Y1939D02*
X2547Y1939D01*
X2926Y1939D02*
X2957Y1939D01*
X2978Y1939D02*
X3008Y1939D01*
X3040Y1939D02*
X3046Y1939D01*
X3079Y1939D02*
X3109Y1939D01*
X3129Y1939D02*
X3138Y1939D01*
X3150Y1939D02*
X3158Y1939D01*
X1748Y1938D02*
X1755Y1938D01*
X2540Y1938D02*
X2547Y1938D01*
X2926Y1938D02*
X2956Y1938D01*
X2978Y1938D02*
X2986Y1938D01*
X3000Y1938D02*
X3009Y1938D01*
X3040Y1938D02*
X3046Y1938D01*
X3078Y1938D02*
X3087Y1938D01*
X3101Y1938D02*
X3109Y1938D01*
X3130Y1938D02*
X3138Y1938D01*
X3149Y1938D02*
X3157Y1938D01*
X1748Y1937D02*
X1755Y1937D01*
X2540Y1937D02*
X2547Y1937D01*
X2926Y1937D02*
X2954Y1937D01*
X2977Y1937D02*
X2985Y1937D01*
X3002Y1937D02*
X3009Y1937D01*
X3040Y1937D02*
X3046Y1937D01*
X3078Y1937D02*
X3085Y1937D01*
X3102Y1937D02*
X3110Y1937D01*
X3131Y1937D02*
X3139Y1937D01*
X3148Y1937D02*
X3157Y1937D01*
X1748Y1936D02*
X1755Y1936D01*
X2540Y1936D02*
X2547Y1936D01*
X2926Y1936D02*
X2951Y1936D01*
X2977Y1936D02*
X2984Y1936D01*
X3003Y1936D02*
X3010Y1936D01*
X3040Y1936D02*
X3046Y1936D01*
X3077Y1936D02*
X3084Y1936D01*
X3103Y1936D02*
X3110Y1936D01*
X3132Y1936D02*
X3140Y1936D01*
X3148Y1936D02*
X3156Y1936D01*
X1748Y1935D02*
X1755Y1935D01*
X2540Y1935D02*
X2547Y1935D01*
X2926Y1935D02*
X2932Y1935D01*
X2939Y1935D02*
X2946Y1935D01*
X2977Y1935D02*
X2983Y1935D01*
X3004Y1935D02*
X3010Y1935D01*
X3040Y1935D02*
X3046Y1935D01*
X3077Y1935D02*
X3083Y1935D01*
X3104Y1935D02*
X3110Y1935D01*
X3133Y1935D02*
X3141Y1935D01*
X3147Y1935D02*
X3155Y1935D01*
X1748Y1934D02*
X1755Y1934D01*
X2540Y1934D02*
X2547Y1934D01*
X2926Y1934D02*
X2932Y1934D01*
X2939Y1934D02*
X2946Y1934D01*
X2977Y1934D02*
X2983Y1934D01*
X3004Y1934D02*
X3010Y1934D01*
X3040Y1934D02*
X3046Y1934D01*
X3077Y1934D02*
X3083Y1934D01*
X3104Y1934D02*
X3110Y1934D01*
X3134Y1934D02*
X3142Y1934D01*
X3146Y1934D02*
X3154Y1934D01*
X1748Y1933D02*
X1755Y1933D01*
X2540Y1933D02*
X2547Y1933D01*
X2926Y1933D02*
X2932Y1933D01*
X2940Y1933D02*
X2947Y1933D01*
X2976Y1933D02*
X2983Y1933D01*
X3004Y1933D02*
X3010Y1933D01*
X3040Y1933D02*
X3046Y1933D01*
X3077Y1933D02*
X3083Y1933D01*
X3104Y1933D02*
X3110Y1933D01*
X3134Y1933D02*
X3143Y1933D01*
X3145Y1933D02*
X3153Y1933D01*
X1748Y1932D02*
X1755Y1932D01*
X2540Y1932D02*
X2547Y1932D01*
X2926Y1932D02*
X2932Y1932D01*
X2940Y1932D02*
X2948Y1932D01*
X2976Y1932D02*
X2983Y1932D01*
X3004Y1932D02*
X3010Y1932D01*
X3040Y1932D02*
X3046Y1932D01*
X3077Y1932D02*
X3083Y1932D01*
X3104Y1932D02*
X3110Y1932D01*
X3135Y1932D02*
X3152Y1932D01*
X1748Y1931D02*
X1755Y1931D01*
X2540Y1931D02*
X2547Y1931D01*
X2926Y1931D02*
X2932Y1931D01*
X2941Y1931D02*
X2948Y1931D01*
X2976Y1931D02*
X2983Y1931D01*
X3004Y1931D02*
X3010Y1931D01*
X3040Y1931D02*
X3046Y1931D01*
X3077Y1931D02*
X3083Y1931D01*
X3104Y1931D02*
X3110Y1931D01*
X3136Y1931D02*
X3152Y1931D01*
X1748Y1930D02*
X1755Y1930D01*
X2540Y1930D02*
X2547Y1930D01*
X2926Y1930D02*
X2932Y1930D01*
X2941Y1930D02*
X2949Y1930D01*
X2976Y1930D02*
X2983Y1930D01*
X3004Y1930D02*
X3010Y1930D01*
X3040Y1930D02*
X3046Y1930D01*
X3077Y1930D02*
X3083Y1930D01*
X3104Y1930D02*
X3110Y1930D01*
X3137Y1930D02*
X3151Y1930D01*
X1748Y1929D02*
X1755Y1929D01*
X2540Y1929D02*
X2547Y1929D01*
X2926Y1929D02*
X2932Y1929D01*
X2942Y1929D02*
X2949Y1929D01*
X2976Y1929D02*
X2983Y1929D01*
X3004Y1929D02*
X3010Y1929D01*
X3040Y1929D02*
X3046Y1929D01*
X3077Y1929D02*
X3083Y1929D01*
X3104Y1929D02*
X3110Y1929D01*
X3138Y1929D02*
X3150Y1929D01*
X1748Y1928D02*
X1755Y1928D01*
X2540Y1928D02*
X2547Y1928D01*
X2926Y1928D02*
X2932Y1928D01*
X2943Y1928D02*
X2950Y1928D01*
X2976Y1928D02*
X2983Y1928D01*
X3004Y1928D02*
X3010Y1928D01*
X3040Y1928D02*
X3046Y1928D01*
X3077Y1928D02*
X3110Y1928D01*
X3139Y1928D02*
X3149Y1928D01*
X1748Y1927D02*
X1755Y1927D01*
X2540Y1927D02*
X2547Y1927D01*
X2926Y1927D02*
X2932Y1927D01*
X2943Y1927D02*
X2950Y1927D01*
X2976Y1927D02*
X2983Y1927D01*
X3004Y1927D02*
X3010Y1927D01*
X3040Y1927D02*
X3046Y1927D01*
X3077Y1927D02*
X3110Y1927D01*
X3139Y1927D02*
X3148Y1927D01*
X1748Y1926D02*
X1755Y1926D01*
X2540Y1926D02*
X2547Y1926D01*
X2926Y1926D02*
X2932Y1926D01*
X2944Y1926D02*
X2951Y1926D01*
X2976Y1926D02*
X2983Y1926D01*
X3004Y1926D02*
X3010Y1926D01*
X3040Y1926D02*
X3046Y1926D01*
X3077Y1926D02*
X3110Y1926D01*
X3139Y1926D02*
X3148Y1926D01*
X1748Y1925D02*
X1755Y1925D01*
X2540Y1925D02*
X2547Y1925D01*
X2926Y1925D02*
X2932Y1925D01*
X2944Y1925D02*
X2952Y1925D01*
X2976Y1925D02*
X2983Y1925D01*
X3004Y1925D02*
X3010Y1925D01*
X3040Y1925D02*
X3046Y1925D01*
X3077Y1925D02*
X3110Y1925D01*
X3138Y1925D02*
X3149Y1925D01*
X1748Y1924D02*
X1755Y1924D01*
X2540Y1924D02*
X2547Y1924D01*
X2926Y1924D02*
X2932Y1924D01*
X2945Y1924D02*
X2952Y1924D01*
X2976Y1924D02*
X2983Y1924D01*
X3004Y1924D02*
X3010Y1924D01*
X3040Y1924D02*
X3046Y1924D01*
X3077Y1924D02*
X3110Y1924D01*
X3138Y1924D02*
X3150Y1924D01*
X1748Y1923D02*
X1755Y1923D01*
X2540Y1923D02*
X2547Y1923D01*
X2926Y1923D02*
X2932Y1923D01*
X2946Y1923D02*
X2953Y1923D01*
X2976Y1923D02*
X2983Y1923D01*
X3004Y1923D02*
X3010Y1923D01*
X3040Y1923D02*
X3046Y1923D01*
X3077Y1923D02*
X3110Y1923D01*
X3137Y1923D02*
X3151Y1923D01*
X1748Y1922D02*
X1755Y1922D01*
X2540Y1922D02*
X2547Y1922D01*
X2926Y1922D02*
X2932Y1922D01*
X2946Y1922D02*
X2953Y1922D01*
X2976Y1922D02*
X2983Y1922D01*
X3004Y1922D02*
X3010Y1922D01*
X3040Y1922D02*
X3046Y1922D01*
X3077Y1922D02*
X3109Y1922D01*
X3136Y1922D02*
X3152Y1922D01*
X1748Y1921D02*
X1755Y1921D01*
X2540Y1921D02*
X2547Y1921D01*
X2926Y1921D02*
X2932Y1921D01*
X2947Y1921D02*
X2954Y1921D01*
X2976Y1921D02*
X2983Y1921D01*
X3004Y1921D02*
X3010Y1921D01*
X3040Y1921D02*
X3046Y1921D01*
X3077Y1921D02*
X3083Y1921D01*
X3135Y1921D02*
X3153Y1921D01*
X1748Y1920D02*
X1755Y1920D01*
X2540Y1920D02*
X2547Y1920D01*
X2926Y1920D02*
X2932Y1920D01*
X2947Y1920D02*
X2955Y1920D01*
X2976Y1920D02*
X2983Y1920D01*
X3004Y1920D02*
X3010Y1920D01*
X3040Y1920D02*
X3046Y1920D01*
X3077Y1920D02*
X3083Y1920D01*
X3134Y1920D02*
X3143Y1920D01*
X3145Y1920D02*
X3153Y1920D01*
X1748Y1919D02*
X1755Y1919D01*
X2540Y1919D02*
X2547Y1919D01*
X2926Y1919D02*
X2932Y1919D01*
X2948Y1919D02*
X2955Y1919D01*
X2976Y1919D02*
X2983Y1919D01*
X3004Y1919D02*
X3010Y1919D01*
X3040Y1919D02*
X3046Y1919D01*
X3077Y1919D02*
X3083Y1919D01*
X3133Y1919D02*
X3142Y1919D01*
X3146Y1919D02*
X3154Y1919D01*
X1748Y1918D02*
X1755Y1918D01*
X2540Y1918D02*
X2547Y1918D01*
X2926Y1918D02*
X2932Y1918D01*
X2948Y1918D02*
X2956Y1918D01*
X2977Y1918D02*
X2983Y1918D01*
X3004Y1918D02*
X3010Y1918D01*
X3040Y1918D02*
X3046Y1918D01*
X3077Y1918D02*
X3083Y1918D01*
X3133Y1918D02*
X3141Y1918D01*
X3147Y1918D02*
X3155Y1918D01*
X1748Y1917D02*
X1755Y1917D01*
X2540Y1917D02*
X2547Y1917D01*
X2926Y1917D02*
X2932Y1917D01*
X2949Y1917D02*
X2956Y1917D01*
X2977Y1917D02*
X2983Y1917D01*
X3003Y1917D02*
X3010Y1917D01*
X3040Y1917D02*
X3046Y1917D01*
X3077Y1917D02*
X3084Y1917D01*
X3132Y1917D02*
X3140Y1917D01*
X3148Y1917D02*
X3156Y1917D01*
X1748Y1916D02*
X1755Y1916D01*
X2540Y1916D02*
X2547Y1916D01*
X2926Y1916D02*
X2932Y1916D01*
X2950Y1916D02*
X2957Y1916D01*
X2977Y1916D02*
X2984Y1916D01*
X3002Y1916D02*
X3010Y1916D01*
X3040Y1916D02*
X3046Y1916D01*
X3077Y1916D02*
X3084Y1916D01*
X3131Y1916D02*
X3139Y1916D01*
X3149Y1916D02*
X3157Y1916D01*
X1748Y1915D02*
X1755Y1915D01*
X2540Y1915D02*
X2547Y1915D01*
X2926Y1915D02*
X2932Y1915D01*
X2950Y1915D02*
X2957Y1915D01*
X2977Y1915D02*
X2985Y1915D01*
X3001Y1915D02*
X3009Y1915D01*
X3040Y1915D02*
X3046Y1915D01*
X3078Y1915D02*
X3086Y1915D01*
X3130Y1915D02*
X3138Y1915D01*
X3149Y1915D02*
X3158Y1915D01*
X1748Y1914D02*
X1755Y1914D01*
X2540Y1914D02*
X2547Y1914D01*
X2926Y1914D02*
X2932Y1914D01*
X2951Y1914D02*
X2958Y1914D01*
X2978Y1914D02*
X2987Y1914D01*
X3000Y1914D02*
X3009Y1914D01*
X3040Y1914D02*
X3046Y1914D01*
X3078Y1914D02*
X3087Y1914D01*
X3129Y1914D02*
X3138Y1914D01*
X3150Y1914D02*
X3158Y1914D01*
X1748Y1913D02*
X1755Y1913D01*
X2540Y1913D02*
X2547Y1913D01*
X2926Y1913D02*
X2932Y1913D01*
X2951Y1913D02*
X2959Y1913D01*
X2978Y1913D02*
X3008Y1913D01*
X3032Y1913D02*
X3055Y1913D01*
X3079Y1913D02*
X3108Y1913D01*
X3129Y1913D02*
X3137Y1913D01*
X3151Y1913D02*
X3159Y1913D01*
X1748Y1912D02*
X1755Y1912D01*
X2540Y1912D02*
X2547Y1912D01*
X2926Y1912D02*
X2932Y1912D01*
X2952Y1912D02*
X2959Y1912D01*
X2979Y1912D02*
X3007Y1912D01*
X3031Y1912D02*
X3056Y1912D01*
X3080Y1912D02*
X3110Y1912D01*
X3128Y1912D02*
X3136Y1912D01*
X3152Y1912D02*
X3160Y1912D01*
X1748Y1911D02*
X1755Y1911D01*
X2540Y1911D02*
X2547Y1911D01*
X2926Y1911D02*
X2932Y1911D01*
X2953Y1911D02*
X2960Y1911D01*
X2980Y1911D02*
X3006Y1911D01*
X3030Y1911D02*
X3057Y1911D01*
X3081Y1911D02*
X3110Y1911D01*
X3127Y1911D02*
X3135Y1911D01*
X3153Y1911D02*
X3160Y1911D01*
X1748Y1910D02*
X1755Y1910D01*
X2540Y1910D02*
X2547Y1910D01*
X2926Y1910D02*
X2932Y1910D01*
X2953Y1910D02*
X2960Y1910D01*
X2981Y1910D02*
X3005Y1910D01*
X3030Y1910D02*
X3057Y1910D01*
X3082Y1910D02*
X3110Y1910D01*
X3127Y1910D02*
X3134Y1910D01*
X3153Y1910D02*
X3161Y1910D01*
X1748Y1909D02*
X1755Y1909D01*
X2540Y1909D02*
X2547Y1909D01*
X2926Y1909D02*
X2932Y1909D01*
X2954Y1909D02*
X2960Y1909D01*
X2982Y1909D02*
X3004Y1909D01*
X3030Y1909D02*
X3057Y1909D01*
X3083Y1909D02*
X3110Y1909D01*
X3127Y1909D02*
X3133Y1909D01*
X3154Y1909D02*
X3161Y1909D01*
X1748Y1908D02*
X1755Y1908D01*
X2540Y1908D02*
X2547Y1908D01*
X2927Y1908D02*
X2932Y1908D01*
X2954Y1908D02*
X2959Y1908D01*
X2984Y1908D02*
X3003Y1908D01*
X3031Y1908D02*
X3056Y1908D01*
X3084Y1908D02*
X3110Y1908D01*
X3128Y1908D02*
X3133Y1908D01*
X3155Y1908D02*
X3160Y1908D01*
X1748Y1907D02*
X1755Y1907D01*
X2540Y1907D02*
X2547Y1907D01*
X2928Y1907D02*
X2931Y1907D01*
X2955Y1907D02*
X2958Y1907D01*
X2986Y1907D02*
X3001Y1907D01*
X3032Y1907D02*
X3055Y1907D01*
X3086Y1907D02*
X3109Y1907D01*
X3129Y1907D02*
X3131Y1907D01*
X3156Y1907D02*
X3159Y1907D01*
X1748Y1906D02*
X1755Y1906D01*
X2540Y1906D02*
X2547Y1906D01*
X1748Y1905D02*
X1755Y1905D01*
X2540Y1905D02*
X2547Y1905D01*
X1748Y1904D02*
X1755Y1904D01*
X2540Y1904D02*
X2547Y1904D01*
X1748Y1903D02*
X1755Y1903D01*
X2540Y1903D02*
X2547Y1903D01*
X1748Y1902D02*
X1755Y1902D01*
X2540Y1902D02*
X2547Y1902D01*
X1748Y1901D02*
X1755Y1901D01*
X2540Y1901D02*
X2547Y1901D01*
X1748Y1900D02*
X1755Y1900D01*
X2540Y1900D02*
X2547Y1900D01*
X1748Y1899D02*
X1755Y1899D01*
X2540Y1899D02*
X2547Y1899D01*
X1748Y1898D02*
X1755Y1898D01*
X2540Y1898D02*
X2547Y1898D01*
X1748Y1897D02*
X1755Y1897D01*
X2540Y1897D02*
X2547Y1897D01*
X1748Y1896D02*
X1755Y1896D01*
X2540Y1896D02*
X2547Y1896D01*
X1748Y1895D02*
X1755Y1895D01*
X2540Y1895D02*
X2547Y1895D01*
X1748Y1894D02*
X1755Y1894D01*
X2540Y1894D02*
X2547Y1894D01*
X1748Y1893D02*
X1755Y1893D01*
X2540Y1893D02*
X2547Y1893D01*
X1748Y1892D02*
X1755Y1892D01*
X2540Y1892D02*
X2547Y1892D01*
X1748Y1891D02*
X1755Y1891D01*
X2540Y1891D02*
X2547Y1891D01*
X1748Y1890D02*
X1755Y1890D01*
X2540Y1890D02*
X2547Y1890D01*
X1748Y1889D02*
X1755Y1889D01*
X2540Y1889D02*
X2547Y1889D01*
X1748Y1888D02*
X1755Y1888D01*
X2540Y1888D02*
X2547Y1888D01*
X1748Y1887D02*
X1755Y1887D01*
X2540Y1887D02*
X2547Y1887D01*
X1748Y1886D02*
X1755Y1886D01*
X2540Y1886D02*
X2547Y1886D01*
X1748Y1885D02*
X1755Y1885D01*
X2540Y1885D02*
X2547Y1885D01*
X1748Y1884D02*
X1755Y1884D01*
X2540Y1884D02*
X2547Y1884D01*
X1748Y1883D02*
X1755Y1883D01*
X2540Y1883D02*
X2547Y1883D01*
X1748Y1882D02*
X1755Y1882D01*
X2540Y1882D02*
X2547Y1882D01*
X1748Y1881D02*
X1755Y1881D01*
X2540Y1881D02*
X2547Y1881D01*
X1748Y1880D02*
X1755Y1880D01*
X2540Y1880D02*
X2547Y1880D01*
X1748Y1879D02*
X1755Y1879D01*
X2540Y1879D02*
X2547Y1879D01*
X1748Y1878D02*
X1755Y1878D01*
X2540Y1878D02*
X2547Y1878D01*
X1748Y1877D02*
X1755Y1877D01*
X2540Y1877D02*
X2547Y1877D01*
X1748Y1876D02*
X1755Y1876D01*
X2540Y1876D02*
X2547Y1876D01*
X1748Y1875D02*
X1755Y1875D01*
X2540Y1875D02*
X2547Y1875D01*
X1748Y1874D02*
X1755Y1874D01*
X2540Y1874D02*
X2547Y1874D01*
X1748Y1873D02*
X1755Y1873D01*
X2540Y1873D02*
X2547Y1873D01*
X1748Y1872D02*
X1755Y1872D01*
X2540Y1872D02*
X2547Y1872D01*
X1748Y1871D02*
X1755Y1871D01*
X2540Y1871D02*
X2547Y1871D01*
X1748Y1870D02*
X1755Y1870D01*
X2540Y1870D02*
X2547Y1870D01*
X1748Y1869D02*
X1755Y1869D01*
X2540Y1869D02*
X2547Y1869D01*
X1748Y1868D02*
X1755Y1868D01*
X2540Y1868D02*
X2547Y1868D01*
X1748Y1867D02*
X1755Y1867D01*
X2540Y1867D02*
X2547Y1867D01*
X1748Y1866D02*
X1755Y1866D01*
X2540Y1866D02*
X2547Y1866D01*
X1748Y1865D02*
X1755Y1865D01*
X2540Y1865D02*
X2547Y1865D01*
X1748Y1864D02*
X1755Y1864D01*
X2540Y1864D02*
X2547Y1864D01*
X1748Y1863D02*
X1755Y1863D01*
X2540Y1863D02*
X2547Y1863D01*
X1748Y1862D02*
X1755Y1862D01*
X2540Y1862D02*
X2547Y1862D01*
X1748Y1861D02*
X1755Y1861D01*
X2540Y1861D02*
X2547Y1861D01*
X1748Y1860D02*
X1755Y1860D01*
X2540Y1860D02*
X2547Y1860D01*
X1748Y1859D02*
X1755Y1859D01*
X2540Y1859D02*
X2547Y1859D01*
X1748Y1858D02*
X1755Y1858D01*
X2540Y1858D02*
X2547Y1858D01*
X1748Y1857D02*
X1755Y1857D01*
X2540Y1857D02*
X2547Y1857D01*
X1748Y1856D02*
X1755Y1856D01*
X2540Y1856D02*
X2547Y1856D01*
X1748Y1855D02*
X1755Y1855D01*
X2540Y1855D02*
X2547Y1855D01*
X1748Y1854D02*
X1755Y1854D01*
X2540Y1854D02*
X2547Y1854D01*
X1748Y1853D02*
X1755Y1853D01*
X2540Y1853D02*
X2547Y1853D01*
X1748Y1852D02*
X1755Y1852D01*
X2540Y1852D02*
X2547Y1852D01*
X1748Y1851D02*
X1755Y1851D01*
X2540Y1851D02*
X2547Y1851D01*
X1748Y1850D02*
X1755Y1850D01*
X2540Y1850D02*
X2547Y1850D01*
X1748Y1849D02*
X1755Y1849D01*
X2540Y1849D02*
X2547Y1849D01*
X1748Y1848D02*
X1755Y1848D01*
X2540Y1848D02*
X2547Y1848D01*
X1748Y1847D02*
X1755Y1847D01*
X2540Y1847D02*
X2547Y1847D01*
X1748Y1846D02*
X1755Y1846D01*
X2540Y1846D02*
X2547Y1846D01*
X1748Y1845D02*
X1755Y1845D01*
X2540Y1845D02*
X2547Y1845D01*
X1748Y1844D02*
X1755Y1844D01*
X2540Y1844D02*
X2547Y1844D01*
X1748Y1843D02*
X1755Y1843D01*
X2540Y1843D02*
X2547Y1843D01*
X1748Y1842D02*
X1755Y1842D01*
X2540Y1842D02*
X2547Y1842D01*
X1748Y1841D02*
X1755Y1841D01*
X2540Y1841D02*
X2547Y1841D01*
X1748Y1840D02*
X1755Y1840D01*
X2540Y1840D02*
X2547Y1840D01*
X1748Y1839D02*
X1755Y1839D01*
X2540Y1839D02*
X2547Y1839D01*
X1748Y1838D02*
X1755Y1838D01*
X2540Y1838D02*
X2547Y1838D01*
X1748Y1837D02*
X1755Y1837D01*
X2540Y1837D02*
X2547Y1837D01*
X1748Y1836D02*
X1755Y1836D01*
X2540Y1836D02*
X2547Y1836D01*
X1748Y1835D02*
X1755Y1835D01*
X2540Y1835D02*
X2547Y1835D01*
X1748Y1834D02*
X1755Y1834D01*
X2540Y1834D02*
X2547Y1834D01*
X1748Y1833D02*
X1755Y1833D01*
X2540Y1833D02*
X2547Y1833D01*
X1748Y1832D02*
X1755Y1832D01*
X2540Y1832D02*
X2547Y1832D01*
X1748Y1831D02*
X1755Y1831D01*
X2540Y1831D02*
X2547Y1831D01*
X1748Y1830D02*
X1755Y1830D01*
X2540Y1830D02*
X2547Y1830D01*
X1748Y1829D02*
X1755Y1829D01*
X2540Y1829D02*
X2547Y1829D01*
X1748Y1828D02*
X1755Y1828D01*
X2540Y1828D02*
X2547Y1828D01*
X1748Y1827D02*
X1755Y1827D01*
X2540Y1827D02*
X2547Y1827D01*
X1748Y1826D02*
X1755Y1826D01*
X2540Y1826D02*
X2547Y1826D01*
X1748Y1825D02*
X1755Y1825D01*
X2540Y1825D02*
X2547Y1825D01*
X1748Y1824D02*
X1755Y1824D01*
X2540Y1824D02*
X2547Y1824D01*
X1748Y1823D02*
X1755Y1823D01*
X2540Y1823D02*
X2547Y1823D01*
X1748Y1822D02*
X1755Y1822D01*
X2540Y1822D02*
X2547Y1822D01*
X1748Y1821D02*
X1755Y1821D01*
X2540Y1821D02*
X2547Y1821D01*
X1748Y1820D02*
X1755Y1820D01*
X2540Y1820D02*
X2547Y1820D01*
X1748Y1819D02*
X1755Y1819D01*
X2540Y1819D02*
X2547Y1819D01*
X1748Y1818D02*
X1755Y1818D01*
X2540Y1818D02*
X2547Y1818D01*
X1748Y1817D02*
X1755Y1817D01*
X2540Y1817D02*
X2547Y1817D01*
X1748Y1816D02*
X1755Y1816D01*
X2540Y1816D02*
X2547Y1816D01*
X1748Y1815D02*
X1755Y1815D01*
X2540Y1815D02*
X2547Y1815D01*
X1748Y1814D02*
X1755Y1814D01*
X2540Y1814D02*
X2547Y1814D01*
X1748Y1813D02*
X1755Y1813D01*
X2540Y1813D02*
X2547Y1813D01*
X1748Y1812D02*
X1755Y1812D01*
X2540Y1812D02*
X2547Y1812D01*
X1748Y1811D02*
X1755Y1811D01*
X2540Y1811D02*
X2547Y1811D01*
X1748Y1810D02*
X1755Y1810D01*
X2540Y1810D02*
X2547Y1810D01*
X1748Y1809D02*
X1755Y1809D01*
X2540Y1809D02*
X2547Y1809D01*
X1748Y1808D02*
X1755Y1808D01*
X2540Y1808D02*
X2547Y1808D01*
X1748Y1807D02*
X1755Y1807D01*
X2540Y1807D02*
X2547Y1807D01*
X1748Y1806D02*
X1755Y1806D01*
X2540Y1806D02*
X2547Y1806D01*
X1748Y1805D02*
X1755Y1805D01*
X2540Y1805D02*
X2547Y1805D01*
X1748Y1804D02*
X1755Y1804D01*
X2540Y1804D02*
X2547Y1804D01*
X1748Y1803D02*
X1755Y1803D01*
X2540Y1803D02*
X2547Y1803D01*
X1748Y1802D02*
X1755Y1802D01*
X2540Y1802D02*
X2547Y1802D01*
X1748Y1801D02*
X1755Y1801D01*
X2540Y1801D02*
X2547Y1801D01*
X1748Y1800D02*
X1755Y1800D01*
X2540Y1800D02*
X2547Y1800D01*
X1748Y1799D02*
X1755Y1799D01*
X2540Y1799D02*
X2547Y1799D01*
X1748Y1798D02*
X1755Y1798D01*
X2540Y1798D02*
X2547Y1798D01*
X1748Y1797D02*
X1755Y1797D01*
X2540Y1797D02*
X2547Y1797D01*
X1748Y1796D02*
X1755Y1796D01*
X2540Y1796D02*
X2547Y1796D01*
X1748Y1795D02*
X1755Y1795D01*
X2540Y1795D02*
X2547Y1795D01*
X1748Y1794D02*
X1755Y1794D01*
X2540Y1794D02*
X2547Y1794D01*
X1748Y1793D02*
X1755Y1793D01*
X2540Y1793D02*
X2547Y1793D01*
X1748Y1792D02*
X1755Y1792D01*
X2540Y1792D02*
X2547Y1792D01*
X1748Y1791D02*
X1755Y1791D01*
X2540Y1791D02*
X2547Y1791D01*
X1748Y1790D02*
X1755Y1790D01*
X2540Y1790D02*
X2547Y1790D01*
X1748Y1789D02*
X1755Y1789D01*
X2540Y1789D02*
X2547Y1789D01*
X1748Y1788D02*
X1755Y1788D01*
X2540Y1788D02*
X2547Y1788D01*
X1748Y1787D02*
X1755Y1787D01*
X2540Y1787D02*
X2547Y1787D01*
X1748Y1786D02*
X1755Y1786D01*
X2540Y1786D02*
X2547Y1786D01*
X1748Y1785D02*
X1755Y1785D01*
X2540Y1785D02*
X2547Y1785D01*
X1748Y1784D02*
X1755Y1784D01*
X2540Y1784D02*
X2547Y1784D01*
X1748Y1783D02*
X1755Y1783D01*
X2540Y1783D02*
X2547Y1783D01*
X1748Y1782D02*
X1755Y1782D01*
X2540Y1782D02*
X2547Y1782D01*
X1748Y1781D02*
X1755Y1781D01*
X2540Y1781D02*
X2547Y1781D01*
X1748Y1780D02*
X1755Y1780D01*
X2540Y1780D02*
X2547Y1780D01*
X1748Y1779D02*
X1755Y1779D01*
X2540Y1779D02*
X2547Y1779D01*
X1748Y1778D02*
X1755Y1778D01*
X2540Y1778D02*
X2547Y1778D01*
X1748Y1777D02*
X1755Y1777D01*
X2540Y1777D02*
X2547Y1777D01*
X1748Y1776D02*
X1755Y1776D01*
X2540Y1776D02*
X2547Y1776D01*
X1748Y1775D02*
X1755Y1775D01*
X2540Y1775D02*
X2547Y1775D01*
X1748Y1774D02*
X1755Y1774D01*
X2540Y1774D02*
X2547Y1774D01*
X1748Y1773D02*
X1755Y1773D01*
X2540Y1773D02*
X2547Y1773D01*
X1748Y1772D02*
X1755Y1772D01*
X2540Y1772D02*
X2547Y1772D01*
X1748Y1771D02*
X1755Y1771D01*
X2540Y1771D02*
X2547Y1771D01*
X1748Y1770D02*
X1755Y1770D01*
X2540Y1770D02*
X2547Y1770D01*
X1748Y1769D02*
X1755Y1769D01*
X2540Y1769D02*
X2547Y1769D01*
X1748Y1768D02*
X1755Y1768D01*
X2540Y1768D02*
X2547Y1768D01*
X1748Y1767D02*
X1755Y1767D01*
X2540Y1767D02*
X2547Y1767D01*
X1748Y1766D02*
X1755Y1766D01*
X2540Y1766D02*
X2547Y1766D01*
X1748Y1765D02*
X1755Y1765D01*
X2540Y1765D02*
X2547Y1765D01*
X1748Y1764D02*
X1755Y1764D01*
X2540Y1764D02*
X2547Y1764D01*
X1748Y1763D02*
X1755Y1763D01*
X2540Y1763D02*
X2547Y1763D01*
X1748Y1762D02*
X1755Y1762D01*
X2540Y1762D02*
X2547Y1762D01*
X1748Y1761D02*
X1755Y1761D01*
X2540Y1761D02*
X2547Y1761D01*
X1748Y1760D02*
X1755Y1760D01*
X2540Y1760D02*
X2547Y1760D01*
X1748Y1759D02*
X1755Y1759D01*
X2540Y1759D02*
X2547Y1759D01*
X1748Y1758D02*
X1755Y1758D01*
X2540Y1758D02*
X2547Y1758D01*
X1748Y1757D02*
X1755Y1757D01*
X2540Y1757D02*
X2547Y1757D01*
X1748Y1756D02*
X1755Y1756D01*
X2540Y1756D02*
X2547Y1756D01*
X1748Y1755D02*
X1755Y1755D01*
X2540Y1755D02*
X2547Y1755D01*
X1748Y1754D02*
X1755Y1754D01*
X2540Y1754D02*
X2547Y1754D01*
X1748Y1753D02*
X1755Y1753D01*
X2540Y1753D02*
X2547Y1753D01*
X1748Y1752D02*
X1755Y1752D01*
X2540Y1752D02*
X2547Y1752D01*
X1748Y1751D02*
X1755Y1751D01*
X2540Y1751D02*
X2547Y1751D01*
X1748Y1750D02*
X1755Y1750D01*
X2540Y1750D02*
X2547Y1750D01*
X1748Y1749D02*
X1755Y1749D01*
X2540Y1749D02*
X2547Y1749D01*
X1748Y1748D02*
X1755Y1748D01*
X2540Y1748D02*
X2547Y1748D01*
X1748Y1747D02*
X1755Y1747D01*
X2540Y1747D02*
X2547Y1747D01*
X1748Y1746D02*
X1755Y1746D01*
X2540Y1746D02*
X2547Y1746D01*
X1748Y1745D02*
X1755Y1745D01*
X2540Y1745D02*
X2547Y1745D01*
X1748Y1744D02*
X1755Y1744D01*
X2540Y1744D02*
X2547Y1744D01*
X1748Y1743D02*
X1755Y1743D01*
X2540Y1743D02*
X2547Y1743D01*
X1748Y1742D02*
X1755Y1742D01*
X2540Y1742D02*
X2547Y1742D01*
X1748Y1741D02*
X1755Y1741D01*
X2540Y1741D02*
X2547Y1741D01*
X1748Y1740D02*
X1755Y1740D01*
X2540Y1740D02*
X2547Y1740D01*
X1748Y1739D02*
X1755Y1739D01*
X2540Y1739D02*
X2547Y1739D01*
X1748Y1738D02*
X1755Y1738D01*
X2540Y1738D02*
X2547Y1738D01*
X1748Y1737D02*
X1755Y1737D01*
X2540Y1737D02*
X2547Y1737D01*
X1748Y1736D02*
X1755Y1736D01*
X2540Y1736D02*
X2547Y1736D01*
X1748Y1735D02*
X1755Y1735D01*
X2540Y1735D02*
X2547Y1735D01*
X1748Y1734D02*
X1755Y1734D01*
X2540Y1734D02*
X2547Y1734D01*
X1748Y1733D02*
X1755Y1733D01*
X2540Y1733D02*
X2547Y1733D01*
X1748Y1732D02*
X1755Y1732D01*
X2540Y1732D02*
X2547Y1732D01*
X1748Y1731D02*
X1755Y1731D01*
X2540Y1731D02*
X2547Y1731D01*
X1748Y1730D02*
X1755Y1730D01*
X2540Y1730D02*
X2547Y1730D01*
X1748Y1729D02*
X1755Y1729D01*
X2540Y1729D02*
X2547Y1729D01*
X1748Y1728D02*
X1755Y1728D01*
X2540Y1728D02*
X2547Y1728D01*
X1748Y1727D02*
X1755Y1727D01*
X2540Y1727D02*
X2547Y1727D01*
X1748Y1726D02*
X1755Y1726D01*
X2540Y1726D02*
X2547Y1726D01*
X1748Y1725D02*
X1755Y1725D01*
X2540Y1725D02*
X2547Y1725D01*
X1748Y1724D02*
X1755Y1724D01*
X2540Y1724D02*
X2547Y1724D01*
X1748Y1723D02*
X1755Y1723D01*
X2540Y1723D02*
X2547Y1723D01*
X1748Y1722D02*
X1755Y1722D01*
X2540Y1722D02*
X2547Y1722D01*
X1748Y1721D02*
X1755Y1721D01*
X2540Y1721D02*
X2547Y1721D01*
X1748Y1720D02*
X1755Y1720D01*
X2540Y1720D02*
X2547Y1720D01*
X1748Y1719D02*
X1755Y1719D01*
X2540Y1719D02*
X2547Y1719D01*
X1748Y1718D02*
X1755Y1718D01*
X2540Y1718D02*
X2547Y1718D01*
X1748Y1717D02*
X1755Y1717D01*
X2540Y1717D02*
X2547Y1717D01*
X1748Y1716D02*
X1755Y1716D01*
X2540Y1716D02*
X2547Y1716D01*
X1748Y1715D02*
X1755Y1715D01*
X2540Y1715D02*
X2547Y1715D01*
X1748Y1714D02*
X1755Y1714D01*
X2540Y1714D02*
X2547Y1714D01*
X1748Y1713D02*
X1755Y1713D01*
X2540Y1713D02*
X2547Y1713D01*
X1748Y1712D02*
X1755Y1712D01*
X2540Y1712D02*
X2547Y1712D01*
X1748Y1711D02*
X1755Y1711D01*
X2540Y1711D02*
X2547Y1711D01*
X1748Y1710D02*
X1755Y1710D01*
X2540Y1710D02*
X2547Y1710D01*
X1748Y1709D02*
X1755Y1709D01*
X2540Y1709D02*
X2547Y1709D01*
X1748Y1708D02*
X1755Y1708D01*
X2540Y1708D02*
X2547Y1708D01*
X1748Y1707D02*
X1755Y1707D01*
X2540Y1707D02*
X2547Y1707D01*
X1748Y1706D02*
X1755Y1706D01*
X2540Y1706D02*
X2547Y1706D01*
X1748Y1705D02*
X1755Y1705D01*
X2540Y1705D02*
X2547Y1705D01*
X1748Y1704D02*
X1755Y1704D01*
X2540Y1704D02*
X2547Y1704D01*
X1748Y1703D02*
X1755Y1703D01*
X2540Y1703D02*
X2547Y1703D01*
X1748Y1702D02*
X1755Y1702D01*
X2540Y1702D02*
X2547Y1702D01*
X1748Y1701D02*
X1755Y1701D01*
X2540Y1701D02*
X2547Y1701D01*
X1748Y1700D02*
X1755Y1700D01*
X2540Y1700D02*
X2547Y1700D01*
X1748Y1699D02*
X1755Y1699D01*
X2540Y1699D02*
X2547Y1699D01*
X1748Y1698D02*
X1755Y1698D01*
X2540Y1698D02*
X2547Y1698D01*
X1748Y1697D02*
X1755Y1697D01*
X2540Y1697D02*
X2547Y1697D01*
X1748Y1696D02*
X1755Y1696D01*
X2540Y1696D02*
X2547Y1696D01*
X1748Y1695D02*
X1755Y1695D01*
X2540Y1695D02*
X2547Y1695D01*
X1748Y1694D02*
X1755Y1694D01*
X2540Y1694D02*
X2547Y1694D01*
X1748Y1693D02*
X1755Y1693D01*
X2540Y1693D02*
X2547Y1693D01*
X1748Y1692D02*
X1755Y1692D01*
X2540Y1692D02*
X2547Y1692D01*
X1748Y1691D02*
X1755Y1691D01*
X2540Y1691D02*
X2547Y1691D01*
X1748Y1690D02*
X1755Y1690D01*
X2540Y1690D02*
X2547Y1690D01*
X1748Y1689D02*
X1755Y1689D01*
X2540Y1689D02*
X2547Y1689D01*
X1748Y1688D02*
X1755Y1688D01*
X2540Y1688D02*
X2547Y1688D01*
X1748Y1687D02*
X1755Y1687D01*
X2540Y1687D02*
X2547Y1687D01*
X1748Y1686D02*
X1755Y1686D01*
X2540Y1686D02*
X2547Y1686D01*
X1748Y1685D02*
X1755Y1685D01*
X2540Y1685D02*
X2547Y1685D01*
X1748Y1684D02*
X1755Y1684D01*
X2540Y1684D02*
X2547Y1684D01*
X1748Y1683D02*
X1755Y1683D01*
X2540Y1683D02*
X2547Y1683D01*
X1748Y1682D02*
X1755Y1682D01*
X2540Y1682D02*
X2547Y1682D01*
X1748Y1681D02*
X1755Y1681D01*
X2540Y1681D02*
X2547Y1681D01*
X1748Y1680D02*
X1755Y1680D01*
X2540Y1680D02*
X2547Y1680D01*
X1748Y1679D02*
X1755Y1679D01*
X2540Y1679D02*
X2547Y1679D01*
X1748Y1678D02*
X1755Y1678D01*
X2540Y1678D02*
X2547Y1678D01*
X1748Y1677D02*
X1755Y1677D01*
X2540Y1677D02*
X2547Y1677D01*
X1748Y1676D02*
X1755Y1676D01*
X2540Y1676D02*
X2547Y1676D01*
X1748Y1675D02*
X1755Y1675D01*
X2540Y1675D02*
X2547Y1675D01*
X1748Y1674D02*
X1755Y1674D01*
X2540Y1674D02*
X2547Y1674D01*
X1748Y1673D02*
X1755Y1673D01*
X2540Y1673D02*
X2547Y1673D01*
X1748Y1672D02*
X1755Y1672D01*
X2540Y1672D02*
X2547Y1672D01*
X1748Y1671D02*
X1755Y1671D01*
X2540Y1671D02*
X2547Y1671D01*
X1748Y1670D02*
X1755Y1670D01*
X2540Y1670D02*
X2547Y1670D01*
X1748Y1669D02*
X1755Y1669D01*
X2540Y1669D02*
X2547Y1669D01*
X1748Y1668D02*
X1755Y1668D01*
X2540Y1668D02*
X2547Y1668D01*
X1748Y1667D02*
X1755Y1667D01*
X2540Y1667D02*
X2547Y1667D01*
X1748Y1666D02*
X1755Y1666D01*
X2540Y1666D02*
X2547Y1666D01*
X1748Y1665D02*
X1755Y1665D01*
X2540Y1665D02*
X2547Y1665D01*
X1748Y1664D02*
X1755Y1664D01*
X2540Y1664D02*
X2547Y1664D01*
X1748Y1663D02*
X1755Y1663D01*
X2540Y1663D02*
X2547Y1663D01*
X1748Y1662D02*
X1755Y1662D01*
X2540Y1662D02*
X2547Y1662D01*
X1748Y1661D02*
X1755Y1661D01*
X2540Y1661D02*
X2547Y1661D01*
X1748Y1660D02*
X1755Y1660D01*
X2540Y1660D02*
X2547Y1660D01*
X1748Y1659D02*
X1755Y1659D01*
X2540Y1659D02*
X2547Y1659D01*
X1748Y1658D02*
X1755Y1658D01*
X2540Y1658D02*
X2547Y1658D01*
X1748Y1657D02*
X1755Y1657D01*
X2540Y1657D02*
X2547Y1657D01*
X1748Y1656D02*
X1755Y1656D01*
X2540Y1656D02*
X2547Y1656D01*
X1748Y1655D02*
X1755Y1655D01*
X2540Y1655D02*
X2547Y1655D01*
X1748Y1654D02*
X1755Y1654D01*
X2540Y1654D02*
X2547Y1654D01*
X1748Y1653D02*
X1755Y1653D01*
X2540Y1653D02*
X2547Y1653D01*
X1748Y1652D02*
X1755Y1652D01*
X2540Y1652D02*
X2547Y1652D01*
X1748Y1651D02*
X1755Y1651D01*
X2540Y1651D02*
X2547Y1651D01*
X1748Y1650D02*
X1755Y1650D01*
X2540Y1650D02*
X2547Y1650D01*
X1748Y1649D02*
X1755Y1649D01*
X2540Y1649D02*
X2547Y1649D01*
X1748Y1648D02*
X1755Y1648D01*
X2540Y1648D02*
X2547Y1648D01*
X1748Y1647D02*
X1755Y1647D01*
X2540Y1647D02*
X2547Y1647D01*
X1748Y1646D02*
X1755Y1646D01*
X2540Y1646D02*
X2547Y1646D01*
X1748Y1645D02*
X1755Y1645D01*
X2540Y1645D02*
X2547Y1645D01*
X1748Y1644D02*
X1755Y1644D01*
X2540Y1644D02*
X2547Y1644D01*
X1748Y1643D02*
X1755Y1643D01*
X2540Y1643D02*
X2547Y1643D01*
X1748Y1642D02*
X1755Y1642D01*
X2540Y1642D02*
X2547Y1642D01*
X1748Y1641D02*
X1755Y1641D01*
X2540Y1641D02*
X2547Y1641D01*
X1748Y1640D02*
X1755Y1640D01*
X2540Y1640D02*
X2547Y1640D01*
X1748Y1639D02*
X1755Y1639D01*
X2540Y1639D02*
X2547Y1639D01*
X1748Y1638D02*
X1755Y1638D01*
X2540Y1638D02*
X2547Y1638D01*
X1748Y1637D02*
X1755Y1637D01*
X2540Y1637D02*
X2547Y1637D01*
X1748Y1636D02*
X1755Y1636D01*
X2540Y1636D02*
X2547Y1636D01*
X1748Y1635D02*
X1755Y1635D01*
X2540Y1635D02*
X2547Y1635D01*
X1748Y1634D02*
X1755Y1634D01*
X2540Y1634D02*
X2547Y1634D01*
X1748Y1633D02*
X1755Y1633D01*
X2540Y1633D02*
X2547Y1633D01*
X1748Y1632D02*
X1755Y1632D01*
X2540Y1632D02*
X2547Y1632D01*
X1748Y1631D02*
X1755Y1631D01*
X2540Y1631D02*
X2547Y1631D01*
X1748Y1630D02*
X1755Y1630D01*
X2540Y1630D02*
X2547Y1630D01*
X1748Y1629D02*
X1755Y1629D01*
X2540Y1629D02*
X2547Y1629D01*
X1748Y1628D02*
X1755Y1628D01*
X2540Y1628D02*
X2547Y1628D01*
X1748Y1627D02*
X1755Y1627D01*
X2540Y1627D02*
X2547Y1627D01*
X1748Y1626D02*
X1755Y1626D01*
X2540Y1626D02*
X2547Y1626D01*
X1748Y1625D02*
X1755Y1625D01*
X2540Y1625D02*
X2547Y1625D01*
X1748Y1624D02*
X1755Y1624D01*
X2540Y1624D02*
X2547Y1624D01*
X1748Y1623D02*
X1755Y1623D01*
X2540Y1623D02*
X2547Y1623D01*
X1748Y1622D02*
X1755Y1622D01*
X2540Y1622D02*
X2547Y1622D01*
X1748Y1621D02*
X1755Y1621D01*
X2540Y1621D02*
X2547Y1621D01*
X1748Y1620D02*
X1755Y1620D01*
X2540Y1620D02*
X2547Y1620D01*
X1748Y1619D02*
X1755Y1619D01*
X2540Y1619D02*
X2547Y1619D01*
X1748Y1618D02*
X1755Y1618D01*
X2540Y1618D02*
X2547Y1618D01*
X1748Y1617D02*
X1755Y1617D01*
X2540Y1617D02*
X2547Y1617D01*
X1748Y1616D02*
X1755Y1616D01*
X2540Y1616D02*
X2547Y1616D01*
X1748Y1615D02*
X1755Y1615D01*
X2540Y1615D02*
X2547Y1615D01*
X1748Y1614D02*
X1755Y1614D01*
X2540Y1614D02*
X2547Y1614D01*
X1748Y1613D02*
X1755Y1613D01*
X2540Y1613D02*
X2547Y1613D01*
X1748Y1612D02*
X1755Y1612D01*
X2540Y1612D02*
X2547Y1612D01*
X1748Y1611D02*
X1755Y1611D01*
X2540Y1611D02*
X2547Y1611D01*
X1748Y1610D02*
X1755Y1610D01*
X2540Y1610D02*
X2547Y1610D01*
X1748Y1609D02*
X1755Y1609D01*
X2540Y1609D02*
X2547Y1609D01*
X1748Y1608D02*
X1755Y1608D01*
X2540Y1608D02*
X2547Y1608D01*
X1748Y1607D02*
X1755Y1607D01*
X2540Y1607D02*
X2547Y1607D01*
X1748Y1606D02*
X1755Y1606D01*
X2540Y1606D02*
X2547Y1606D01*
X1748Y1605D02*
X1755Y1605D01*
X2540Y1605D02*
X2547Y1605D01*
X1748Y1604D02*
X1755Y1604D01*
X2540Y1604D02*
X2547Y1604D01*
X1748Y1603D02*
X1755Y1603D01*
X2540Y1603D02*
X2547Y1603D01*
X1748Y1602D02*
X1755Y1602D01*
X2540Y1602D02*
X2547Y1602D01*
X1748Y1601D02*
X1755Y1601D01*
X2540Y1601D02*
X2547Y1601D01*
X1748Y1600D02*
X1755Y1600D01*
X2540Y1600D02*
X2547Y1600D01*
X1748Y1599D02*
X1755Y1599D01*
X2540Y1599D02*
X2547Y1599D01*
X1748Y1598D02*
X1755Y1598D01*
X2540Y1598D02*
X2547Y1598D01*
X1748Y1597D02*
X1755Y1597D01*
X2540Y1597D02*
X2547Y1597D01*
X1748Y1596D02*
X1755Y1596D01*
X2540Y1596D02*
X2547Y1596D01*
X1748Y1595D02*
X1755Y1595D01*
X2540Y1595D02*
X2547Y1595D01*
X1748Y1594D02*
X1755Y1594D01*
X2540Y1594D02*
X2547Y1594D01*
X1748Y1593D02*
X1755Y1593D01*
X2540Y1593D02*
X2547Y1593D01*
X1748Y1592D02*
X1755Y1592D01*
X2540Y1592D02*
X2547Y1592D01*
X1748Y1591D02*
X1755Y1591D01*
X2540Y1591D02*
X2547Y1591D01*
X1748Y1590D02*
X1755Y1590D01*
X2540Y1590D02*
X2547Y1590D01*
X1748Y1589D02*
X1755Y1589D01*
X2540Y1589D02*
X2547Y1589D01*
X1748Y1588D02*
X1755Y1588D01*
X2540Y1588D02*
X2547Y1588D01*
X1748Y1587D02*
X1755Y1587D01*
X2540Y1587D02*
X2547Y1587D01*
X1748Y1586D02*
X1755Y1586D01*
X2540Y1586D02*
X2547Y1586D01*
X1748Y1585D02*
X1755Y1585D01*
X2540Y1585D02*
X2547Y1585D01*
X1748Y1584D02*
X1755Y1584D01*
X2540Y1584D02*
X2547Y1584D01*
X1748Y1583D02*
X1755Y1583D01*
X2540Y1583D02*
X2547Y1583D01*
X1748Y1582D02*
X1755Y1582D01*
X2540Y1582D02*
X2547Y1582D01*
X1748Y1581D02*
X1755Y1581D01*
X2540Y1581D02*
X2547Y1581D01*
X1748Y1580D02*
X1755Y1580D01*
X2540Y1580D02*
X2547Y1580D01*
X1748Y1579D02*
X1755Y1579D01*
X2540Y1579D02*
X2547Y1579D01*
X1748Y1578D02*
X1755Y1578D01*
X2540Y1578D02*
X2547Y1578D01*
X1748Y1577D02*
X1755Y1577D01*
X2540Y1577D02*
X2547Y1577D01*
X1748Y1576D02*
X1755Y1576D01*
X2540Y1576D02*
X2547Y1576D01*
X1748Y1575D02*
X1755Y1575D01*
X2540Y1575D02*
X2547Y1575D01*
X1748Y1574D02*
X1755Y1574D01*
X2540Y1574D02*
X2547Y1574D01*
X1748Y1573D02*
X1755Y1573D01*
X2540Y1573D02*
X2547Y1573D01*
X1748Y1572D02*
X1755Y1572D01*
X2540Y1572D02*
X2547Y1572D01*
X1748Y1571D02*
X1755Y1571D01*
X2540Y1571D02*
X2547Y1571D01*
X1748Y1570D02*
X1755Y1570D01*
X2540Y1570D02*
X2547Y1570D01*
X1748Y1569D02*
X1755Y1569D01*
X2540Y1569D02*
X2547Y1569D01*
X1748Y1568D02*
X1755Y1568D01*
X2540Y1568D02*
X2547Y1568D01*
X1748Y1567D02*
X1755Y1567D01*
X2540Y1567D02*
X2547Y1567D01*
X1748Y1566D02*
X1755Y1566D01*
X2540Y1566D02*
X2547Y1566D01*
X1748Y1565D02*
X1755Y1565D01*
X2540Y1565D02*
X2547Y1565D01*
X1748Y1564D02*
X1755Y1564D01*
X2540Y1564D02*
X2547Y1564D01*
X1748Y1563D02*
X1755Y1563D01*
X2540Y1563D02*
X2547Y1563D01*
X1748Y1562D02*
X1755Y1562D01*
X2540Y1562D02*
X2547Y1562D01*
X1748Y1561D02*
X1755Y1561D01*
X2540Y1561D02*
X2547Y1561D01*
X1748Y1560D02*
X1755Y1560D01*
X2540Y1560D02*
X2547Y1560D01*
X1748Y1559D02*
X1755Y1559D01*
X2540Y1559D02*
X2547Y1559D01*
X1748Y1558D02*
X1755Y1558D01*
X2540Y1558D02*
X2547Y1558D01*
X1748Y1557D02*
X1755Y1557D01*
X2540Y1557D02*
X2547Y1557D01*
X1748Y1556D02*
X1755Y1556D01*
X2540Y1556D02*
X2547Y1556D01*
X1748Y1555D02*
X1755Y1555D01*
X2540Y1555D02*
X2547Y1555D01*
X1748Y1554D02*
X1755Y1554D01*
X2540Y1554D02*
X2547Y1554D01*
X1748Y1553D02*
X1755Y1553D01*
X2540Y1553D02*
X2547Y1553D01*
X1748Y1552D02*
X1755Y1552D01*
X2540Y1552D02*
X2547Y1552D01*
X1748Y1551D02*
X1755Y1551D01*
X2540Y1551D02*
X2547Y1551D01*
X1748Y1550D02*
X1755Y1550D01*
X2540Y1550D02*
X2547Y1550D01*
X1748Y1549D02*
X1755Y1549D01*
X2540Y1549D02*
X2547Y1549D01*
X1748Y1548D02*
X1755Y1548D01*
X2540Y1548D02*
X2547Y1548D01*
X1748Y1547D02*
X1755Y1547D01*
X2540Y1547D02*
X2547Y1547D01*
X1748Y1546D02*
X1755Y1546D01*
X2540Y1546D02*
X2547Y1546D01*
X1748Y1545D02*
X1755Y1545D01*
X2540Y1545D02*
X2547Y1545D01*
X1748Y1544D02*
X1755Y1544D01*
X2540Y1544D02*
X2547Y1544D01*
X1748Y1543D02*
X1755Y1543D01*
X2540Y1543D02*
X2547Y1543D01*
X1748Y1542D02*
X1755Y1542D01*
X2540Y1542D02*
X2547Y1542D01*
X1748Y1541D02*
X1755Y1541D01*
X2540Y1541D02*
X2547Y1541D01*
X1748Y1540D02*
X1755Y1540D01*
X2540Y1540D02*
X2547Y1540D01*
X1748Y1539D02*
X1755Y1539D01*
X2540Y1539D02*
X2547Y1539D01*
X1748Y1538D02*
X1755Y1538D01*
X2540Y1538D02*
X2547Y1538D01*
X1748Y1537D02*
X1755Y1537D01*
X2540Y1537D02*
X2547Y1537D01*
X1748Y1536D02*
X1755Y1536D01*
X2540Y1536D02*
X2547Y1536D01*
X1748Y1535D02*
X1755Y1535D01*
X2540Y1535D02*
X2547Y1535D01*
X1748Y1534D02*
X1755Y1534D01*
X2540Y1534D02*
X2547Y1534D01*
X1748Y1533D02*
X1755Y1533D01*
X2540Y1533D02*
X2547Y1533D01*
X1748Y1532D02*
X1755Y1532D01*
X2540Y1532D02*
X2547Y1532D01*
X1748Y1531D02*
X1755Y1531D01*
X2540Y1531D02*
X2547Y1531D01*
X1748Y1530D02*
X1755Y1530D01*
X2540Y1530D02*
X2547Y1530D01*
X1748Y1529D02*
X1755Y1529D01*
X2540Y1529D02*
X2547Y1529D01*
X1748Y1528D02*
X1755Y1528D01*
X2540Y1528D02*
X2547Y1528D01*
X1748Y1527D02*
X1755Y1527D01*
X2540Y1527D02*
X2547Y1527D01*
X1748Y1526D02*
X1755Y1526D01*
X2540Y1526D02*
X2547Y1526D01*
X1748Y1525D02*
X1755Y1525D01*
X2540Y1525D02*
X2547Y1525D01*
X1748Y1524D02*
X1755Y1524D01*
X2540Y1524D02*
X2547Y1524D01*
X1748Y1523D02*
X1755Y1523D01*
X2540Y1523D02*
X2547Y1523D01*
X1748Y1522D02*
X1755Y1522D01*
X2540Y1522D02*
X2547Y1522D01*
X1748Y1521D02*
X1755Y1521D01*
X2540Y1521D02*
X2547Y1521D01*
X1748Y1520D02*
X1755Y1520D01*
X2540Y1520D02*
X2547Y1520D01*
X1748Y1519D02*
X1755Y1519D01*
X2540Y1519D02*
X2547Y1519D01*
X1748Y1518D02*
X1755Y1518D01*
X2540Y1518D02*
X2547Y1518D01*
X1748Y1517D02*
X1755Y1517D01*
X2540Y1517D02*
X2547Y1517D01*
X1748Y1516D02*
X1755Y1516D01*
X2540Y1516D02*
X2547Y1516D01*
X1748Y1515D02*
X1755Y1515D01*
X2540Y1515D02*
X2547Y1515D01*
X1748Y1514D02*
X1755Y1514D01*
X2540Y1514D02*
X2547Y1514D01*
X1748Y1513D02*
X1755Y1513D01*
X2540Y1513D02*
X2547Y1513D01*
X1748Y1512D02*
X1755Y1512D01*
X2540Y1512D02*
X2547Y1512D01*
X1748Y1511D02*
X1755Y1511D01*
X2540Y1511D02*
X2547Y1511D01*
X1748Y1510D02*
X1755Y1510D01*
X2540Y1510D02*
X2547Y1510D01*
X1748Y1509D02*
X1755Y1509D01*
X2540Y1509D02*
X2547Y1509D01*
X1748Y1508D02*
X1755Y1508D01*
X2540Y1508D02*
X2547Y1508D01*
X1748Y1507D02*
X1755Y1507D01*
X2540Y1507D02*
X2547Y1507D01*
X1748Y1506D02*
X1755Y1506D01*
X2540Y1506D02*
X2547Y1506D01*
X1748Y1505D02*
X1755Y1505D01*
X2540Y1505D02*
X2547Y1505D01*
X1748Y1504D02*
X1755Y1504D01*
X2540Y1504D02*
X2547Y1504D01*
X1748Y1503D02*
X1755Y1503D01*
X2540Y1503D02*
X2547Y1503D01*
X1748Y1502D02*
X1755Y1502D01*
X2540Y1502D02*
X2547Y1502D01*
X1748Y1501D02*
X1755Y1501D01*
X2540Y1501D02*
X2547Y1501D01*
X1748Y1500D02*
X1755Y1500D01*
X2540Y1500D02*
X2547Y1500D01*
X1748Y1499D02*
X1755Y1499D01*
X2540Y1499D02*
X2547Y1499D01*
X1748Y1498D02*
X1755Y1498D01*
X2540Y1498D02*
X2547Y1498D01*
X1748Y1497D02*
X1755Y1497D01*
X2540Y1497D02*
X2547Y1497D01*
X1748Y1496D02*
X1755Y1496D01*
X2540Y1496D02*
X2547Y1496D01*
X1748Y1495D02*
X1755Y1495D01*
X2540Y1495D02*
X2547Y1495D01*
X1748Y1494D02*
X1755Y1494D01*
X2540Y1494D02*
X2547Y1494D01*
X1748Y1493D02*
X1755Y1493D01*
X2540Y1493D02*
X2547Y1493D01*
X1748Y1492D02*
X1755Y1492D01*
X2540Y1492D02*
X2547Y1492D01*
X1748Y1491D02*
X1755Y1491D01*
X2540Y1491D02*
X2547Y1491D01*
X1748Y1490D02*
X1755Y1490D01*
X2540Y1490D02*
X2547Y1490D01*
X1748Y1489D02*
X1755Y1489D01*
X2540Y1489D02*
X2547Y1489D01*
X1748Y1488D02*
X1755Y1488D01*
X2540Y1488D02*
X2547Y1488D01*
X1748Y1487D02*
X1755Y1487D01*
X2540Y1487D02*
X2547Y1487D01*
X1748Y1486D02*
X1755Y1486D01*
X2540Y1486D02*
X2547Y1486D01*
X1748Y1485D02*
X1755Y1485D01*
X2540Y1485D02*
X2547Y1485D01*
X1748Y1484D02*
X1755Y1484D01*
X2540Y1484D02*
X2547Y1484D01*
X1748Y1483D02*
X1755Y1483D01*
X2540Y1483D02*
X2547Y1483D01*
X1748Y1482D02*
X1755Y1482D01*
X2540Y1482D02*
X2547Y1482D01*
X1748Y1481D02*
X1755Y1481D01*
X2540Y1481D02*
X2547Y1481D01*
X1748Y1480D02*
X1755Y1480D01*
X2540Y1480D02*
X2547Y1480D01*
X1748Y1479D02*
X1755Y1479D01*
X2540Y1479D02*
X2547Y1479D01*
X1748Y1478D02*
X1755Y1478D01*
X2540Y1478D02*
X2547Y1478D01*
X1748Y1477D02*
X1755Y1477D01*
X2540Y1477D02*
X2547Y1477D01*
X1748Y1476D02*
X1755Y1476D01*
X2540Y1476D02*
X2547Y1476D01*
X1748Y1475D02*
X1755Y1475D01*
X2540Y1475D02*
X2547Y1475D01*
X1748Y1474D02*
X1755Y1474D01*
X2540Y1474D02*
X2547Y1474D01*
X1748Y1473D02*
X1755Y1473D01*
X2540Y1473D02*
X2547Y1473D01*
X1748Y1472D02*
X1755Y1472D01*
X2540Y1472D02*
X2547Y1472D01*
X1748Y1471D02*
X1755Y1471D01*
X2540Y1471D02*
X2547Y1471D01*
X1748Y1470D02*
X1755Y1470D01*
X2540Y1470D02*
X2547Y1470D01*
X1748Y1469D02*
X1756Y1469D01*
X2540Y1469D02*
X2547Y1469D01*
X1748Y1468D02*
X2547Y1468D01*
X1748Y1467D02*
X2547Y1467D01*
X1748Y1466D02*
X2547Y1466D01*
X1748Y1465D02*
X2547Y1465D01*
X1748Y1464D02*
X2547Y1464D01*
X1748Y1463D02*
X2547Y1463D01*
X1748Y1462D02*
X2547Y1462D01*
X1749Y1461D02*
X2547Y1461D01*
X1508Y1435D02*
X1536Y1435D01*
X1564Y1435D02*
X1573Y1435D01*
X1636Y1435D02*
X1637Y1435D01*
X1659Y1435D02*
X1659Y1435D01*
X1669Y1435D02*
X1681Y1435D01*
X1736Y1435D02*
X1737Y1435D01*
X1506Y1434D02*
X1538Y1434D01*
X1561Y1434D02*
X1576Y1434D01*
X1634Y1434D02*
X1638Y1434D01*
X1657Y1434D02*
X1661Y1434D01*
X1667Y1434D02*
X1684Y1434D01*
X1735Y1434D02*
X1739Y1434D01*
X1506Y1433D02*
X1538Y1433D01*
X1560Y1433D02*
X1578Y1433D01*
X1633Y1433D02*
X1639Y1433D01*
X1657Y1433D02*
X1662Y1433D01*
X1665Y1433D02*
X1685Y1433D01*
X1734Y1433D02*
X1739Y1433D01*
X1505Y1432D02*
X1539Y1432D01*
X1558Y1432D02*
X1579Y1432D01*
X1633Y1432D02*
X1639Y1432D01*
X1656Y1432D02*
X1686Y1432D01*
X1734Y1432D02*
X1740Y1432D01*
X1505Y1431D02*
X1539Y1431D01*
X1558Y1431D02*
X1580Y1431D01*
X1633Y1431D02*
X1639Y1431D01*
X1656Y1431D02*
X1687Y1431D01*
X1734Y1431D02*
X1740Y1431D01*
X1505Y1430D02*
X1538Y1430D01*
X1557Y1430D02*
X1581Y1430D01*
X1633Y1430D02*
X1639Y1430D01*
X1656Y1430D02*
X1688Y1430D01*
X1734Y1430D02*
X1740Y1430D01*
X1505Y1429D02*
X1537Y1429D01*
X1556Y1429D02*
X1581Y1429D01*
X1633Y1429D02*
X1639Y1429D01*
X1656Y1429D02*
X1688Y1429D01*
X1734Y1429D02*
X1740Y1429D01*
X1505Y1428D02*
X1511Y1428D01*
X1519Y1428D02*
X1525Y1428D01*
X1556Y1428D02*
X1564Y1428D01*
X1573Y1428D02*
X1582Y1428D01*
X1633Y1428D02*
X1639Y1428D01*
X1656Y1428D02*
X1669Y1428D01*
X1681Y1428D02*
X1689Y1428D01*
X1734Y1428D02*
X1740Y1428D01*
X1505Y1427D02*
X1511Y1427D01*
X1519Y1427D02*
X1525Y1427D01*
X1556Y1427D02*
X1562Y1427D01*
X1575Y1427D02*
X1582Y1427D01*
X1633Y1427D02*
X1639Y1427D01*
X1656Y1427D02*
X1668Y1427D01*
X1682Y1427D02*
X1689Y1427D01*
X1734Y1427D02*
X1740Y1427D01*
X1505Y1426D02*
X1511Y1426D01*
X1519Y1426D02*
X1525Y1426D01*
X1555Y1426D02*
X1562Y1426D01*
X1576Y1426D02*
X1582Y1426D01*
X1633Y1426D02*
X1639Y1426D01*
X1656Y1426D02*
X1666Y1426D01*
X1683Y1426D02*
X1689Y1426D01*
X1734Y1426D02*
X1740Y1426D01*
X1505Y1425D02*
X1511Y1425D01*
X1519Y1425D02*
X1525Y1425D01*
X1556Y1425D02*
X1561Y1425D01*
X1576Y1425D02*
X1582Y1425D01*
X1633Y1425D02*
X1639Y1425D01*
X1656Y1425D02*
X1664Y1425D01*
X1683Y1425D02*
X1689Y1425D01*
X1734Y1425D02*
X1740Y1425D01*
X1505Y1424D02*
X1511Y1424D01*
X1519Y1424D02*
X1525Y1424D01*
X1556Y1424D02*
X1561Y1424D01*
X1576Y1424D02*
X1582Y1424D01*
X1633Y1424D02*
X1639Y1424D01*
X1656Y1424D02*
X1663Y1424D01*
X1683Y1424D02*
X1689Y1424D01*
X1734Y1424D02*
X1740Y1424D01*
X1505Y1423D02*
X1511Y1423D01*
X1519Y1423D02*
X1525Y1423D01*
X1557Y1423D02*
X1560Y1423D01*
X1576Y1423D02*
X1582Y1423D01*
X1633Y1423D02*
X1639Y1423D01*
X1656Y1423D02*
X1662Y1423D01*
X1683Y1423D02*
X1689Y1423D01*
X1734Y1423D02*
X1740Y1423D01*
X1505Y1422D02*
X1511Y1422D01*
X1519Y1422D02*
X1525Y1422D01*
X1576Y1422D02*
X1582Y1422D01*
X1633Y1422D02*
X1639Y1422D01*
X1656Y1422D02*
X1662Y1422D01*
X1683Y1422D02*
X1689Y1422D01*
X1734Y1422D02*
X1740Y1422D01*
X1505Y1421D02*
X1511Y1421D01*
X1519Y1421D02*
X1525Y1421D01*
X1576Y1421D02*
X1582Y1421D01*
X1633Y1421D02*
X1639Y1421D01*
X1656Y1421D02*
X1662Y1421D01*
X1683Y1421D02*
X1689Y1421D01*
X1734Y1421D02*
X1740Y1421D01*
X1505Y1420D02*
X1511Y1420D01*
X1519Y1420D02*
X1525Y1420D01*
X1576Y1420D02*
X1582Y1420D01*
X1633Y1420D02*
X1639Y1420D01*
X1656Y1420D02*
X1662Y1420D01*
X1683Y1420D02*
X1689Y1420D01*
X1734Y1420D02*
X1740Y1420D01*
X1505Y1419D02*
X1511Y1419D01*
X1519Y1419D02*
X1525Y1419D01*
X1576Y1419D02*
X1582Y1419D01*
X1633Y1419D02*
X1639Y1419D01*
X1656Y1419D02*
X1663Y1419D01*
X1683Y1419D02*
X1689Y1419D01*
X1734Y1419D02*
X1740Y1419D01*
X1505Y1418D02*
X1511Y1418D01*
X1519Y1418D02*
X1525Y1418D01*
X1576Y1418D02*
X1582Y1418D01*
X1633Y1418D02*
X1639Y1418D01*
X1656Y1418D02*
X1664Y1418D01*
X1682Y1418D02*
X1689Y1418D01*
X1734Y1418D02*
X1740Y1418D01*
X1505Y1417D02*
X1511Y1417D01*
X1519Y1417D02*
X1525Y1417D01*
X1576Y1417D02*
X1582Y1417D01*
X1633Y1417D02*
X1639Y1417D01*
X1656Y1417D02*
X1689Y1417D01*
X1734Y1417D02*
X1740Y1417D01*
X1505Y1416D02*
X1511Y1416D01*
X1519Y1416D02*
X1525Y1416D01*
X1576Y1416D02*
X1582Y1416D01*
X1633Y1416D02*
X1639Y1416D01*
X1656Y1416D02*
X1688Y1416D01*
X1734Y1416D02*
X1740Y1416D01*
X1505Y1415D02*
X1511Y1415D01*
X1519Y1415D02*
X1525Y1415D01*
X1576Y1415D02*
X1582Y1415D01*
X1633Y1415D02*
X1639Y1415D01*
X1656Y1415D02*
X1688Y1415D01*
X1734Y1415D02*
X1740Y1415D01*
X1505Y1414D02*
X1511Y1414D01*
X1519Y1414D02*
X1525Y1414D01*
X1576Y1414D02*
X1582Y1414D01*
X1633Y1414D02*
X1639Y1414D01*
X1656Y1414D02*
X1687Y1414D01*
X1713Y1414D02*
X1740Y1414D01*
X1505Y1413D02*
X1511Y1413D01*
X1519Y1413D02*
X1525Y1413D01*
X1576Y1413D02*
X1582Y1413D01*
X1633Y1413D02*
X1639Y1413D01*
X1656Y1413D02*
X1686Y1413D01*
X1711Y1413D02*
X1740Y1413D01*
X1506Y1412D02*
X1511Y1412D01*
X1519Y1412D02*
X1525Y1412D01*
X1576Y1412D02*
X1582Y1412D01*
X1632Y1412D02*
X1639Y1412D01*
X1656Y1412D02*
X1684Y1412D01*
X1710Y1412D02*
X1740Y1412D01*
X1507Y1411D02*
X1510Y1411D01*
X1519Y1411D02*
X1525Y1411D01*
X1576Y1411D02*
X1582Y1411D01*
X1607Y1411D02*
X1610Y1411D01*
X1631Y1411D02*
X1639Y1411D01*
X1656Y1411D02*
X1682Y1411D01*
X1709Y1411D02*
X1740Y1411D01*
X1519Y1410D02*
X1525Y1410D01*
X1576Y1410D02*
X1582Y1410D01*
X1606Y1410D02*
X1611Y1410D01*
X1630Y1410D02*
X1639Y1410D01*
X1656Y1410D02*
X1663Y1410D01*
X1708Y1410D02*
X1740Y1410D01*
X1519Y1409D02*
X1525Y1409D01*
X1576Y1409D02*
X1582Y1409D01*
X1606Y1409D02*
X1611Y1409D01*
X1629Y1409D02*
X1639Y1409D01*
X1656Y1409D02*
X1663Y1409D01*
X1707Y1409D02*
X1740Y1409D01*
X1519Y1408D02*
X1525Y1408D01*
X1576Y1408D02*
X1582Y1408D01*
X1606Y1408D02*
X1612Y1408D01*
X1628Y1408D02*
X1639Y1408D01*
X1656Y1408D02*
X1663Y1408D01*
X1707Y1408D02*
X1740Y1408D01*
X1519Y1407D02*
X1525Y1407D01*
X1576Y1407D02*
X1582Y1407D01*
X1606Y1407D02*
X1612Y1407D01*
X1627Y1407D02*
X1639Y1407D01*
X1656Y1407D02*
X1663Y1407D01*
X1706Y1407D02*
X1714Y1407D01*
X1734Y1407D02*
X1740Y1407D01*
X1519Y1406D02*
X1525Y1406D01*
X1576Y1406D02*
X1582Y1406D01*
X1606Y1406D02*
X1612Y1406D01*
X1625Y1406D02*
X1639Y1406D01*
X1656Y1406D02*
X1663Y1406D01*
X1706Y1406D02*
X1713Y1406D01*
X1734Y1406D02*
X1740Y1406D01*
X1519Y1405D02*
X1525Y1405D01*
X1576Y1405D02*
X1582Y1405D01*
X1606Y1405D02*
X1612Y1405D01*
X1624Y1405D02*
X1639Y1405D01*
X1656Y1405D02*
X1663Y1405D01*
X1706Y1405D02*
X1712Y1405D01*
X1734Y1405D02*
X1740Y1405D01*
X1519Y1404D02*
X1525Y1404D01*
X1576Y1404D02*
X1582Y1404D01*
X1606Y1404D02*
X1612Y1404D01*
X1623Y1404D02*
X1639Y1404D01*
X1657Y1404D02*
X1663Y1404D01*
X1706Y1404D02*
X1712Y1404D01*
X1734Y1404D02*
X1740Y1404D01*
X1519Y1403D02*
X1525Y1403D01*
X1576Y1403D02*
X1582Y1403D01*
X1606Y1403D02*
X1614Y1403D01*
X1622Y1403D02*
X1639Y1403D01*
X1657Y1403D02*
X1665Y1403D01*
X1706Y1403D02*
X1712Y1403D01*
X1734Y1403D02*
X1740Y1403D01*
X1519Y1402D02*
X1525Y1402D01*
X1560Y1402D02*
X1588Y1402D01*
X1606Y1402D02*
X1631Y1402D01*
X1633Y1402D02*
X1639Y1402D01*
X1657Y1402D02*
X1681Y1402D01*
X1706Y1402D02*
X1712Y1402D01*
X1734Y1402D02*
X1740Y1402D01*
X1519Y1401D02*
X1525Y1401D01*
X1559Y1401D02*
X1588Y1401D01*
X1607Y1401D02*
X1629Y1401D01*
X1633Y1401D02*
X1639Y1401D01*
X1658Y1401D02*
X1682Y1401D01*
X1706Y1401D02*
X1712Y1401D01*
X1734Y1401D02*
X1740Y1401D01*
X1519Y1400D02*
X1525Y1400D01*
X1559Y1400D02*
X1589Y1400D01*
X1608Y1400D02*
X1628Y1400D01*
X1633Y1400D02*
X1639Y1400D01*
X1658Y1400D02*
X1682Y1400D01*
X1706Y1400D02*
X1712Y1400D01*
X1734Y1400D02*
X1740Y1400D01*
X1519Y1399D02*
X1525Y1399D01*
X1559Y1399D02*
X1589Y1399D01*
X1609Y1399D02*
X1627Y1399D01*
X1633Y1399D02*
X1639Y1399D01*
X1659Y1399D02*
X1682Y1399D01*
X1706Y1399D02*
X1712Y1399D01*
X1734Y1399D02*
X1740Y1399D01*
X1519Y1398D02*
X1525Y1398D01*
X1559Y1398D02*
X1589Y1398D01*
X1610Y1398D02*
X1626Y1398D01*
X1633Y1398D02*
X1639Y1398D01*
X1660Y1398D02*
X1682Y1398D01*
X1706Y1398D02*
X1712Y1398D01*
X1734Y1398D02*
X1740Y1398D01*
X1519Y1397D02*
X1525Y1397D01*
X1560Y1397D02*
X1588Y1397D01*
X1611Y1397D02*
X1625Y1397D01*
X1634Y1397D02*
X1638Y1397D01*
X1662Y1397D02*
X1682Y1397D01*
X1706Y1397D02*
X1712Y1397D01*
X1734Y1397D02*
X1740Y1397D01*
X1519Y1396D02*
X1525Y1396D01*
X1561Y1396D02*
X1587Y1396D01*
X1614Y1396D02*
X1623Y1396D01*
X1635Y1396D02*
X1637Y1396D01*
X1664Y1396D02*
X1680Y1396D01*
X1706Y1396D02*
X1712Y1396D01*
X1734Y1396D02*
X1740Y1396D01*
X1519Y1395D02*
X1525Y1395D01*
X1576Y1395D02*
X1582Y1395D01*
X1706Y1395D02*
X1712Y1395D01*
X1734Y1395D02*
X1740Y1395D01*
X1519Y1394D02*
X1525Y1394D01*
X1576Y1394D02*
X1582Y1394D01*
X1706Y1394D02*
X1712Y1394D01*
X1734Y1394D02*
X1740Y1394D01*
X1519Y1393D02*
X1525Y1393D01*
X1576Y1393D02*
X1582Y1393D01*
X1706Y1393D02*
X1712Y1393D01*
X1734Y1393D02*
X1740Y1393D01*
X1519Y1392D02*
X1525Y1392D01*
X1576Y1392D02*
X1582Y1392D01*
X1706Y1392D02*
X1712Y1392D01*
X1734Y1392D02*
X1740Y1392D01*
X1519Y1391D02*
X1525Y1391D01*
X1576Y1391D02*
X1582Y1391D01*
X1706Y1391D02*
X1712Y1391D01*
X1734Y1391D02*
X1740Y1391D01*
X1519Y1390D02*
X1525Y1390D01*
X1576Y1390D02*
X1582Y1390D01*
X1706Y1390D02*
X1712Y1390D01*
X1734Y1390D02*
X1740Y1390D01*
X1519Y1389D02*
X1525Y1389D01*
X1576Y1389D02*
X1582Y1389D01*
X1706Y1389D02*
X1713Y1389D01*
X1734Y1389D02*
X1740Y1389D01*
X1519Y1388D02*
X1535Y1388D01*
X1576Y1388D02*
X1582Y1388D01*
X1707Y1388D02*
X1740Y1388D01*
X1519Y1387D02*
X1538Y1387D01*
X1576Y1387D02*
X1582Y1387D01*
X1707Y1387D02*
X1740Y1387D01*
X1519Y1386D02*
X1538Y1386D01*
X1576Y1386D02*
X1582Y1386D01*
X1708Y1386D02*
X1740Y1386D01*
X1519Y1385D02*
X1539Y1385D01*
X1577Y1385D02*
X1581Y1385D01*
X1708Y1385D02*
X1740Y1385D01*
X1519Y1384D02*
X1539Y1384D01*
X1579Y1384D02*
X1579Y1384D01*
X1709Y1384D02*
X1740Y1384D01*
X1519Y1383D02*
X1538Y1383D01*
X1710Y1383D02*
X1740Y1383D01*
X1519Y1382D02*
X1538Y1382D01*
X1712Y1382D02*
X1740Y1382D01*
X1519Y1381D02*
X1535Y1381D01*
X1717Y1381D02*
X1739Y1381D01*
X3090Y1210D02*
X3096Y1210D01*
X3088Y1209D02*
X3098Y1209D01*
X3087Y1208D02*
X3099Y1208D01*
X3086Y1207D02*
X3100Y1207D01*
X3086Y1206D02*
X3101Y1206D01*
X3085Y1205D02*
X3101Y1205D01*
X3084Y1204D02*
X3102Y1204D01*
X3084Y1203D02*
X3091Y1203D01*
X3095Y1203D02*
X3102Y1203D01*
X3083Y1202D02*
X3090Y1202D01*
X3096Y1202D02*
X3103Y1202D01*
X3083Y1201D02*
X3090Y1201D01*
X3096Y1201D02*
X3103Y1201D01*
X3083Y1200D02*
X3089Y1200D01*
X3097Y1200D02*
X3104Y1200D01*
X3082Y1199D02*
X3089Y1199D01*
X3097Y1199D02*
X3104Y1199D01*
X3082Y1198D02*
X3088Y1198D01*
X3098Y1198D02*
X3105Y1198D01*
X3081Y1197D02*
X3088Y1197D01*
X3098Y1197D02*
X3105Y1197D01*
X3081Y1196D02*
X3087Y1196D01*
X3099Y1196D02*
X3106Y1196D01*
X3146Y1196D02*
X3150Y1196D01*
X3080Y1195D02*
X3087Y1195D01*
X3099Y1195D02*
X3106Y1195D01*
X3128Y1195D02*
X3131Y1195D01*
X3142Y1195D02*
X3154Y1195D01*
X3080Y1194D02*
X3086Y1194D01*
X3100Y1194D02*
X3107Y1194D01*
X3127Y1194D02*
X3132Y1194D01*
X3140Y1194D02*
X3155Y1194D01*
X3079Y1193D02*
X3086Y1193D01*
X3100Y1193D02*
X3107Y1193D01*
X3127Y1193D02*
X3132Y1193D01*
X3138Y1193D02*
X3157Y1193D01*
X3079Y1192D02*
X3085Y1192D01*
X3101Y1192D02*
X3108Y1192D01*
X3126Y1192D02*
X3133Y1192D01*
X3136Y1192D02*
X3157Y1192D01*
X3078Y1191D02*
X3085Y1191D01*
X3101Y1191D02*
X3108Y1191D01*
X3126Y1191D02*
X3133Y1191D01*
X3135Y1191D02*
X3158Y1191D01*
X3078Y1190D02*
X3084Y1190D01*
X3102Y1190D02*
X3108Y1190D01*
X3126Y1190D02*
X3159Y1190D01*
X3077Y1189D02*
X3084Y1189D01*
X3102Y1189D02*
X3109Y1189D01*
X3126Y1189D02*
X3144Y1189D01*
X3150Y1189D02*
X3159Y1189D01*
X3077Y1188D02*
X3083Y1188D01*
X3103Y1188D02*
X3109Y1188D01*
X3126Y1188D02*
X3142Y1188D01*
X3152Y1188D02*
X3159Y1188D01*
X3077Y1187D02*
X3083Y1187D01*
X3103Y1187D02*
X3109Y1187D01*
X3126Y1187D02*
X3141Y1187D01*
X3153Y1187D02*
X3159Y1187D01*
X3076Y1186D02*
X3083Y1186D01*
X3104Y1186D02*
X3110Y1186D01*
X3126Y1186D02*
X3139Y1186D01*
X3153Y1186D02*
X3160Y1186D01*
X3076Y1185D02*
X3082Y1185D01*
X3104Y1185D02*
X3110Y1185D01*
X3126Y1185D02*
X3138Y1185D01*
X3154Y1185D02*
X3160Y1185D01*
X3076Y1184D02*
X3082Y1184D01*
X3104Y1184D02*
X3110Y1184D01*
X3126Y1184D02*
X3136Y1184D01*
X3154Y1184D02*
X3160Y1184D01*
X3076Y1183D02*
X3082Y1183D01*
X3104Y1183D02*
X3110Y1183D01*
X3126Y1183D02*
X3134Y1183D01*
X3154Y1183D02*
X3160Y1183D01*
X3076Y1182D02*
X3082Y1182D01*
X3104Y1182D02*
X3110Y1182D01*
X3126Y1182D02*
X3133Y1182D01*
X3154Y1182D02*
X3160Y1182D01*
X3077Y1181D02*
X3083Y1181D01*
X3103Y1181D02*
X3110Y1181D01*
X3126Y1181D02*
X3133Y1181D01*
X3154Y1181D02*
X3160Y1181D01*
X3077Y1180D02*
X3083Y1180D01*
X3103Y1180D02*
X3109Y1180D01*
X3126Y1180D02*
X3133Y1180D01*
X3154Y1180D02*
X3160Y1180D01*
X3077Y1179D02*
X3084Y1179D01*
X3103Y1179D02*
X3109Y1179D01*
X3126Y1179D02*
X3133Y1179D01*
X3154Y1179D02*
X3160Y1179D01*
X3077Y1178D02*
X3084Y1178D01*
X3102Y1178D02*
X3109Y1178D01*
X3126Y1178D02*
X3133Y1178D01*
X3154Y1178D02*
X3160Y1178D01*
X3078Y1177D02*
X3085Y1177D01*
X3102Y1177D02*
X3108Y1177D01*
X3126Y1177D02*
X3133Y1177D01*
X3154Y1177D02*
X3160Y1177D01*
X3078Y1176D02*
X3085Y1176D01*
X3101Y1176D02*
X3108Y1176D01*
X3126Y1176D02*
X3133Y1176D01*
X3154Y1176D02*
X3160Y1176D01*
X3079Y1175D02*
X3086Y1175D01*
X3101Y1175D02*
X3107Y1175D01*
X3126Y1175D02*
X3133Y1175D01*
X3154Y1175D02*
X3160Y1175D01*
X3079Y1174D02*
X3086Y1174D01*
X3100Y1174D02*
X3107Y1174D01*
X3126Y1174D02*
X3133Y1174D01*
X3154Y1174D02*
X3160Y1174D01*
X3080Y1173D02*
X3087Y1173D01*
X3100Y1173D02*
X3106Y1173D01*
X3126Y1173D02*
X3133Y1173D01*
X3154Y1173D02*
X3160Y1173D01*
X3080Y1172D02*
X3087Y1172D01*
X3099Y1172D02*
X3106Y1172D01*
X3126Y1172D02*
X3133Y1172D01*
X3154Y1172D02*
X3160Y1172D01*
X3081Y1171D02*
X3088Y1171D01*
X3099Y1171D02*
X3105Y1171D01*
X3126Y1171D02*
X3133Y1171D01*
X3154Y1171D02*
X3160Y1171D01*
X3081Y1170D02*
X3088Y1170D01*
X3098Y1170D02*
X3105Y1170D01*
X3126Y1170D02*
X3133Y1170D01*
X3154Y1170D02*
X3160Y1170D01*
X3082Y1169D02*
X3089Y1169D01*
X3098Y1169D02*
X3104Y1169D01*
X3126Y1169D02*
X3133Y1169D01*
X3154Y1169D02*
X3160Y1169D01*
X3082Y1168D02*
X3089Y1168D01*
X3097Y1168D02*
X3104Y1168D01*
X3126Y1168D02*
X3133Y1168D01*
X3154Y1168D02*
X3160Y1168D01*
X3083Y1167D02*
X3090Y1167D01*
X3097Y1167D02*
X3103Y1167D01*
X3126Y1167D02*
X3133Y1167D01*
X3154Y1167D02*
X3160Y1167D01*
X3083Y1166D02*
X3090Y1166D01*
X3096Y1166D02*
X3103Y1166D01*
X3126Y1166D02*
X3133Y1166D01*
X3154Y1166D02*
X3160Y1166D01*
X3084Y1165D02*
X3091Y1165D01*
X3096Y1165D02*
X3102Y1165D01*
X3126Y1165D02*
X3133Y1165D01*
X3154Y1165D02*
X3160Y1165D01*
X3084Y1164D02*
X3091Y1164D01*
X3095Y1164D02*
X3102Y1164D01*
X3126Y1164D02*
X3133Y1164D01*
X3154Y1164D02*
X3160Y1164D01*
X3085Y1163D02*
X3101Y1163D01*
X3126Y1163D02*
X3133Y1163D01*
X3154Y1163D02*
X3160Y1163D01*
X3085Y1162D02*
X3101Y1162D01*
X3126Y1162D02*
X3133Y1162D01*
X3154Y1162D02*
X3160Y1162D01*
X3086Y1161D02*
X3100Y1161D01*
X3126Y1161D02*
X3133Y1161D01*
X3154Y1161D02*
X3160Y1161D01*
X3087Y1160D02*
X3100Y1160D01*
X3127Y1160D02*
X3132Y1160D01*
X3154Y1160D02*
X3159Y1160D01*
X3088Y1159D02*
X3099Y1159D01*
X3127Y1159D02*
X3132Y1159D01*
X3154Y1159D02*
X3159Y1159D01*
X3089Y1158D02*
X3097Y1158D01*
X3127Y1158D02*
X3132Y1158D01*
X3154Y1158D02*
X3159Y1158D01*
X3091Y1157D02*
X3095Y1157D01*
X3129Y1157D02*
X3130Y1157D01*
X3156Y1157D02*
X3157Y1157D01*
D02*
G04 End of Silk1*
M02*